<svg id="Layer_1" data-name="Layer 1" xmlns="http://www.w3.org/2000/svg" viewBox="0 0 648.85 935.73"><defs><style>.cls-1,.cls-10,.cls-11,.cls-3,.cls-5,.cls-6,.cls-7,.cls-8,.cls-9{fill:none;}.cls-1,.cls-10,.cls-2,.cls-8,.cls-9{stroke:#454099;}.cls-1,.cls-11,.cls-2,.cls-3,.cls-4{stroke-miterlimit:10;}.cls-1,.cls-2{stroke-width:10px;}.cls-2{fill:#454099;}.cls-3,.cls-4,.cls-5,.cls-6,.cls-7{stroke:#29b463;}.cls-10,.cls-11,.cls-3,.cls-4,.cls-5,.cls-6,.cls-7,.cls-8,.cls-9{stroke-width:15px;}.cls-4{fill:#fff;}.cls-10,.cls-5,.cls-6,.cls-7,.cls-8,.cls-9{stroke-miterlimit:133.33;}.cls-10,.cls-12,.cls-5,.cls-7,.cls-8{isolation:isolate;}.cls-10,.cls-5,.cls-7,.cls-8{opacity:0.5;}.cls-10,.cls-11,.cls-7{stroke-linecap:round;}.cls-11{stroke:#fff;opacity:0.55;}.cls-12,.cls-13{fill:#2365b0;}.cls-12{opacity:0.88;}.cls-14{fill:#29b463;}</style></defs><line class="cls-1" x1="183.56" y1="119.89" x2="282.13" y2="371.82"/><line class="cls-1" x1="357.28" y1="563.91" x2="455.85" y2="815.84"/><line class="cls-1" x1="533.24" y1="384.32" x2="415.75" y2="430.29"/><line class="cls-2" x1="137.81" y1="270.85" x2="249.77" y2="392.03"/><line class="cls-2" x1="320.36" y1="571.03" x2="321.11" y2="739.33"/><circle class="cls-3" cx="321.11" cy="816.96" r="77.61"/><circle class="cls-3" cx="319.71" cy="467.86" r="103.14"/><circle class="cls-4" cx="85.13" cy="213.83" r="77.61"/><circle class="cls-3" cx="477.05" cy="870.03" r="58.19"/><circle class="cls-3" cx="162.36" cy="65.7" r="58.19"/><circle class="cls-5" cx="583.38" cy="347.31" r="17.39"/><circle class="cls-6" cx="583.38" cy="364.7" r="57.96"/><path class="cls-7" d="M618,411.07c-.92-16.76-6.05-29-34.6-29s-33.67,12.22-34.59,29"/><circle class="cls-8" cx="319.61" cy="450.22" r="17.39"/><circle class="cls-9" cx="319.61" cy="467.61" r="57.96"/><path class="cls-10" d="M354.21,514c-.93-16.76-6.06-29-34.6-29s-33.68,12.22-34.6,29"/><path class="cls-11" d="M395.21,436c.65,1.46,1.28,3,1.87,4.48,1.11,2.83,2.08,5.67,2.93,8.49"/><path class="cls-11" d="M345.84,390a85.38,85.38,0,0,1,37.38,26.71"/><path class="cls-12" d="M204.81,51.47a.53.53,0,0,0-.08-.15l-.2-.26.05-.21a.33.33,0,0,0,0-.22,44.23,44.23,0,0,0-6.95-13.94.37.37,0,0,0-.17-.13l-.52-.22a.43.43,0,0,0-.41,0l-.42.29-.74-1c-.71-.79-1.31-1.59-1.59-2a.49.49,0,0,0,0-.24l-.22-.63a8.5,8.5,0,0,0-1.88-2,6,6,0,0,0-.92-.53,2.74,2.74,0,0,0-.83-.17.37.37,0,0,0-.25.07c-1.13-.81-3.58-2.78-3.61-2.8a.39.39,0,0,0-.14-.08l-.49-.15a.33.33,0,0,0-.39.08,2.57,2.57,0,0,1-.51.18,9.84,9.84,0,0,1-1.32.24h-.09c-.52.07-.71.28-.77.45l-.71,1.14a.37.37,0,0,0,0,.11.8.8,0,0,0,0,.38l0,0A2.13,2.13,0,0,0,181,29a4.61,4.61,0,0,0-2.66-.18,18.94,18.94,0,0,0-2.56.71c-.21.08-1.33.45-1.9.6l-.89.25-.5.15c-.25.06-1.52.44-3.86,1.14-.91.26-1.49.37-1.49.37-.3,0-.56,0-.76,0a3.41,3.41,0,0,1-.84-.08v-1.1a1.15,1.15,0,0,0-.52-.86,3.68,3.68,0,0,0-1.53-.29,8.29,8.29,0,0,0-1.88.12,3.12,3.12,0,0,0-1.72.94,1.61,1.61,0,0,0-.51,1.26s0,.59.08,1a1,1,0,0,0,.12.41,13.69,13.69,0,0,1-2,.72,17.18,17.18,0,0,1-3,.64.42.42,0,0,0-.38.46c0,.47.41,2.59.45,2.82s.2,1.18.27,1.47.26.89.27.89a1.15,1.15,0,0,0,.61.73,2.43,2.43,0,0,0,1.81,0,2.32,2.32,0,0,0,1.09-.81l.42-.48a.87.87,0,0,1,.82-.2,1.79,1.79,0,0,1,.83.77l-.74.23c-.43.11-4.57,1.45-4.57,1.45s-1.6.51-2.88.82a15.71,15.71,0,0,1-2.26.43c-.25,0-.31,0-.31,0l.13-.23s0,0,0-.05h0a.6.6,0,0,0,.06-.19.13.13,0,0,1,0-.06.28.28,0,0,1,0-.09v-.13l0-.08a.47.47,0,0,0,0-.1,3.22,3.22,0,0,0-.46-.67,1.42,1.42,0,0,0-.28-.23,1.24,1.24,0,0,0-.58-.15,4.09,4.09,0,0,0-2,.43,4,4,0,0,0-2,1.39.94.94,0,0,0,0,.87,6.88,6.88,0,0,0,.89,1h0a5.31,5.31,0,0,1-1.71,1l-.06,0-.07,0a16.16,16.16,0,0,1-2.94.72c-.68.09-1.3.13-1.75.16a4.52,4.52,0,0,0,.89-1.28,3.5,3.5,0,0,0-.26-3.17,7.71,7.71,0,0,0-.92-.78,1.24,1.24,0,0,0-1.32-.11,5.4,5.4,0,0,1,.34-1.17c.28-.68.88-1.86.88-1.86a20.87,20.87,0,0,0,1.27-2.5,5.44,5.44,0,0,0,.38-1.79.39.39,0,0,0-.09-.26l-.64-.82a1.71,1.71,0,0,0,1.26-.19,6,6,0,0,0,1.53-2l.83-1.69a.43.43,0,0,0,0-.41l-.7-1.13a.4.4,0,0,0-.27-.19c-.08,0-.22-.05-1,.23a9.76,9.76,0,0,0-.91.37l-.23-.34-.1-.12c-.19-.19-.56-.22-1.16-.08A4.13,4.13,0,0,0,136.72,29a3,3,0,0,0-.44.74,11.51,11.51,0,0,1-2.5,1.67,1.87,1.87,0,0,0-.74.3,28.07,28.07,0,0,0-2.69,2.77.71.71,0,0,0-.16.23,2.11,2.11,0,0,0-.19.87s0,0,0,.06c-.53.7-.87,1.09-1,1.29h-.16a4.33,4.33,0,0,0-.74.39.57.57,0,0,0-.11.11c-.33.46-1.08,1.7-1.32,2.1l-.17.1a.41.41,0,0,0-.18.05l-.58.33a.4.4,0,0,0-.15.14A43,43,0,0,0,120,54.52a.37.37,0,0,0,0,.18l0,.14-.15.34,0,.1a43.63,43.63,0,0,0-.36,12.38.48.48,0,0,0,.07.2l.15.22-.09.23a.51.51,0,0,0,0,.21,43.3,43.3,0,0,0,5.63,16.31.49.49,0,0,0,.12.13l0,0,0,.16a.37.37,0,0,0,0,.11A43.53,43.53,0,0,0,206.13,66.5a.63.63,0,0,0,0-.19L206,66l.15-.25a.31.31,0,0,0,.06-.19c.06-1,.09-1.91.09-2.85A43.57,43.57,0,0,0,204.81,51.47ZM205,57.4c.06-.06.1-.17.09-.45.15,1.09.25,2.18.32,3.28a2,2,0,0,0-.11.51s-.05.4-.13.39l-.08,0c-.1,0-.27-.26-.39-1.17a17.71,17.71,0,0,1-.14-2.49s0-.13,0-.16.16.08.16.08A.15.15,0,0,0,205,57.4ZM204,51.77c.18.68.33,1.38.48,2.07-.21-.87-.45-1.68-.63-2.26Zm-.15-.2c0,.16.09.32.15.49-.06-.17-.11-.34-.16-.49Zm-.13-.15,0,0-.14-.16h0l.12.13ZM202,46.08s0,0,0,0a41.56,41.56,0,0,1,1.67,4.6h-.14v0s-.27-.77-.88-2.31A17.74,17.74,0,0,1,202,46.3v0S201.93,46.11,202,46.08Zm1.59,5.19Zm-.06-.61ZM197.2,38.42a1.73,1.73,0,0,0,.32-.2.34.34,0,0,0,.09-.08c.73,1,1.41,2.1,2,3.19-.07,0-.14.11,0,.52.1.26.11.36.1.37s-.16-.17-.16-.17c-.79-1-2.4-3.63-2.4-3.63l-.16-.1Zm-.51.22.07,0,.05,0,.14-.06h0c.86,1.39,2.41,3.63,2.41,3.63s.62.81.76.82-.07-.63-.07-.63-.07-.25,0-.29c.58,1,1.11,2.11,1.6,3.19h0a.29.29,0,0,0-.13.28,5.53,5.53,0,0,0,.42,1.4s.88,2.24,1.44,3.8a1.43,1.43,0,0,1-.68.32,2.22,2.22,0,0,0-1.64,1.12,1.48,1.48,0,0,0-.24.79h0a.43.43,0,0,0,0,.05,2.81,2.81,0,0,0,0,.3.28.28,0,0,1,0,.09,2.25,2.25,0,0,1,0,.22.31.31,0,0,1,0,.08v0a2.75,2.75,0,0,0,.14.36s.31.5.45.76a3.07,3.07,0,0,1,0,3,2.56,2.56,0,0,1-1.29.72c-.73.17-.55-.69-.62-1.14a6.07,6.07,0,0,0-1-3c-.83-1-2.33.76-3.07,1.33a30.14,30.14,0,0,1-5.65,4.16l-.11-1.4a9.25,9.25,0,0,0-.47-1.93,14.06,14.06,0,0,0-1.64-3.48,2.13,2.13,0,0,0-1.05-1A1.56,1.56,0,0,0,186,52a1.14,1.14,0,0,0-1.21,1,2.38,2.38,0,0,1-.7,1.07c-.37.21-1.36.79-2.05.45a1.17,1.17,0,0,1-.27-.2,4.7,4.7,0,0,1-.34-.44c-.13-.17-.24-.35-.35-.52a4.8,4.8,0,0,1-.63-1.89,1.79,1.79,0,0,1,.31-1.37s.09-.25,1.37-.25c1.43,0,1.7-.44,1.7-.44a1.07,1.07,0,0,0,.25-.81,6.83,6.83,0,0,0-.66-2.54,2.5,2.5,0,0,0-.22-.36,14.73,14.73,0,0,0-1.2-1.55l-.78-.15.78.14c.5-.18,1.19-.46,1.93-.79a24.63,24.63,0,0,0,2.94-1.65,6.26,6.26,0,0,1,2.44-.92s.21,0,.23.27a4,4,0,0,0,.18.92,2.73,2.73,0,0,0,2.31,1.73,3,3,0,0,0,.59,0l.27,0,.23,0,.35-.13.06,0a2.27,2.27,0,0,0,.31-.17l0,0a2.1,2.1,0,0,0,.57-.54,1.59,1.59,0,0,0-.42-1.94s-.81-.87-.84-.94a.1.1,0,0,1,0-.14.23.23,0,0,1,.1-.05c.15,0,1.15-.33,2.12-.64C195.91,38.93,196.35,38.78,196.69,38.64ZM191.4,66.19a1.79,1.79,0,0,0,2.15.84c.72-.18,1-.57,1.36-1.44s.61-.92.61-.92.16-.23.89-.14a1,1,0,0,1,.88.6,4.93,4.93,0,0,1,.34,2,3.62,3.62,0,0,1-.55,1.88c-.24.38-1.49.25-1.49.25s-2.14-.24-2.34,2.34a9.33,9.33,0,0,0,.67,4.36,3.12,3.12,0,0,0,.9,1.23,4.58,4.58,0,0,1,.52.44l.11.13h0c-1.53,1.24-2,1.64-3.2,2.5a26.32,26.32,0,0,1-2.9,1.85,7.09,7.09,0,0,1-3.32.72s-.48,0-.25-.4a6.76,6.76,0,0,0,.65-1.64c.12-.43.35-1.53-.53-1.89a5.07,5.07,0,0,0-2.55.17s-3.83,1-5.39,2.73-.24,2.41-.24,2.41a6,6,0,0,0,1.17.61c.55.2.44.37.3.47A16.14,16.14,0,0,1,175.45,87,27.25,27.25,0,0,1,170,88l-3.79.24c-.29-.57-.59-1.07-.59-1.07a3.9,3.9,0,0,1-.46-1.16,2.67,2.67,0,0,1,.26-2,4.53,4.53,0,0,1,2.31-2,6.51,6.51,0,0,1,2.53,0,2.27,2.27,0,0,0,1.8-.18,1.59,1.59,0,0,0,.71-.89c0-.06.05-.14.08-.21l.06-.19a3.15,3.15,0,0,0,.1-.5c.22-1.46,0-4.17-2-4.71a3.13,3.13,0,0,0-3,.48,10.19,10.19,0,0,1-1.39,1.32c-.34.17-.86.48-.86.48a5.4,5.4,0,0,1-1.23.55c-.31.06-1.35-1.3-1.59-2.47,0-.08,0-.16,0-.24a23.71,23.71,0,0,1-.28-3.51c0-.24,0-.5,0-.79h0l1-.06a27.87,27.87,0,0,0,6.12-.82,16.17,16.17,0,0,0,4.2-1.93,2.26,2.26,0,0,0,1.1-1.28,2.8,2.8,0,0,0,.06-.28.29.29,0,0,1,0-.09h0c.14-1.09-1.15-1.82-1.15-1.82a8.34,8.34,0,0,1-1.25-.79.35.35,0,0,1-.09-.33.39.39,0,0,1,.07-.14,4.52,4.52,0,0,1,2.45-2,14.85,14.85,0,0,1,3.9-1c.79-.08,1.05.2,1.16.34a.8.8,0,0,1,0,.69,10.15,10.15,0,0,1-.55,1.18c-.16.3-.44,1-.26,1.37s.71.5,1.4.38a26.06,26.06,0,0,0,4.13-1.31c1.61-.67,4.29-2,4.29-2h0l.07-.59h0l-.07.6A34,34,0,0,0,191.4,66.19Zm4.36,11.63,0,.53a4.74,4.74,0,0,1,.13,2.39,9.15,9.15,0,0,1-.84,2.81l-.13.23,0,0-.13.17-.22.27-.15.15s-.05,0-.06.06l-.19.17s0,0,0,0a2.33,2.33,0,0,1-1.16.58,4.39,4.39,0,0,0-2.92,1s0,0-.05,0l-.1.1s0,0-.05,0,0,0,0,0a2.24,2.24,0,0,0-.28.37,3.85,3.85,0,0,0-.59,2.44.83.83,0,0,0,1.14.7,8.47,8.47,0,0,0,2.9-1.7c.8-.63.31.21.31.21a13.62,13.62,0,0,1-2,2.76,12.14,12.14,0,0,0-1.5,1.86c-.27.37-.49.71-.68,1h0c-1.06.57-2.57,1.32-3.52,1.71l.15-.06-.15.06a11,11,0,0,1-1.19.43h0a1.22,1.22,0,0,1-.54.08h0s0,0,0,0,0,0,0,0a2.48,2.48,0,0,1,.39-.38,1.2,1.2,0,0,0,.33-.68.2.2,0,0,0-.13-.21c-.15-.09-.49-.14-1.22,0a8.34,8.34,0,0,0-1,.28h0c-.44.15-.83.31-1.13.44h0l.08,0c-.41.18-.68.32-.68.32a8.21,8.21,0,0,0-1.26.75l0,0-.05,0-.17.15,0,0a1.4,1.4,0,0,0-.16.2s0,0,0,0a.76.76,0,0,0-.06.2h0a.27.27,0,0,0,.08.2s.09.16.53.3a.23.23,0,0,1,.09.06v0l0,0,0,0,0,0-.08,0h0a4.66,4.66,0,0,1-.71.28,28.21,28.21,0,0,1-3.17.79c-1.16.23-2.16.45-2.84.6h0a5.08,5.08,0,0,0-.3-.8.93.93,0,0,0-.05-.1c0-.12-.11-.23-.16-.34l0-.06c-.06-.12-.13-.23-.19-.34l-.08-.13-.08-.13c-.08-.12-.14-.22-.19-.28-.26-.43-.7-.67-2-.45a15.58,15.58,0,0,0-2.86.87,5.94,5.94,0,0,1-2.79.69,1.56,1.56,0,0,1-.73-.29,1.89,1.89,0,0,1-.69-1.45c0-.38.25-.71.88-1a14.89,14.89,0,0,1,4.21-.69,3.54,3.54,0,0,0,2.92-1.49,1.21,1.21,0,0,0,0-1.72,2.5,2.5,0,0,0-.38-.26,9.37,9.37,0,0,0-1.28-.62l-.29-.16,0,0-.05,0-.14-.1c-.15-.11-.29-.23-.43-.35a3.13,3.13,0,0,1-1-1.37,1.52,1.52,0,0,0-.09-.25l-.43-.28-.28-.19h0l.06,0-.06,0h0l.72.47c.62-.05,1.42-.11,2.14-.14a37.2,37.2,0,0,0,5-.68,22,22,0,0,0,4.73-1.65c1.45-.76,1.53-1.29,1.53-1.29a.46.46,0,0,0,0-.38.94.94,0,0,0-.38-.47c-.61-.44-.87-.32-1.41-.86a.48.48,0,0,1-.13-.21c-.17-.53.6-1.15.6-1.15s.52-.73,3.4-1.84,3.36-.74,3.51-.62a.3.3,0,0,1,.09.13,1.42,1.42,0,0,1,0,.65c-.06.27-.42,1.23-.61,1.74a1.43,1.43,0,0,0-.11.81.71.71,0,0,0,.62.55,5.84,5.84,0,0,0,2.9-.38c2.44-.87,3.17-1.94,7.21-4.87l0,0v-.54h0ZM154.19,92.6a4.72,4.72,0,0,0,1.33,1s.39.17.39.28,0,.26-.31.43a7.65,7.65,0,0,1-3.48.73c-2.29,0-3.3,0-4-.59s.13-1.56.13-1.56a1.54,1.54,0,0,0,0-1.23C148,91,146.41,91,146.41,91l-2.21-.11c-2.62-.07-6.07-.36-7.61-.55h0l0-.06s-1.58-2.86-1.42-3.91a1.21,1.21,0,0,1,.72-.87,2.52,2.52,0,0,1,.33-.13c.69-.21.6.46,2.63.83a2.48,2.48,0,0,0,1.71-.17,1.2,1.2,0,0,0,.5-.63,4.07,4.07,0,0,0-.48-2.87s-1.23-2.25-2.74-2.33h0c-.76,0-.57.5-1.77.78,0,0-1.61.16-2.13-.81a7.77,7.77,0,0,1-.86-3.4s0-.06,0-.08a5.25,5.25,0,0,1,.06-.91s0-.12,0-.2.06-.2.1-.35a4.46,4.46,0,0,0,.11-.57h0l3.06-.33a20.51,20.51,0,0,1,4.9-.26A2.27,2.27,0,0,1,143,75.26a.46.46,0,0,1,0,.16.44.44,0,0,1-.22.29,2.43,2.43,0,0,0-.8.76h0a.61.61,0,0,0-.05.12h0a1.71,1.71,0,0,0,.2,1.6,3.17,3.17,0,0,0,2.94,1.21,33,33,0,0,0,3.82-.82,3.48,3.48,0,0,0,1.94-1.1,1.41,1.41,0,0,0,.24-.58c.12-.86-1.3-1.94-1.3-1.94a9.51,9.51,0,0,1-.77-.64.11.11,0,0,1,0-.07.18.18,0,0,1,.1-.09,8.89,8.89,0,0,0,1.15-.35,26.34,26.34,0,0,1,2.83-1c1.55-.48,4.74-1,4.74-1s1.76-.28,4-.46h0l.27-.31.08-.1-.36.42c0,.21,0,.42,0,.64a12.39,12.39,0,0,0,.61,5,4.46,4.46,0,0,0,1.47,2,1.87,1.87,0,0,0,1.71,0,16.52,16.52,0,0,0,1.64-.88c.63-.4.61-.57,1.38-1.28a2.18,2.18,0,0,1,1.75-.51,1.83,1.83,0,0,1,1.47,1.11,5.56,5.56,0,0,1,.3,3.19c-.14.56-.38.93-.9.83s-1.39-.18-1.71-.2a7.46,7.46,0,0,0-2,.17,4.9,4.9,0,0,0-2.89,2.44,3.46,3.46,0,0,0-.22,3c.14.39.54.93.88,1.6l.64.21h0l-.64-.21a42.32,42.32,0,0,0-4.73.83c-2.21.54-4.33,1-5.83,1.94C154.67,91.12,153.55,91.87,154.19,92.6Zm-17.63-2.27v.12h0Zm-3.38-16.27Zm26.58-17.93a28.21,28.21,0,0,0-1.25-5c1.37-.19,2.48-.36,3.74-.61.85-.17,1.76-.36,2.87-.62,0,0,2.58-.45,3.11-1.39.31-.55.87-1.3,0-2.06h0s-.1-.14-.67-.27c-.24,0-.45-.1-.65-.16a2.55,2.55,0,0,1-.82-.39,1,1,0,0,1-.46-.73s0-.38.73-.81a6.25,6.25,0,0,1,1.2-.64c.27-.11.58-.23.94-.34a8.44,8.44,0,0,1,3.08-.25s.7.07.58.54A13.53,13.53,0,0,0,171.6,45a1.15,1.15,0,0,0,.17.75A1.06,1.06,0,0,0,172,46a1.35,1.35,0,0,0,.38.21,4.1,4.1,0,0,0,1.52.24h.4a13.31,13.31,0,0,0,3.08-.68c1.2-.38,2.4-.8,3.13-1.06l.73-.26h0a7.16,7.16,0,0,1,2,3.65s.23.79-.24.85-1.35.06-1.35.06-.36,0-.95.16a1.52,1.52,0,0,0-1,1.17,4.82,4.82,0,0,0,.66,3.47c1,1.86,2.25,1.77,2.25,1.77a3.41,3.41,0,0,0,2.06-.71,2.88,2.88,0,0,0,.94-1.54c0-.18.12-.35.26-.35a2,2,0,0,0,.43,0c.34-.05.59.19.87.75a20.42,20.42,0,0,1,1.41,2.88,10.68,10.68,0,0,1,.54,2.7,9.6,9.6,0,0,0,.11,1l.26.38h0l-.27-.4a71.67,71.67,0,0,1-6.65,3,10.69,10.69,0,0,1-2.23.66s-.15,0,0-.15a5.3,5.3,0,0,0,.43-.62,4.53,4.53,0,0,0,.54-2c0-.82-.94-1.62-2.26-1.48a16.07,16.07,0,0,0-4.1,1.09c-1.52.59-2.83,1.83-3,2.86s.93,1.62.93,1.62,1.26.63,1.42,1a.92.92,0,0,1,0,.66,1.4,1.4,0,0,1-.66.66c-.55.32-2,1.08-2,1.08a12.88,12.88,0,0,1-4.7,1.28s-2.58.22-4.07.3h-.05a12.46,12.46,0,0,0-.56-4.49,5.45,5.45,0,0,0-.45-1,5.39,5.39,0,0,0-2.33-2.1,4.09,4.09,0,0,0-2.68-.07,2,2,0,0,0-1.36,1.12c-.32.55-.71.51-.71.51s-1.16,0-1.57-1.71l0-.09c0-.27-.09-.5-.12-.73,0-.05,0-.11,0-.16a3,3,0,0,1,0-.41c0-.11,0-.23,0-.32a2.6,2.6,0,0,1,.49-1.79,1.64,1.64,0,0,1,1.15-.52,4.88,4.88,0,0,1,2.15.26,2.67,2.67,0,0,0,2-.31,1.78,1.78,0,0,0,1-1A2.77,2.77,0,0,0,159.76,56.13ZM174.05,31c.6-.16,1.75-.54,2-.63a16.42,16.42,0,0,1,2.39-.67,3.92,3.92,0,0,1,2,0,1.6,1.6,0,0,1,.32.41,2.48,2.48,0,0,0,1,1.12,2.76,2.76,0,0,0,1.81.27c1.44-.36,1.61-1.16,1.46-1.44a2.7,2.7,0,0,0-.76-.73,5.2,5.2,0,0,1-.92-.71s0-.05,0-.06a12.38,12.38,0,0,0,1.41-.26,3.34,3.34,0,0,0,.62-.22l.22.07c.45.36,3,2.43,3.91,3a.43.43,0,0,0,.56-.09l0,0c.1.09.22.18.26.23a1.29,1.29,0,0,1,.82.27,8.52,8.52,0,0,1,1.62,1.66l.13.39a.39.39,0,0,0,0,.43,24.1,24.1,0,0,0,1.77,2.21c.1.14.92,1.23,1.37,1.71a10.29,10.29,0,0,1-1,.34,12.73,12.73,0,0,0-1.84.67s-.76.25-.47.86c0,.06.06.1.09.15a.28.28,0,0,0,.07.13v0a2.57,2.57,0,0,0,.54.61l.11.12.12.13,0,.06c.06.09.13.18.18.27a1,1,0,0,1,.16.44c0,.45-.17.65-.64.91a2.7,2.7,0,0,1-.91.32,2.29,2.29,0,0,1-1.69-.33,2.62,2.62,0,0,1-.67-1.4,1.3,1.3,0,0,0-1-1.06,2.91,2.91,0,0,0-2.07.36s-.9.47-1.86,1.1a23,23,0,0,1-3.93,1.78l-.12.59h0l.06-.28.06-.3h0c-.08-.07-.22-.22-.4-.41-.43-.48-1.09-1.25-1.69-2s-1.12-1.36-1.31-1.63a4.61,4.61,0,0,1-.64-1.07.48.48,0,0,1,0-.21,1.83,1.83,0,0,1,.36-.77c.2-.24.44-.29.93-.18a2.33,2.33,0,0,0,1.6.07c.78-.25.81-.83.87-1.43a3.78,3.78,0,0,0-.79-1.92,4.76,4.76,0,0,0-.44-.56,2.48,2.48,0,0,0-2-.68c-.56,0-.88.45-1.21.63a1.82,1.82,0,0,1-1.21.24,2.34,2.34,0,0,1-.51-.27,2.5,2.5,0,0,1-.64-.8c-.31-.54-.58-1-.74-1.36ZM157.52,43.13a2.42,2.42,0,0,1,.69-.2l.64,0,.43,0h.15a2.24,2.24,0,0,0,1.17-.14h0l0,0,.25-.11a2.05,2.05,0,0,0,1.27-1.83A4.14,4.14,0,0,0,160.52,38a1.58,1.58,0,0,0-.56-.23,2.08,2.08,0,0,0-1.6.34c-.51.38-.72.86-1,1s-.74.5-1.21.4h0c-.47-.11-.49-1.16-.69-2.34-.08-.48-.15-.87-.21-1.19,0-.13,0-.25-.06-.35a20.35,20.35,0,0,0,2.64-.6,9.69,9.69,0,0,0,2.7-1.08.43.43,0,0,0,.15-.27,3.33,3.33,0,0,0,.53-.4s.53-.25,0-.74h0a4.93,4.93,0,0,0-.76-.65.27.27,0,0,1-.13-.15.3.3,0,0,1,0-.1,1.88,1.88,0,0,1,.2-.28,2.29,2.29,0,0,1,1.27-.67,7.11,7.11,0,0,1,1.66-.11,3.77,3.77,0,0,1,1,.15c0,.31-.08.73-.07.86a1,1,0,0,0,.33.7.66.66,0,0,0,.36.41,3.66,3.66,0,0,0,2.15.16,14,14,0,0,0,1.61-.4c2.3-.68,3.59-1.06,3.83-1.12l.07,0c.11.23.31.6.64,1.16A3.33,3.33,0,0,0,176,34.26a3.18,3.18,0,0,0,1.7-.66.81.81,0,0,1,.67-.32c.73-.05.91.56,1.51,1.42a1.5,1.5,0,0,1,.23,1.54,1,1,0,0,1-1.25.33c-.31-.06-.34-.1-.69-.16a1.36,1.36,0,0,0-1.48.66,1.63,1.63,0,0,0,.15,2.11s2.08,2.8,3.68,4.53l-2.76.93a22.73,22.73,0,0,1-3.52,1c-1.4.19-1.71,0-1.9-.21s0-.85,0-.85.57-1.16.29-1.77-2.07-.76-2.1-.76a6.91,6.91,0,0,0-3.76.79c-1.6.9-1.82,1.39-1.82,1.39a1.41,1.41,0,0,0,.1,1.57,2.45,2.45,0,0,0,1.59,1s.86.07,1.06.32a.53.53,0,0,1,.07.53s-.29.79-1.89,1.11a59.81,59.81,0,0,1-7.7,1.5,27.13,27.13,0,0,1-1.06-5.88C157.13,43.63,157.21,43.33,157.52,43.13Zm-16.58,11s.4,0,.34.2a2.2,2.2,0,0,1-.36.35,3.38,3.38,0,0,0-.55.56,2.18,2.18,0,0,0-.58,1.4.7.7,0,0,0,0,.2,2.46,2.46,0,0,0,2,1.83,7.51,7.51,0,0,0,3.44-.29,5.27,5.27,0,0,0,2.36-1.41,1.68,1.68,0,0,0,.5-1.57,2.66,2.66,0,0,0-.49-1.06,1.2,1.2,0,0,0-.55-.38s-.08,0-.09-.07a.08.08,0,0,1,0-.07,1.83,1.83,0,0,1,.42-.44,5.9,5.9,0,0,1,.74-.32,62.07,62.07,0,0,1,9.35-1.81h0s.43,1.74.76,2.85a22.61,22.61,0,0,1,.53,2.46,1,1,0,0,1-.27.89,3.75,3.75,0,0,1-1.21.48,2.32,2.32,0,0,1-.84-.17,3.07,3.07,0,0,0-.78-.16,4.61,4.61,0,0,0-1.93.15,2.76,2.76,0,0,0-1.82,2.6,5.64,5.64,0,0,0,.45,3.06,2.72,2.72,0,0,0,2.08,1.79,2,2,0,0,0,1.64-.89,3.5,3.5,0,0,1,.5-.64,3.6,3.6,0,0,1,2.24-.14,4.34,4.34,0,0,1,2.3,2.26,10.38,10.38,0,0,1,.61,4.54l.49.37h0l-.5-.38c-1.38.11-3,.3-3,.3a52.82,52.82,0,0,0-7,1.54,11.14,11.14,0,0,0-3.35,1.35.89.89,0,0,0-.1,1.23,4,4,0,0,0,.87.91c.58.46,1,.89,1,1.11a.59.59,0,0,1-.25.33s-.81.72-4.14,1.28c0,0-2.14.41-2.79-.23S142.7,77,142.7,77s0-.14.52-.44a1.34,1.34,0,0,0,.55-1.46A3.78,3.78,0,0,0,140.3,73a63.75,63.75,0,0,0-6.92.64h0c0-.21,0-.45,0-.7-.08-1.4-.18-3.56-.37-4.82s-.53-3.22-1.68-3.27c0,0-.57,0-1.38.75s-1.42-.6-1.46-1.41a5.42,5.42,0,0,1,.34-2.36.79.79,0,0,1,.24-.27,1.31,1.31,0,0,1,.76-.2,3,3,0,0,1,.89.4,1.14,1.14,0,0,0,1,.11.85.85,0,0,0,.29-.19,3.06,3.06,0,0,0,1-2.19,21,21,0,0,0,0-4.83h0l1.24-.2c.54-.09,1.15-.17,1.79-.23A28.52,28.52,0,0,1,140.94,54.1ZM126.8,40.44a1.23,1.23,0,0,1,.24-.14.41.41,0,0,0,.24-.19s.91-1.52,1.31-2.1l.33-.2.11,0a.48.48,0,0,0,.33-.1,14,14,0,0,0,1.49-1.8.39.39,0,0,0,.09-.33.43.43,0,0,0-.09-.21c0-.1.07-.25.1-.32l0,0a28.41,28.41,0,0,1,2.6-2.68.8.8,0,0,1,.37-.12l.11,0a11.93,11.93,0,0,0,2.88-1.92.53.53,0,0,0,.13-.23,1.91,1.91,0,0,1,.33-.56,3.15,3.15,0,0,1,1.21-.83,7.82,7.82,0,0,0-.62.6c-.26.28-.35.45-.32.53s.14.09.31,0l.33-.12h0c.33-.14.81-.37,1.49-.72l0,0a.41.41,0,0,0,.55.13s.3-.16.75-.34a10.13,10.13,0,0,1-1.21,2.07s-.32.47-.57.35a1.25,1.25,0,0,0-.76-.07,3,3,0,0,0-1.65,1.19c-.67.9-.75,1.58-.39,1.78s.89-.06,1.2-.34a2,2,0,0,1,.54-.38.52.52,0,0,0,.17.19.57.57,0,0,1,0,.14,9.71,9.71,0,0,1-1.38,3.3c-.31.54-.71,1.35-.9,1.73h0a25.52,25.52,0,0,0-4,1c-.52.19-.53.07-.53.07s0-.25.06-.41a2.46,2.46,0,0,1,.17-.27L132,39a6,6,0,0,0,.77-1.45c.22-.69-.75-.6-.75-.6A2.56,2.56,0,0,0,130.36,38a4.41,4.41,0,0,0-.76,1.53,2.82,2.82,0,0,1-.16.44.81.81,0,0,1-.38.27,10,10,0,0,1-1,.33,1.77,1.77,0,0,1-.79-.12.92.92,0,0,0-.5,0S126.78,40.46,126.8,40.44Zm-.62.5h0l-.14.21.14-.21Zm-2.89,5.59v0c0,.18-.07.28-.07.28a.53.53,0,0,0,0,.18s0,.08.09.08.11-.11.13-.06a.84.84,0,0,1,0,.36c-.08.39-.44,1.44-.59,1.87s-.3.72-.41.7a.17.17,0,0,1-.08-.06.51.51,0,0,1,0-.14.22.22,0,0,0,0-.11s0-.06-.11,0C122.48,48.6,122.86,47.56,123.29,46.53Zm-1.43,4h0a.74.74,0,0,1,.08-.16s0,0,0,.09c0,.28.17.3.17.3s.23-.14.36-.35h0v0a2.57,2.57,0,0,0,.15-.29.3.3,0,0,0,0-.1c0-.08.08-.18.12-.28l.06-.13a2.83,2.83,0,0,0,.11-.31l.06-.15c0-.1.06-.19.1-.29l.06-.19a.66.66,0,0,0,0-.15c0-.11.08-.23.11-.34s0-.16.07-.24l.06-.24.06-.22c0-.13.06-.25.08-.35a1,1,0,0,0,0-.17c0-.06,0-.13,0-.18s0-.05,0-.07h0c0-.17,0-.29,0-.32s0-.16-.13-.11-.1,0-.1,0a.25.25,0,0,1,0-.08v0a8.39,8.39,0,0,1,.29-.85c.13-.32.26-.64.4-.94a.2.2,0,0,1,0-.08c.06-.15.13-.29.2-.43v0A25.44,25.44,0,0,1,126,41.29l.21,0a2.58,2.58,0,0,1,.94.11,2.68,2.68,0,0,0,1.74-.42l0,0h0l.09-.06,0,0a.74.74,0,0,0,.12-.09l.05,0,.12-.11,0,0h0a2.54,2.54,0,0,0,.59-.78l.31-.85a1.78,1.78,0,0,1,.93-1.08,1.55,1.55,0,0,1,.7-.15c.27,0,.34.11.34.2a.15.15,0,0,1,0,.09,2.55,2.55,0,0,1-.49.78,3.18,3.18,0,0,0-.57,1,.88.88,0,0,0,0,.6.4.4,0,0,0,.2.21s.21.12.8-.08a32.2,32.2,0,0,1,3.75-.9h0a5.31,5.31,0,0,0-.39,2.21,1,1,0,0,0,1,.86,2.64,2.64,0,0,0,.45,0s0,0,0,0a1.26,1.26,0,0,0,.92-.2l.1,0a2.2,2.2,0,0,1,.37,1.22,2.58,2.58,0,0,1-.86,2.07,1.48,1.48,0,0,1-.83.26,2.2,2.2,0,0,1-.81-.14,2.07,2.07,0,0,0-1.34.07,4.71,4.71,0,0,0-1.6,1.83,8.77,8.77,0,0,0-.86,3.72,17.42,17.42,0,0,0,.24,2.43l.56.37h0l-.57-.37a18,18,0,0,1-4.13.5c-1.53,0-1.49-.81-1.29-1.34a1,1,0,0,1,.08-.21l0,0a.76.76,0,0,1,.07-.13l0-.07a6.58,6.58,0,0,0,.64-1.49s.19-1.47-1.2-1.38A1.8,1.8,0,0,0,124.81,51a8.47,8.47,0,0,0-.07,1.18,2.92,2.92,0,0,1-.63,2.16,1.42,1.42,0,0,1-1.29.42s-1.13-.49-1.35-.61a.73.73,0,0,0-.49-.07C121.22,52.89,121.52,51.71,121.86,50.55Zm-1.29,17.23-.22-.32a43.45,43.45,0,0,1-.26-4.71,44.15,44.15,0,0,1,.61-7.28l.2-.42,0-.13a1.68,1.68,0,0,1,.34.12,8.13,8.13,0,0,0,1.39.61,1.25,1.25,0,0,0,1-.25l.18-.15.15-.13.11-.13a2.09,2.09,0,0,0,.2-.22l0,0a3.25,3.25,0,0,0,.46-.72l0,.07a1.94,1.94,0,0,0,.13-.3,1.09,1.09,0,0,0,.06-.23.24.24,0,0,0,0-.09l0-.14v0c0-.25.07-.54.09-.81v0c0-.42,0-.77,0-.79h0s0-.36,0-.44v0a.72.72,0,0,1,.17-.63,1.27,1.27,0,0,1,1-.3.78.78,0,0,1,.75.32,1.19,1.19,0,0,1,.2.45.63.63,0,0,1-.06.28s-.31.53-.42.79a3.61,3.61,0,0,0-.42,1.84h0c.13.72,1.25,1.05,1.25,1.05a6.22,6.22,0,0,0,2.18,0l2.64-.43.46-.53h0l-.45.52c.06,1,.14,2.84.13,3.47s-.13,2.4-1,2.79c0,0-.27.14-.73-.2a1.9,1.9,0,0,0-1.16-.37,1.59,1.59,0,0,0-1.43,1.11,7.92,7.92,0,0,0-.24,3c.07.76.74,2.07,1.58,2.07a1.25,1.25,0,0,0,.89-.46c.48-.5.76-.54,1-.54s.63.23.9,2.41a39.78,39.78,0,0,1,.35,5.64l.5.32h0l-.5-.33-.94.09a10.68,10.68,0,0,1-3.63-.5,4.18,4.18,0,0,1-2.62-1.75.14.14,0,0,1,0-.06,2,2,0,0,1,0-.26v-.07a2.49,2.49,0,0,1,.06-.51,5.38,5.38,0,0,0,.11-2c0-.1,0-.2-.07-.3s0-.06,0-.09a.14.14,0,0,1,0-.07l0-.05a2.65,2.65,0,0,0-1.25-1.66,2.25,2.25,0,0,0-1.39-.44s-.79-.12-.76,1.22a8.07,8.07,0,0,0,.2,1.91s.15.47-.09.53-.63-.3-.63-.3l-.41-.39-.09-.09-.5-.53.07-.2A.41.41,0,0,0,120.57,67.78Zm1.54,8v0a4.65,4.65,0,0,1,.73,1.48c.28.83.47,1.53.47,1.53a3,3,0,0,1,.14.64C123,78.17,122.5,77,122.11,75.73Zm4.16,9.15-.07-.25a.46.46,0,0,0-.16-.23l-.1-.07a45,45,0,0,1-2.13-4.14,0,0,0,0,1,0,0s0-.06,0-.1V80s0-.11,0-.18a.09.09,0,0,1,0-.05h0a13.7,13.7,0,0,0-.66-2.18,18.74,18.74,0,0,0-.91-2.18h0l0-.09h0a1.13,1.13,0,0,0-.24-.35s-.07-.08-.11-.06a42.57,42.57,0,0,1-1.26-5.72l.22.25h0c.15.16.32.35.53.56h0c.92,1,1.21.36,1.21.36a.58.58,0,0,0,0-.13v0a.5.5,0,0,1,0-.12V70s0-.09,0-.15v0h0c0-.11,0-.24,0-.39h0v0a1.94,1.94,0,0,0,0-.24s0-.09,0-.14,0-.19,0-.29l0-.11v0a2.75,2.75,0,0,1-.09-1.44.37.37,0,0,1,.12-.17l0,0,.15,0h0a2.67,2.67,0,0,1,2.35,1.48,2.56,2.56,0,0,1,0,1.25,4.39,4.39,0,0,0,0,1.94,3.13,3.13,0,0,0,1.24,1.66,8.4,8.4,0,0,0,4,1.41,12.82,12.82,0,0,0,2.2,0l.62-.65v0l-.62.63-.12.53a5.28,5.28,0,0,0,0,2.17c.13,1,.68,3.15,1.48,3.7a3.28,3.28,0,0,0,2.46.67,2,2,0,0,0,1.21-.6.66.66,0,0,1,.58-.2,3.31,3.31,0,0,1,1.73,1.76c.61,1.2.74,2.53-.26,2.76a5.33,5.33,0,0,1-2.73-.71,1.77,1.77,0,0,0-1.79,0c-.8.61-.82,1.53-.42,2.67A16.87,16.87,0,0,0,136,90.2l.59.25h0l-.6-.25a19.07,19.07,0,0,1-3.44-.92c-.28-.14-.5-.2-.65-.29a.74.74,0,0,1-.19-.15.71.71,0,0,1-.06-.49A2.79,2.79,0,0,0,131,86.8,17.94,17.94,0,0,0,129.06,85c-.9-.68-1.29-.47-1.29-.47s-.4.22,0,1.09a3.38,3.38,0,0,0,.73,1.19s.17.19.07.24-.41-.19-.66-.41-.6-.54-1.08-1C126.62,85.41,126.43,85.15,126.27,84.88Zm21.8,18c1.12.15,2.55.31,3,.36h0a.68.68,0,0,1-.08.26c-.08.19.1.33.27.42C150.2,103.57,149.13,103.22,148.07,102.83Zm3.55.13h.13a4.17,4.17,0,0,0-.38-.27.05.05,0,0,1,0,0l0,0-.14-.08c-.59-.31-3.15-2-3.94-2.54a10.86,10.86,0,0,0-2-1.13l-.13,0a1.12,1.12,0,0,0-.68-.07c-.47.14-.4.33-.68.47a1,1,0,0,1-.81-.1h0l-.44-.22-.15-.08-.24-.13a8.22,8.22,0,0,1-1.54-1.11l-.19-.17c-.13-.12-.28-.25-.43-.4-1.06-1,1.34-.1,1.34-.1s.53.22.29-.33a1.24,1.24,0,0,0-.12-.22,1.19,1.19,0,0,0-.09-.15l-.09-.13-.15-.21-.09-.12-.19-.24-.1-.13-.2-.25-.15-.17c-.06-.07-.12-.15-.19-.22l-.23-.27-.12-.14c-.1-.1-.19-.21-.29-.32v0c-.17-.19-.35-.38-.53-.56-.34-.35-.61-.66-.87-1l0,0A19.27,19.27,0,0,1,137,91l-.47-.55s0,0,0,0l0,0-.16.45a11.21,11.21,0,0,0,1.42,1.78s2.08,2.31,3.25,3.77c0,0,.06.13-.14,0a3.46,3.46,0,0,0-1.54-.48c-.46,0-.38.33-.38.33s.2,1.06,3.39,2.85a5.26,5.26,0,0,0,1.88.64s.23,0,.52-.29.38-.29.58-.22a6.27,6.27,0,0,1,1.47.93c1,.73,3,1.84,3.66,2.31a2.35,2.35,0,0,1,.46.36c-1.43-.12-3-.31-3.83-.42L146,102l-.58-.35a18.45,18.45,0,0,0-1.75-.76l-.33-.13a40.65,40.65,0,0,1-4.54-2.68.86.86,0,0,0,.72,0c-.05-.48-.6-.86-.91-1.1-.11-.09-.19-.24-.3-.33a15.62,15.62,0,0,0-1.3-1,9.91,9.91,0,0,1-1.18-.7c0-.07.11-.25,0-.43a5.32,5.32,0,0,0-2-2c-.31-.2-.82-.28-1.1-.47-.21,0-.32,0-.37.13s.18.44.27.57a4.23,4.23,0,0,0,.8.93,6.2,6.2,0,0,1,.7.54h.1c-.13-.36-.51-.56-.8-.77s-.38-.53-.6-.77a.38.38,0,0,1,.07-.17c.92,0,1.52.86,1.93,1.41.19.24.49.39.51.8a.54.54,0,0,1-.24,0h-.1c.16.44.7.4,1.07.64a16,16,0,0,1,2,1.76c.22.2.61.4.67.74a2.06,2.06,0,0,1-1.07-.46l-.11-.08c-.43-.32-.85-.65-1.27-1a2.48,2.48,0,0,1-.32-.35c-.07-.09-.09-.22-.17-.3s-.22-.12-.3-.23h-.14a1,1,0,0,0,0,.17,43.07,43.07,0,0,1-7.86-8.66.69.69,0,0,0,.13.11c1,.77,1.23.73,1.3.67a.08.08,0,0,0,0,0,1,1,0,0,0-.25-.71c-.08-.11-.18-.24-.27-.39l-.12-.19a2.63,2.63,0,0,1-.27-.57v0l0-.14a.36.36,0,0,1,0-.11v0c.12-.28.26-.26.26-.26s.11,0,.51.25a11.54,11.54,0,0,1,1.7,1.44,1.63,1.63,0,0,1,.4,1V88a1.29,1.29,0,0,0,.38.91c.47.51,1.47,1.45,5,2h.06l.16-.46h0L137,91h0a44.05,44.05,0,0,0,4.69.48s4,.14,5.06.14c.91,0,.9.4.88.52a0,0,0,0,1,0,0,2.39,2.39,0,0,1-.19.55,2.84,2.84,0,0,0-.26,1,1.13,1.13,0,0,0,.14.67s.49,1.21,3.7,1.29a12.31,12.31,0,0,0,4.77-.58c.62-.25.86-.53.91-.8.12-.6-.72-1.13-.72-1.13s-.67-.4-1-.62a.37.37,0,0,1-.17-.3A.84.84,0,0,1,155,92a1.13,1.13,0,0,1,.48-.42A22.61,22.61,0,0,1,160,90.13a30.58,30.58,0,0,1,5.56-1h0a5.32,5.32,0,0,0,1.1,1.81,6.38,6.38,0,0,0,2.43,1.45c1,.39.56,1.08.56,1.08-.58,1.27-2.32,1.32-2.83,1.38a26.08,26.08,0,0,0-2.59.38,4.35,4.35,0,0,0-2.49,1c-.56.64-.34,1.31,0,2s1.2,1.08,2.41,1a6.87,6.87,0,0,0,2.71-.72,23.22,23.22,0,0,1,2.38-.79c.37-.11.89-.33,1.26.22a8.55,8.55,0,0,1,1,2.07l.47-.1h0l-.22,0-.21,0a24.18,24.18,0,0,0-2.73.91,33.94,33.94,0,0,1-5.05,1.2,17.33,17.33,0,0,0-1.79.31l.15,0s.81-.16,1.62-.27a8.43,8.43,0,0,0-2.35.53.29.29,0,0,0,0,.27.46.46,0,0,0,.19.17,3.44,3.44,0,0,0,1.41.24,1.84,1.84,0,0,1,.4,0h0a0,0,0,0,1,0,0h0s0,0-.06,0l-.14.05a11.92,11.92,0,0,1-2.35.47,3.23,3.23,0,0,1-1.54,0h0c-.07,0-.06-.07-.06-.07v0a.48.48,0,0,1,.06-.14.17.17,0,0,0,0-.1.43.43,0,0,0-.28-.35s-.06,0-.23-.09h0a4.58,4.58,0,0,0-1.34-.14c-1.19,0-3.56,0-5.78-.12A.39.39,0,0,0,151.62,103Zm5.24,2.05c-.73-.1-1.46-.21-2.19-.35a4,4,0,0,1,1.11,0,6.66,6.66,0,0,1,1.14.29S156.91,105,156.86,105Zm8.68.31c.58-.08,1.27-.12,1.66-.16a2.58,2.58,0,0,1,.35,0Q166.55,105.26,165.54,105.32Zm3-.31a1.16,1.16,0,0,0-.44-.06c-.24,0-.49,0-.74,0a9,9,0,0,0-1.23.07l-.84.14-.24,0a3.91,3.91,0,0,0-.9.2c-.48,0-.95,0-1.43,0a44.46,44.46,0,0,1-5-.3c0-.05-.07-.12-.15-.16l-.07,0a1.29,1.29,0,0,0-.23-.09h0l0,0h0l-.33-.09h0l-.33-.07h0c-.26-.05-.56-.11-.93-.15h0l-.62-.06a8.55,8.55,0,0,0-1.27,0h-.09c-.44-.09-.87-.19-1.31-.3-.24-.09-.59-.28-.45-.47a.4.4,0,0,0,.05-.42l2.16.12s2.52.1,3.89,0c.62-.06.43.27.43.27a.29.29,0,0,0,.18.44,5.42,5.42,0,0,0,2.82.14c2.18-.25,2.66-.73,2.66-.73s.25-.24-.3-.34l-.09,0h-.94l-.32,0h-.13c-.21-.06-.24-.13,0-.2a9.16,9.16,0,0,1,1-.15s1.9-.26,3.44-.66a33.41,33.41,0,0,0,3.26-1c.64-.22,1.18-.38,1.6-.5L172,100h0l-.37.53a1.16,1.16,0,0,1-.21,1c-.13.22-.5.5-.32,1s1.43.34,2.15.12,1.32-.41,1.8-.58.61.07.61.07.2.15-.49.51a3.25,3.25,0,0,1-.53.21l-.08,0a3.37,3.37,0,0,1-.48.12l-.13,0-.4.08-.17,0-.31,0-.17,0-.31,0-.19,0h-.47a5.68,5.68,0,0,0-.68.21c-.92.32-.06.6-.06.6a8.39,8.39,0,0,0,1.28.22A38.35,38.35,0,0,1,168.58,105ZM186,98.41l-.06,0a42.57,42.57,0,0,1-12.57,5.59c-.41,0-.69-.09-.84-.11-.36,0-.66-.12-.74-.3a.18.18,0,0,1,0-.06c0-.12.41-.11.41-.11h0l.2,0a16.07,16.07,0,0,0,2.07-.41l.47-.15c1.32-.42,1.63-.82,1.58-1.13a.24.24,0,0,0-.06-.11l0,0-.1,0-.06,0-.18,0h0l-.25,0h0a4.42,4.42,0,0,0-.77.18c-.79.26-2,.63-2.25.69a.64.64,0,0,1-.2,0h0a.84.84,0,0,1-.28,0h0a.29.29,0,0,1-.18-.12h0a.6.6,0,0,1,.12-.77,1.13,1.13,0,0,0,.34-.58,2.12,2.12,0,0,0,0-.44s0-.07,0-.11a.62.62,0,0,0,0-.13l.09,0s2-.45,2.76-.59a17.87,17.87,0,0,0,3.46-.92c.78-.38,1.18-.68,1.27-.91s-.33-.36-.33-.36-.5-.12-.43-.29.25-.32,1-.67a17.36,17.36,0,0,1,2.73-1c1-.23.62.17.62.17a4.55,4.55,0,0,0-.66.83c-.07.23,0,.24.1.28a2.32,2.32,0,0,0,.86-.06,30.29,30.29,0,0,0,4.52-2l.11-.07.34-.55h0l-.05.08a12.73,12.73,0,0,0-.67,1.21,2.9,2.9,0,0,0-.27.73c0,.26-.21.23-.21.23a2.48,2.48,0,0,0-1,.23h-.05l-.06,0a3.43,3.43,0,0,0-.61.37l-.12.08-.07,0a13.31,13.31,0,0,0-1.3,1.21l0,0a2.07,2.07,0,0,0-.19.23s-.36.47,0,.47a3.41,3.41,0,0,0,1.47-.69C186.18,98.18,186,98.41,186,98.41Zm7.47-6.32c-.54.6-.82.85-.82.85l-.19.22h0a1.23,1.23,0,0,0-.17.25,43.79,43.79,0,0,1-5.76,4.66c0-.07.06-.13,0-.15h0c-.1-.09-.52.22-.52.22l-.16.12h0a2.33,2.33,0,0,1-.45.28l-.13.06-.09,0-.17,0c-.33,0,.41-.73.41-.73a4.18,4.18,0,0,1,1-.78,1.64,1.64,0,0,1,.54-.21,2.11,2.11,0,0,0,1.22-.59,1.31,1.31,0,0,0,.3-.32c.18-.27.37-.7.85-1.59,0,0,.06-.09.09-.15h0c.93-.52,1.27-.68,1.49-.81,1-.59,2.19-1.32,2.5-1.57C193.39,91.92,194,91.49,193.49,92.09Zm6-7.79c.26-.55.47-1.15.72-1.73a4.28,4.28,0,0,0,.61-2,1.13,1.13,0,0,1-.1-.13h-.21a7.94,7.94,0,0,1-.7.4c-.34.24-.64.56-1,.8a2.13,2.13,0,0,0-.46.37c-.17.25-.14.68-.34.9v.14c.27-.1.39-.41.6-.57s.48-.46.74-.64a5.09,5.09,0,0,0,.5-.3.38.38,0,0,1,.17.07,5.2,5.2,0,0,1-.74,2.07c-.08.18-.1.47-.23.6s-.2.08-.27.13l-.67.74c-.21.29-.31.68-.53,1a.36.36,0,0,0,0,.24l.13.06a12.65,12.65,0,0,0,1-1,43.73,43.73,0,0,1-4.95,6.38l.11-.15.05-.06c.25-.35.08-.34.08-.34a.76.76,0,0,0-.22.06l-.08,0,0,0h0l-.5.28-1.16.73-2.38,1.37s0,0,0,0h0a21.07,21.07,0,0,1,2-2.61,22.09,22.09,0,0,0,1.6-2.13,4.78,4.78,0,0,0,.56-1.36.24.24,0,0,0,0-.15s0,0-.06,0a.08.08,0,0,0-.06,0c-.2,0-.64.19-1.31.68a10,10,0,0,1-1.5,1l-.05,0,.05,0a2.4,2.4,0,0,1-.67.2.64.64,0,0,1-.79-.61,2.11,2.11,0,0,1,0-.57,2.35,2.35,0,0,1,.9-1.67,5.88,5.88,0,0,1,2.14-.43,2.56,2.56,0,0,0,.91-.27A5.94,5.94,0,0,0,195.19,84a10.15,10.15,0,0,0,1.34-4.6v-.05c0-.18,0-.34,0-.49a1,1,0,0,0,0-.17,3.11,3.11,0,0,0,0-.32l0-.14a3.1,3.1,0,0,0-.1-.36h0a36.93,36.93,0,0,0,3.27-3,12.66,12.66,0,0,0,1.6-2,.91.91,0,0,1,.1-.16.05.05,0,0,1,0,0l.06,0h0s0,0,0,0h0v.09h0a4.36,4.36,0,0,0-.28,1.83h0s0,0,0,0a1.34,1.34,0,0,0,0,.35l0,.1a.86.86,0,0,0,.15.32h0s0,0,.05,0c.37.26,1.27-.7,1.27-.7a4.32,4.32,0,0,0,.82-1.74,5.73,5.73,0,0,0,.19-1.72.38.38,0,0,0,0-.18.91.91,0,0,1-.08-.72.46.46,0,0,0,.05-.14,14.93,14.93,0,0,1,1.57-3.17A42,42,0,0,1,199.53,84.3Zm-.78.68a1.14,1.14,0,0,1-.54.77v0h0c.06-.4.36-.52.5-.81Zm2.54-11.58c0,.14-.06.24-.06.24a.1.1,0,0,0,0,0v0S201.25,73.54,201.29,73.4Zm4.06-8-.2.35a.4.4,0,0,0,0,.37l.09.23v0h0l0,.06c-.16.24-.35.55-.58.94a8.8,8.8,0,0,0-1.24,3.18,3.24,3.24,0,0,0,0,.88.85.85,0,0,0,0,.17h0s0,.09,0,.13h0l.05.12v0l0,.06a2.52,2.52,0,0,1-.06.45l0,.14,0,.13c0,.09-.06.19-.09.29l0,.1a3.52,3.52,0,0,1-.16.35l0,0a2.31,2.31,0,0,1-.69.88s-.63.46-.72.13a1.94,1.94,0,0,1,0-.82,12.35,12.35,0,0,0,.21-1.75c0-.42-.4-.08-.4-.08l-.26.31c-.16.21-1.08,1.38-1.44,1.79a23.81,23.81,0,0,1-3.62,3.32s0,0,0,0l0,0a3.76,3.76,0,0,0-.22-.33l-.22-.28c-.24-.31-.68-.17-1.21-1.46a7.83,7.83,0,0,1-.65-3.14c0-.11,0-.21,0-.3a1.69,1.69,0,0,1,.58-1.36c.35-.33,1.88-.18,1.88-.18s.75.15,1.43-1a5.49,5.49,0,0,0,.52-3,4.68,4.68,0,0,0-.12-.86c-.21-.91-.53-1.7-1.77-1.83s-1.81,1.4-1.81,1.4a4.68,4.68,0,0,1-.52.92c-.26.34-1,.24-1,.24a1,1,0,0,1-1.07-.68c-.37-.77-1.22-2.78-1.22-2.78a11,11,0,0,1-.58-1.74l-.61-.25h0l.62.25a23.51,23.51,0,0,0,3.39-2.23c1.58-1.33,3.12-2.72,3.52-3.07s.75-.64,1.1-.62.62.27.84,1.21.26,1.72.35,2.18.25,1,.79,1.11a2.28,2.28,0,0,0,1.56-.61,1.73,1.73,0,0,0,.24-.27v0l.12-.17a3,3,0,0,0,.38-1.55,5.71,5.71,0,0,0-.65-2.64s-.29-.52-.4-.66a.36.36,0,0,1,0-.44c0-.06.07-.14.12-.22a2.25,2.25,0,0,1,.78-.75,3.82,3.82,0,0,1,.95-.34,2.7,2.7,0,0,0,.53-.22h0v0c.44,1.38,1,3.69,1,3.69a9.73,9.73,0,0,1,.17,1c0,.32-.05.32-.19.16a.2.2,0,0,0-.28-.06s-.15.06-.15.65.07,2,.18,3.06a3.83,3.83,0,0,0,.53,1.8s.35.52.44-.49c0,0,0,0,0-.09,0,.47,0,.93,0,1.4C205.44,63.63,205.41,64.53,205.35,65.44Z"/><path class="cls-12" d="M139.48,93.92l.13.15h0Z"/><polygon class="cls-12" points="165.88 88.57 165.88 88.57 165.88 88.56 165.88 88.57"/><path class="cls-12" d="M184.44,86.92c-1-.24-1.8.24-2.81.17a1,1,0,0,1-.24-.3c-.7,0-1.48,1.59-.77,2.07a3.46,3.46,0,0,0,1.94,0,1.23,1.23,0,0,1,.87,0c.28.2.23,1,.13,1.43l-.33,2.48-.3,1.51a1.48,1.48,0,0,0,1.14-.91,6.32,6.32,0,0,0,.1-.67c.17-.7.2-1.54.36-2.27.11-.48,0-.93.14-1.37a6.35,6.35,0,0,0,0-1.74A2.13,2.13,0,0,0,184.44,86.92Z"/><path class="cls-12" d="M137,30.74v-.07h-.13c-.16.12-.57.19-.77.3,0,.12,0,.09.1.13-.11.33-.5.57-.7.84s-.66.82-1,1.24a2.88,2.88,0,0,1-.3.47c-.2.17-.77.15-1,.33h-.07a5.42,5.42,0,0,1,1-1.37v0a1.87,1.87,0,0,0-.84.39c0,.08,0,.07.11.11-.13.2-.31.35-.44.53s-.26.51-.43.74l0,.1a5.81,5.81,0,0,0,1.24-.4h.09a8,8,0,0,1-.9,1.33,2.31,2.31,0,0,1-.4.64s0,0,0,0a1.85,1.85,0,0,0,.8-.2c.07,0,.06,0,.1,0a4.09,4.09,0,0,1-.5.93v0a1.26,1.26,0,0,0,.53-.14c.33-.25.4-.79.64-1.13a.85.85,0,0,0,0-.17,1.32,1.32,0,0,0-.73.13h0a6.34,6.34,0,0,1,1-1.47c.39-.55.75-1.07,1.14-1.61.21-.27.49-.52.7-.8A4,4,0,0,1,137,30.74Z"/><path class="cls-12" d="M146.31,86.72c-.05.12-.05.3-.1.44-.29.71-.39.86.06,1.53a.45.45,0,0,0,.34-.1C146.74,88,146.76,87,146.31,86.72Z"/><path class="cls-12" d="M147.71,86.12c-.14-.23-.41-.29-.6-.47-.06,0,0,0-.07,0,.43-.22.89-.47,1.34-.67.12.13.68.67.87.57l.1,0,0-.57a3.46,3.46,0,0,0-1.74-.9v0h0a1.29,1.29,0,0,0,.54.57v.1a5.69,5.69,0,0,0-1.1.37,3.2,3.2,0,0,0-.74.2h-.1c.15-.41.62-.74.87-1.07a5.2,5.2,0,0,1,1.64-1.84c0-.31-.91-.95-1.24-.74-.08,0,0,0-.06.06s.11.28.06.47a7.28,7.28,0,0,1-.87,1.61v0c-.34-.11-.61-.44-.93-.6a2.14,2.14,0,0,1,.46-.77,4.78,4.78,0,0,1,1.27-1.51c0-.44-.72-.9-1.2-.9,0,.21.1.32.07.5a9.51,9.51,0,0,1-.57,1.58,3.2,3.2,0,0,1-.4.9,1.2,1.2,0,0,1-.51-.07,1.55,1.55,0,0,0-.33,0V83a5.78,5.78,0,0,0,1.94,1.07c-.11.56-.66.93-.94,1.34a.63.63,0,0,1-.33-.06l-.13,0a1.1,1.1,0,0,0,.83,1,2.6,2.6,0,0,1,1-.63,3.18,3.18,0,0,1,.63,1.6c.07.28,0,.59,0,.84.13.43.36.56.57.86h.23a4.55,4.55,0,0,0-.4-2.17C147.83,86.66,147.77,86.39,147.71,86.12Z"/><path class="cls-12" d="M156.14,100.87a6.12,6.12,0,0,1,.7.47,4.3,4.3,0,0,0,2.68.4c.47-.11,1-.11,1.1-.54.15-.23-.06-.56-.13-.7a3.68,3.68,0,0,0-1.24-1.27A12.31,12.31,0,0,0,152.13,97c-.14.09-.43,0-.6.07a1.54,1.54,0,0,0-.57.3c0,.82,1.22,1.26,1.9,1.43a1.73,1.73,0,0,0,1-.16c.18-.7-.66-.8-1-1.14h-.07v0a9.06,9.06,0,0,1,6,1.71,3.06,3.06,0,0,1,1,1.11.71.71,0,0,1,0,.57c-.14.37-.58.34-1,.43a3.61,3.61,0,0,1-2.77-.77c-.1.16,0,.41-.11.57-.14.41-.66.3-1.13.4a4,4,0,0,1-2.44-.53c-.13-.09-.22-.24-.34-.34a.57.57,0,0,0,0-.16,1.59,1.59,0,0,0,.2-.24,2.22,2.22,0,0,1,2,.51c0,.06,0,.06,0,.09s-.21.15-.4.14V101a1.15,1.15,0,0,0,.7-.17c0-.06,0-.13,0-.2a3,3,0,0,0-.34-.37,2.45,2.45,0,0,0-2.31-.13.89.89,0,0,0,.47.93,4.63,4.63,0,0,0,1.78.87c.24.07.46,0,.73.07a2.48,2.48,0,0,0,.9,0c.43-.11,1-.56.54-1.07v0Zm-3.08-3.18c.12.08.19.25.3.34a.29.29,0,0,1,0,.17c-.22.58-1.44.15-1.74-.07-.09-.07-.13-.21-.2-.3s0-.07,0-.1c.1-.26.36-.17.57-.3A1.91,1.91,0,0,1,153.06,97.69Z"/><path class="cls-12" d="M164.84,104.31l0-.09-2.47-.1c-.11.06-.27,0-.41.06a3.26,3.26,0,0,0-.5.2c0,.06,0,0,0,.07a2.65,2.65,0,0,0,1.6,0h.07v-.07c-.36-.11-1,.17-1.27,0h0v0c.89-.06,1.89,0,2.81,0-.08.06-.27,0-.36.1l-.1,0v.07l.6.09s0,0,0,0a1.78,1.78,0,0,1-1.34,0v-.06a3.51,3.51,0,0,0-1,.09c-.11,0-.22,0-.3,0a.42.42,0,0,0-.23.06.34.34,0,0,0,.07.17c.21,0,.58.06.83.13v0h0v0c-.12,0-.47,0-.6-.1h-.07a3,3,0,0,1,1.41-.1l.07,0-.54.1a.24.24,0,0,0,0,.07.46.46,0,0,0,.27,0,.26.26,0,0,1-.1.13.25.25,0,0,0,0,.07,6.27,6.27,0,0,0,1.27-.13c.23,0,.52,0,.7-.07h.27v-.07a6.06,6.06,0,0,0-1.87.14h-.1s0,0,0,0,.39-.07.63-.13,1-.24,1.31,0c.09.06,0,0,0,.1a.38.38,0,0,0,.2,0h.23v-.07a4.1,4.1,0,0,1-1-.36C165,104.46,165.09,104.34,164.84,104.31Z"/><path class="cls-12" d="M201.16,78.26c-.13.11-.3.14-.44.24a6,6,0,0,0-1.17,1.23c-.24.34-.45.72-.67,1.08-.09.16-.11.34-.23.46v.07a1.82,1.82,0,0,0,.67-.37c.55-.34,1.05-.66,1.57-1,.25-.19.43-.47.7-.64,0-.4.11-.72-.07-1A1.86,1.86,0,0,0,201.16,78.26Zm-.41,1.21c-.2.14-.39.35-.6.5a4.72,4.72,0,0,0-.53.33h0a3.4,3.4,0,0,1,1-1.13c.15-.11.33-.13.47-.24h.13l.07.07C201.19,79.25,200.92,79.34,200.75,79.47Z"/><path class="cls-12" d="M184.1,98h-.34a5.52,5.52,0,0,1-.83.33,5.13,5.13,0,0,0-.7.44c-.18.12-.28.35-.44.5,0,.16,0,.19.14.23s0,0,.06,0,.07,0,.1-.1,0-.09,0-.19a2.75,2.75,0,0,1,1-.71c.13,0,.38-.19.54-.1h.07a4.27,4.27,0,0,1-1,1.51v.1c.62-.16,1-1.39,1.44-1.84,0-.08,0-.1,0-.13Z"/><path class="cls-12" d="M200.49,64.05a1.48,1.48,0,0,0,.37.6c.07,0,.11,0,.16.1,1.11.1,1.56-1.81,1.11-2.91-.08-.19-.44-.75-.77-.53h-.07c0-.06,0,0,0-.07a.49.49,0,0,0-.07-.3l-.2,0-.07,0c0,.2.1.21.11.43A2.61,2.61,0,0,0,200.49,64.05Zm.36-1.77a2.15,2.15,0,0,1,.34-.44.2.2,0,0,0,.1,0,.77.77,0,0,1,.47.13,2.29,2.29,0,0,1-.14,2.11c-.06.07-.19.1-.26.17C200.66,64.16,200.6,62.89,200.85,62.28Z"/><path class="cls-12" d="M203.23,63.85v-.54c-.08-.38,0-.89-.13-1.27a12.63,12.63,0,0,0-.3-2.24,2.34,2.34,0,0,0-.57-.07c-.09.09-.15.14-.13.24.07.3.46.37.57.67l0,.43c.11.48.09,1.09.2,1.58v.4a3.27,3.27,0,0,1,.06,1.07,2.76,2.76,0,0,1-.73.9,4.3,4.3,0,0,1-2.51,1.57c0,.06,0,0,0,.07,0,.42.41.33.68.5l.2,0a1.19,1.19,0,0,0,.23-.31c.17-.22.48-.33.64-.56h0c0,1,0,2.16,0,3.14h.1a15.46,15.46,0,0,0,.2-3.41c.44-.42.72-1,1.17-1.41v-.06h0c0,1,0,2.13,0,3.21a6.19,6.19,0,0,0,0,1.3v.2h.07c.09-.36.11-.86.2-1.27v-.57a5.26,5.26,0,0,0,0-1.77C203.18,65.06,203.34,64.37,203.23,63.85Z"/><path class="cls-12" d="M181.42,100.5c-.19.18-.68.2-.9.37h0c.09-.13.24-.18.33-.3s.1-.19.17-.27,0-.06,0-.09v-.07a5,5,0,0,0-3.11,1.1c-.13.12-.21.29-.34.41s0,.14,0,.2c.6,0,1.71-.33,1.84-.8,0,0,0,0,0,0V101a1.81,1.81,0,0,0-1.2.29h0a3.32,3.32,0,0,1,1.47-.76c.14,0,.46-.13.6,0l.1,0a1.49,1.49,0,0,1-.87.8v.06a10.2,10.2,0,0,0,1.44-.53,5.83,5.83,0,0,0,.94-.34,4.17,4.17,0,0,0,.9-1.27C182,99.32,181.89,100.08,181.42,100.5Zm-2.64.67v.1c-.06,0-.11.13-.16.17s-.41.09-.58.2a.35.35,0,0,1-.13,0h0C178,101.32,178.52,101.19,178.78,101.17Z"/><path class="cls-12" d="M185.34,75.45c-.38-.23-.43-1.42-.57-1.94-.28-1-.41-2.1-.7-3.14a5.64,5.64,0,0,1-.37-2.18,4,4,0,0,1,.33-.37c.19-.13.5-.19.64-.37s0-.1,0-.2a4.45,4.45,0,0,0-1.07.44c-.67.28-1.33.45-2,.73a2.43,2.43,0,0,1-.7.27v.2l.06,0s.88-.33,1.14-.1.26.5.44.74a7.57,7.57,0,0,1-.78,1.77c-.49,1.12-1,2.19-1.53,3.25a8.36,8.36,0,0,1-.74,1.43v0c-.18-.25-.16-.89-.26-1.24-.3-1-.49-2.19-.81-3.21a3.24,3.24,0,0,1-.13-1.27c.05-.46.7-.66,1.07-.8l0-.24a9.19,9.19,0,0,0-1.74.61c-.5.19-1,.26-1.47.43a3.67,3.67,0,0,1-.83.27v0h0c0,.1,0,.15.07.2s.87-.29,1.17-.06c.47.16.48.91.63,1.4.41,1.34.62,2.82,1,4.18.09.35.33,1.43.1,1.71s-.75.52-1.11.67a1.38,1.38,0,0,1,0,.2,8.2,8.2,0,0,0,1.45-.47c.9-.3,1.74-.55,2.61-.87,0-.08,0-.16,0-.23a4.11,4.11,0,0,1-1.17.2l-.2-.17c0-.18-.11-.36-.16-.54a6.15,6.15,0,0,1,.76-1.57c.57-1.09,1.07-2.2,1.57-3.34a7.14,7.14,0,0,0,.71-1.57c.15.09.11.37.16.57.12.4.18.83.3,1.27.24.84.33,1.75.57,2.64a2.18,2.18,0,0,1,.07,1.24c-.15.34-.71.57-1.07.7a.43.43,0,0,0,.07.2s.76-.24.9-.3c.93-.4,1.89-.81,2.84-1.17,0-.08,0-.16,0-.23C186.21,75.34,185.67,75.65,185.34,75.45Z"/><path class="cls-12" d="M169.88,38.09c.16.08.16.28.24.44a6.12,6.12,0,0,1,.47,1v.26c.08.22.33.24.5.37a.66.66,0,0,0,.27-.1,5.62,5.62,0,0,0-.67-1.67,2.48,2.48,0,0,1-.2-.53c0-.1,0-.15,0-.24s-.06-.07-.13-.13,0,0,0-.07.18-.24.23-.37.11-.49.33-.63c0-.35-.54-.39-.93-.37a.59.59,0,0,1-.2.06.19.19,0,0,0,.16.14,3.75,3.75,0,0,1-1,2.47c-.17.24-.47.39-.63.64h0v0A4.24,4.24,0,0,0,169.88,38.09Z"/><path class="cls-12" d="M163.23,38.57l.5.16a1.35,1.35,0,0,0,.37,0c0-.55-.31-.77-.5-1.14-.1-.18-.15-.44-.3-.57.06-.2.61-.26.83-.33l1.71-.54a3,3,0,0,0,.77-.2c.13,0,.19,0,.24.1A4.77,4.77,0,0,1,167,37.8a6.43,6.43,0,0,1-1.64,3.34v0c.33-.05.48-.36.7-.53a5.13,5.13,0,0,0,1.81-2.91c.19-.73-.12-1.45.17-2.07h0a2.41,2.41,0,0,0-1.17-.47,1.82,1.82,0,0,1-.53.43c-.31.13-.71.09-1,.27a.48.48,0,0,1-.27-.67.31.31,0,0,0,0-.13,2,2,0,0,0-1.08-.14c-.11.11-.21.13-.26.31h0c0,.06,0,0,0,.06s.13,0,.2,0c.38,0,.37.47.57.7,0,.06,0,0,0,.07a9,9,0,0,1-1.3.43c-.16,0-.35-.06-.47-.07a1.25,1.25,0,0,0-.7.24c.09.13.37.1.47.23C162.75,37.43,162.91,38,163.23,38.57Z"/><path class="cls-12" d="M166.31,52.68c.67.2,1.15,1,1.53,1.47.17.22.44.41.6.63.72,1,1.53,1.82,2.24,2.78.28.37.66.7.91,1.1a.43.43,0,0,0,.26-.06c.18-.79.28-1.58.51-2.38a7.27,7.27,0,0,0,.26-1.2c.28.1.5.51.67.73.53.7,1.26,1.27,1.74,2a.38.38,0,0,0,.24-.07c.15-1.13.29-2.27.44-3.4V54c.15-.68.11-1.49.26-2.17.2-.92-.08-1.82.84-2,0-.09.05-.13,0-.21a.16.16,0,0,0,0-.06s0,0-.1,0a5.58,5.58,0,0,1-1.31.4c-.26.06-.54,0-.73.13l-.1,0,0,.2c.38.13.73,0,.9.3a3.2,3.2,0,0,1,0,1.28c-.22,1-.13,2.1-.34,3.07-.07.34,0,1-.13,1.24v.07a1.64,1.64,0,0,1-.47-.54c-.3-.39-.74-.71-1-1.1a4.1,4.1,0,0,0-.6-.71,9.69,9.69,0,0,1,.37-1.9,3.57,3.57,0,0,1,.33-1.17,1.62,1.62,0,0,1,.64-.4.25.25,0,0,0,0-.17.38.38,0,0,0,0-.1,12.54,12.54,0,0,0-1.27.4,6.08,6.08,0,0,0-1.07.23.37.37,0,0,0,0,.14,1,1,0,0,1,0,.1c1.17-.07,1,.57.77,1.47-.07.27,0,.65-.17.87v.06h0a8.94,8.94,0,0,0-.91-1l-.36-.34c-.09-.11-.14-.26-.24-.37,0-.36.32-.46.6-.56a.4.4,0,0,0-.1-.27,25.92,25.92,0,0,1-2.6.67v0h0a.35.35,0,0,0,0,.17v.06a4.35,4.35,0,0,1,.7,0,2.47,2.47,0,0,1,.9.83c.33.44.84.81,1.17,1.24a3.13,3.13,0,0,0,.6.7,8.79,8.79,0,0,1-.33,1.74c-.08.28,0,.62-.17.84a.24.24,0,0,1,0,.07,13.78,13.78,0,0,0-1.34-1.61c-.78-1-1.64-2-2.44-3a.52.52,0,0,1,.06-.3.71.71,0,0,1,.54-.4c0-.1,0-.11,0-.2a.42.42,0,0,1,0-.1,16.13,16.13,0,0,0-1.94.6c-.34.1-.78,0-1,.24l-.09,0a.52.52,0,0,0,.09.24A2.45,2.45,0,0,1,166.31,52.68Z"/><path class="cls-12" d="M198,49.13c-.08,1.16-1.08,1.53-2.14,1.07A5.21,5.21,0,0,1,194,48.53c-.15-.21-.4-.39-.56-.61a5.13,5.13,0,0,0-.44-.6v0h-.06a6,6,0,0,0,.43,1,6.65,6.65,0,0,0,2.38,3c.51.36,1.37.93,2.1.4,1.29-.93.67-4.39.14-5.68a8.56,8.56,0,0,0-.41-.91c-.25-.48-.51-1.19-1.23-1.2a1.41,1.41,0,0,0-.47.5c-.66,1.49.69,3.17,1.31,4A2.45,2.45,0,0,0,198,49.13Zm-1.34-3.64h.17a3.8,3.8,0,0,1,.83,1.13,8.72,8.72,0,0,0,.27.91.16.16,0,0,1,0,.06c-.09.09-.46-.35-.54-.43C197,46.79,196.22,46.13,196.64,45.49Z"/><path class="cls-12" d="M130.15,45.79c.53-.54,1.63-1.88,1.61-2.88a.69.69,0,0,1-.13-.2,3.49,3.49,0,0,0-.77-.07,4.6,4.6,0,0,1-.34.74c-.22.52-.43,1-.63,1.54a7.94,7.94,0,0,1-.54,1.44v.06C129.7,46.36,129.94,46,130.15,45.79Zm.14-1.07a13.08,13.08,0,0,1,.57-1.37.46.46,0,0,1,.3.07c.08,0,0,0,.06.06s-.15.43-.23.57-.24.5-.4.74-.39.38-.54.6h0A2.68,2.68,0,0,1,130.29,44.72Z"/><path class="cls-12" d="M127.08,46.45h.46l.24-.3a7,7,0,0,0,.87-.93h.1v.46a2.7,2.7,0,0,0-.77.94v.27c-.17.74.19,1.12.84,1.07.42-.39,1.11-.72,1-1.5l0,0c-.07,0-.07,0-.1,0-.24.12-.65,1.2-1.14.9a.51.51,0,0,1-.4-.14,2.22,2.22,0,0,1,.77-1,9,9,0,0,0,.1-1.54l-.1,0c-.12,0-.21.14-.3.23a6.21,6.21,0,0,0-.74.8,5.38,5.38,0,0,0-1.37.1h-.1c.08-.21.73-.92.54-1.23a1,1,0,0,0,0-.1c-.61,0-1.34,1.08-1.54,1.53a2.64,2.64,0,0,1-.23.67v0l1.37-.17C126.71,46.45,127,46.53,127.08,46.45Zm-1.14-.63h-.2a1,1,0,0,1,.9-.8v.17l-.47.6A.51.51,0,0,0,125.94,45.82Z"/><path class="cls-12" d="M143.43,68.3v0c0,.07,0,.22.1.3a.24.24,0,0,1,0,.07c-.14.09-.34,0-.54.1-.4.09-1.68.41-2,.13a.64.64,0,0,1-.34-.53c-.08,0-.12,0-.16,0h-.07c.12.65.25,1.29.37,1.94h0v0l3.51-.6c-.16-.62-.33-1.23-.5-1.84-.09-.15-.39-.13-.57-.2a2.18,2.18,0,0,1-.83-.64,5.07,5.07,0,0,1-.74-3.81,2.85,2.85,0,0,1,2.14-2.08,2.44,2.44,0,0,1,1.54.24A3.36,3.36,0,0,1,147.14,64c.41,1.59-.11,3.06-1.17,3.54.07.65.14,1.3.2,1.94a5.4,5.4,0,0,0,1-.16c.53-.13,1.08-.15,1.57-.27s.89,0,1.17-.2a6.41,6.41,0,0,0-.26-1.37c-.05-.2,0-.39-.1-.54v-.06l-.24,0c0,1-.7.87-1.5,1.07a5.78,5.78,0,0,1-1.34.23v-.43a6.85,6.85,0,0,1,.73-.4,3.5,3.5,0,0,0,1.44-2.08,3.15,3.15,0,0,0,0-1.4,5.86,5.86,0,0,0-.14-.77A3.64,3.64,0,0,0,146.51,61a8.31,8.31,0,0,0-1.44-.3,4.09,4.09,0,0,0-1.6.2,4.23,4.23,0,0,0-3.22,2.81,3.81,3.81,0,0,0,0,2A3.41,3.41,0,0,0,143.43,68.3Z"/><path class="cls-12" d="M148.21,86.29c-.06.29.65.93.87,1.1s.27.28.44.2a.4.4,0,0,0,.17,0c0-.09.09-.2,0-.3C149.7,86.84,148.61,86.37,148.21,86.29Z"/><path class="cls-12" d="M156,87.89l.1,0c0-.44-.86-.63-1.31-.5-.2.06-.43.18-.64.23l-.46,0c-.06-.55-.32-1-.34-1.54a3.64,3.64,0,0,0,1.47-.27c0-.17,0-.17-.1-.26a2.09,2.09,0,0,0-1.34.09c-.08,0-.12,0-.16,0-.19-.24-.1-.72-.27-1v-.13c.36-.08.95-.14,1.14-.4a.24.24,0,0,0,0-.07A.43.43,0,0,1,154,84a1.64,1.64,0,0,0-1.2.13c-.14-.45,0-.81-.43-.93.1-.17.42-.17.63-.24a6,6,0,0,0,1-.4c0-.05,0,0,0-.06s-.07-.17-.14-.27a1.4,1.4,0,0,0-1.14.27h-.06a2.51,2.51,0,0,1,.33-.81c.1-.13.27-.11.34-.3h0v0l-.2-.27c-.16-.11-.38-.12-.53-.23a1.22,1.22,0,0,0-.57.06,1.5,1.5,0,0,0,.1.3,3.37,3.37,0,0,1-.37,1.57,3.45,3.45,0,0,1-1.64.47,1.48,1.48,0,0,1-.37-.2l0-.06c.47-.45.82-1.44,1.47-1.64a1,1,0,0,1,0-.17c-.17-.17-1-1-1.38-.74l-.09,0c0,.28.14.5.06.8a7,7,0,0,1-.8,1.81c-.19.29-.59.61-.6,1,.54-.06.68-.62,1.1-.77l.37.33a3.67,3.67,0,0,1,.23,1c.16.73.31,1.45.47,2.18,0,.35,0,.71.07,1.07s.35.88.7,1c0,0,.1,0,.16,0s.06-.27.14-.4.52-.1.77-.17c.68-.18,1.48-.17,2.24-.34C155.1,87.85,155.69,88.06,156,87.89Zm-5.43-4.34a2.45,2.45,0,0,1,1-.17c.36.17.23.69.44,1-.07.17-.89.42-1.14.44C150.85,84.46,150.79,83.74,150.55,83.55Zm.44,1.64a4.07,4.07,0,0,0,1.1-.37h0a3.44,3.44,0,0,0,.27,1.07c-.12.29-.86.27-1.14.43A2.93,2.93,0,0,1,151,85.19Zm.6,2.8a8.91,8.91,0,0,1-.3-1.4,8.26,8.26,0,0,0,1.2-.27,5,5,0,0,0,.37,1.4v.07A5.19,5.19,0,0,1,151.59,88Z"/><path class="cls-12" d="M124.2,63.41a.44.44,0,0,1,.17.07c.66,0,.79-.58,1.13-.94.29.69.07,1.91-.57,2.07-.27.19-.67,0-.83-.2a3.91,3.91,0,0,1-.87-2.14c-.07-.29,0-.88-.1-1.1s.08-1-.1-1.14v0H123c0,2.09-.12,5.3,1.51,5.75a.94.94,0,0,0,1.1-.5,3.8,3.8,0,0,0-.16-3.74c-.29,0-.7.71-.84.93a.2.2,0,0,1-.1,0c-.08,0-.07-.06-.13-.1a21.32,21.32,0,0,1,.13-2.28c.88.09,1.64.59,2.54.64a1,1,0,0,1,.07-.47.22.22,0,0,0,0-.13,3.33,3.33,0,0,0-1-.27v0h0c.12-1-.16-1.76-.84-2l-1.14-.2a1.85,1.85,0,0,1-.43-.34c0-.32-.11-.68.13-.87,0-.12,0-.14-.1-.2v0h0a2.41,2.41,0,0,0-.27.67,1.42,1.42,0,0,0,.77,1.7l1,.17c.27.1.39.32.57.5,0,.43-.42.48-.77.37-.54-.18-1.12-.3-1.67-.5a2,2,0,0,0-.47-.17c0,.21,0,.42-.07.64l1.41.43C124.08,61.08,123.61,62.5,124.2,63.41Z"/><path class="cls-12" d="M128.38,81.87c.2.11.25.58.33.81a2.38,2.38,0,0,0,.87,1.3v0h.07a3.94,3.94,0,0,0-.4-1c-.29-.72-.52-1.48-.77-2.21-.14-.42-.23-.84-.37-1.24a2.2,2.2,0,0,0-.16-.6v-.1a4,4,0,0,1,.77.2h.17a2.31,2.31,0,0,0-.17-.6c-.1-.17-.75-.17-.94-.3a5.12,5.12,0,0,1-.7-1.11A8,8,0,0,0,125.27,75a1.84,1.84,0,0,0-1.3-.57l-.24.17a2.94,2.94,0,0,0,.5,2.2v.07a1,1,0,0,1-.43-.23h0a1.14,1.14,0,0,0,.13.57c0,.16.3.29.47.33a22.2,22.2,0,0,0,.8,2.58c.24.64.37,1.25.63,1.87.13.3.45.52.54.84h.1a6.56,6.56,0,0,0-.34-.81c-.3-.74-.55-1.52-.8-2.27-.16-.49-.28-1-.43-1.44a2.27,2.27,0,0,0-.14-.5v0a2.25,2.25,0,0,1,.54.23c.39.17.76.23,1.17.4a3.74,3.74,0,0,0,1,.34,4.59,4.59,0,0,0,.36,1.3v.1c-.5-.35-.49-.84-1.4-.77a.75.75,0,0,1-.17.14,1.16,1.16,0,0,0,0,.76c.22.55.91,1.69,1.47,1.85C128,82.23,128.28,82,128.38,81.87Zm-.87-3.81a3.42,3.42,0,0,1-.94-.26c-.75-.29-1.43-.53-2.1-.84-.08-.31-.64-1.39-.34-1.77l.07-.1c.07,0,.06,0,.1,0,1,.13,2.06,1.38,2.58,2.08a3.65,3.65,0,0,0,.63.87v.06Zm-.87,2.51c0-.33.13-.33.27-.5a.31.31,0,0,0,.13,0c.52,0,.64.23.94.43a1.38,1.38,0,0,1,.07.5l-.3.37a1.53,1.53,0,0,0-.27.17C126.9,81.49,126.88,80.93,126.64,80.57Z"/><path class="cls-12" d="M185.84,36.83a2.85,2.85,0,0,0,1.53,1.23c.81.21,1.21-.74,1.51-1.1s1-.46,1.24-.94a1,1,0,0,0,0-.67,6.06,6.06,0,0,0-1.2-1.57c0-.2.11-.21.2-.33.21.1.28.4.44.57s.46.33.67.53a.88.88,0,0,0,.66-.23h0c-.08-.23-.38-.38-.54-.54-.35-.35-.61-.79-1-1.14v0a3.8,3.8,0,0,0-.87.74c-.21-.08-.33-.31-.5-.44a3.2,3.2,0,0,0-2.1-1,2.17,2.17,0,0,1-.47.17,2.07,2.07,0,0,0-1.1,1,2.44,2.44,0,0,0,.16,1.64A10.58,10.58,0,0,0,185.84,36.83Zm-.17-4.65c.57,0,.84.38,1.17.63A10.29,10.29,0,0,1,189,35c.27.37.64.58.63,1.24-.1.09-.13.19-.3.23s0,0-.06,0c-.48-.78-1.16-1.44-1.71-2.17-.18-.24-.46-.43-.63-.67-.31-.4-.68-.73-1-1.1a1.25,1.25,0,0,0-.26-.3C185.63,32.2,185.63,32.23,185.67,32.18Zm-.84.47H185c.16.25.45.42.63.66.5.67,1.11,1.25,1.61,1.91.3.41.64.79.93,1.2a3,3,0,0,0,.47.64,1.19,1.19,0,0,1-.16.34c-.59.13-.89-.25-1.21-.58a15.16,15.16,0,0,1-1.94-2.74C185.09,33.75,184.55,33.12,184.83,32.65Z"/><path class="cls-13" d="M320.73,890.51c40.17,0,73.56-33.31,73.56-73.55s-33.46-73.55-73.63-73.55S247.18,776.8,247.18,817,280.49,890.51,320.73,890.51Zm0-12.25A61.3,61.3,0,1,1,382,817,61,61,0,0,1,320.73,878.26Zm-18.67-33.18a22.47,22.47,0,0,1,12.76,3.9,32.75,32.75,0,0,0,3,1.59V790.93c-2.6-5-9.45-8.65-17.6-8.65-9.16,0-17.45,4.25-20.05,9.52v55.74c0,2.59,1.52,3.53,3.39,3.53a5.05,5.05,0,0,0,3.39-1.23C289.29,847.68,294.7,845.08,302.06,845.08Zm37.28,0c7.28,0,12.76,2.6,15.14,4.76a4.9,4.9,0,0,0,3.39,1.23c1.87,0,3.32-.94,3.32-3.53V791.8c-2.6-5.27-10.89-9.52-20.05-9.52-8,0-14.86,3.67-17.52,8.65v59.78a19.47,19.47,0,0,0,2.95-1.73A21.76,21.76,0,0,1,339.34,845.08Z"/><path class="cls-14" d="M477.05,824.66A45.36,45.36,0,1,1,445,838,45.22,45.22,0,0,1,477.05,824.66Zm0,2.22a43.14,43.14,0,1,0,30.51,12.63A43,43,0,0,0,477.05,826.88Zm17,20.88a4.92,4.92,0,0,1,3.52,1.2,4.71,4.71,0,0,1,1.25,3.13l0,.43V889c0,1.81-.3,3.11-1.09,3.94a4.68,4.68,0,0,1-3.27,1.18l-.49,0H459.11a5.07,5.07,0,0,1-3.63-1.06,4.46,4.46,0,0,1-1.14-3.05l0-.44V852.91a6.16,6.16,0,0,1,.93-3.94,3.7,3.7,0,0,1,2.67-1.17l.43,0h5a7.22,7.22,0,0,0,.95,3.18,4.34,4.34,0,0,0,3,2.11l.37.05,17.33,0a4.3,4.3,0,0,0,3.32-1.81,6.43,6.43,0,0,0,1.13-2.42l.09-.45,4.48-.69Zm-5.85,30H464a2.71,2.71,0,0,0-1.6.79,2.77,2.77,0,0,0-.83,2,3.21,3.21,0,0,0,.75,2,3,3,0,0,0,1.93,1.09h24l.28,0a2.44,2.44,0,0,0,1.61-.95,4,4,0,0,0,.79-2.13,2.68,2.68,0,0,0-.8-1.93,2.77,2.77,0,0,0-1.95-.82Zm.13-9.63H464.48l-.29,0a2.71,2.71,0,0,0-1.67.9,3.23,3.23,0,0,0-.8,2,3.08,3.08,0,0,0,.71,1.91,2.86,2.86,0,0,0,1.82,1h24.14l.27,0a3,3,0,0,0,1.82-1,2.37,2.37,0,0,0,.59-2.06,3,3,0,0,0-.76-1.87,2.71,2.71,0,0,0-2-.94Zm0-10H464.19a2.68,2.68,0,0,0-1.67.91,3.2,3.2,0,0,0-.8,2,3.06,3.06,0,0,0,.71,1.91,2.82,2.82,0,0,0,1.82,1h24.42a3.08,3.08,0,0,0,1.82-1,2.44,2.44,0,0,0,.59-2.07,3.07,3.07,0,0,0-.77-1.87,2.71,2.71,0,0,0-2-.94Zm-6.46-12.22c1.1,1.89,1.06,2.36.86,2.66l0,0-11.95.44c-1.29-.71-1.44-1.12-1.44-1.58a1.66,1.66,0,0,1,.26-.89l.13-.18,12.18-.5Z"/><path class="cls-13" d="M85.65,181.4a32.43,32.43,0,1,0,32.43,32.43A32.46,32.46,0,0,0,85.65,181.4Zm-.83,53a4.56,4.56,0,1,1,4.55-4.55A4.58,4.58,0,0,1,84.82,234.38ZM89.15,217c-1.33,1.95-.89,4.67-4.55,4.67A3.54,3.54,0,0,1,81,217.94c0-6.61,9.72-8.11,9.72-13.55,0-3-2-4.78-5.33-4.78-7.11,0-4.33,7.33-9.72,7.33a3.32,3.32,0,0,1-3.61-3.38c0-5.45,6.22-10.28,13-10.28,7.11,0,14.1,3.28,14.1,11.11C99.21,211.61,90.93,214.39,89.15,217Z"/><path class="cls-13" d="M85.13,138.59a75.24,75.24,0,1,0,75.24,75.24A75.24,75.24,0,0,0,85.13,138.59Zm.52,111.26a36,36,0,1,1,36-36A36.05,36.05,0,0,1,85.65,249.85Z"/></svg>