<?xml version="1.0" encoding="utf-8"?>
<!-- Generator: Adobe Illustrator 24.1.0, SVG Export Plug-In . SVG Version: 6.00 Build 0)  -->
<svg version="1.1" id="Layer_1" xmlns="http://www.w3.org/2000/svg" xmlns:xlink="http://www.w3.org/1999/xlink" x="0px" y="0px"
	 viewBox="0 0 1000 1000" style="enable-background:new 0 0 1000 1000;" xml:space="preserve">
<style type="text/css">
	.st0{fill:none;stroke:#FFFFFF;stroke-width:10;stroke-miterlimit:10;}
	.st1{fill:#454099;stroke:#FFFFFF;stroke-width:10;stroke-miterlimit:10;}
	.st2{fill:none;stroke:#F2663F;stroke-width:15;stroke-miterlimit:10;}
	.st3{fill:#FFFFFF;stroke:#F1663F;stroke-width:15;stroke-miterlimit:10;}
	.st4{opacity:0.5;fill:none;stroke:#F2663F;stroke-width:15;stroke-miterlimit:133.3333;enable-background:new    ;}
	.st5{fill:none;stroke:#F2663F;stroke-width:15;stroke-miterlimit:133.3333;}
	
		.st6{opacity:0.5;fill:none;stroke:#F2663F;stroke-width:15;stroke-linecap:round;stroke-miterlimit:133.3333;enable-background:new    ;}
	.st7{opacity:0.5;fill:none;stroke:#FFFFFF;stroke-width:15;stroke-miterlimit:133.3333;enable-background:new    ;}
	.st8{fill:none;stroke:#FFFFFF;stroke-width:15;stroke-miterlimit:133.3333;}
	
		.st9{opacity:0.5;fill:none;stroke:#FFFFFF;stroke-width:15;stroke-linecap:round;stroke-miterlimit:133.3333;enable-background:new    ;}
	.st10{opacity:0.55;fill:none;stroke:#FFFFFF;stroke-width:15;stroke-linecap:round;stroke-miterlimit:10;}
	.st11{opacity:0.88;fill:#25B463;enable-background:new    ;}
	.st12{fill:#25B463;}
	.st13{fill:#F2663F;}
	.st14{fill:#27B463;}
</style>
<line class="st0" x1="408.31" y1="557.71" x2="306.31" y2="615.52"/>
<line class="st0" x1="531.39" y1="596.05" x2="629.95" y2="847.97"/>
<line class="st0" x1="707.35" y1="416.45" x2="589.85" y2="462.42"/>
<line class="st1" x1="311.91" y1="302.98" x2="423.88" y2="424.16"/>
<line class="st1" x1="494.46" y1="603.16" x2="495.21" y2="771.47"/>
<circle class="st2" cx="495.21" cy="849.1" r="77.61"/>
<circle class="st2" cx="493.81" cy="500" r="103.14"/>
<circle class="st3" cx="259.23" cy="245.96" r="77.61"/>
<circle class="st2" cx="651.15" cy="902.16" r="58.19"/>
<circle class="st2" cx="169.23" cy="669.15" r="147.2"/>
<circle class="st4" cx="757.49" cy="379.45" r="17.39"/>
<circle class="st5" cx="757.49" cy="396.84" r="57.96"/>
<path class="st6" d="M792.08,443.21c-0.92-16.76-6.05-28.98-34.6-28.98c-28.54,0-33.68,12.22-34.6,28.98"/>
<circle class="st7" cx="493.71" cy="482.36" r="17.39"/>
<circle class="st8" cx="493.71" cy="499.75" r="57.96"/>
<path class="st9" d="M528.31,546.12c-0.92-16.76-6.05-28.98-34.6-28.98c-28.54,0-33.68,12.22-34.6,28.98"/>
<path class="st10" d="M569.31,468.1c0.65,1.47,1.27,2.96,1.87,4.48c1.11,2.83,2.08,5.67,2.93,8.49"/>
<path class="st10" d="M519.94,422.17c14.61,5.36,27.61,14.49,37.38,26.71"/>
<g>
	<g>
		<path class="st11" d="M276.6,633.14c-0.04-0.14-0.1-0.27-0.19-0.39l-0.52-0.66l0.13-0.53c0.05-0.18,0.04-0.38-0.01-0.56
			c-3.59-12.42-9.68-24.61-17.58-35.25c-0.12-0.15-0.27-0.27-0.44-0.35l-1.32-0.56c-0.33-0.14-0.73-0.1-1.03,0.12l-1.05,0.72
			c-0.72-0.91-1.46-1.89-1.87-2.43c-1.81-1.98-3.33-4.01-4.02-4.93c0.05-0.19,0.04-0.4-0.02-0.59l-0.54-1.61
			c-1.05-2.04-4.33-4.74-4.77-5.09c-0.14-0.1-1.38-0.96-2.31-1.32c-0.98-0.38-2-0.44-2.12-0.44c-0.22-0.01-0.44,0.05-0.63,0.17
			c-2.85-2.05-9.06-7.03-9.12-7.09c-0.11-0.08-0.23-0.15-0.36-0.19l-1.23-0.38c-0.4-0.13-0.72-0.11-0.99,0.2
			c-0.01,0.01-0.3,0.19-1.29,0.46c-1.25,0.33-2.36,0.48-3.33,0.61l-0.25,0.04c-1.31,0.17-1.78,0.7-1.93,1.14l-1.79,2.87
			c-0.05,0.08-0.1,0.18-0.12,0.27c-0.04,0.14-0.1,0.47,0.02,0.98c-0.02-0.05-0.05-0.09-0.06-0.14c-0.44-0.95-1.3-1.7-1.55-1.9
			c-1.97-1.12-5.36-0.68-6.73-0.44c-2.47,0.42-5.79,1.53-6.47,1.79c-0.53,0.21-3.36,1.15-4.82,1.52c-0.85,0.22-1.59,0.44-2.24,0.64
			c-0.47,0.14-0.89,0.27-1.28,0.37c-0.63,0.17-3.83,1.11-9.77,2.88c-2.28,0.67-3.77,0.94-3.75,0.94c-0.77,0.08-1.41,0.11-1.94,0.11
			c-1.55,0-2.11-0.23-2.12-0.22c0-0.02-0.02-0.23-0.02-0.23l0.02-2.53c-0.01-0.15-0.14-1.53-1.32-2.17
			c-0.95-0.52-2.19-0.67-3.87-0.75c-1.81-0.08-3.76,0.1-4.75,0.31c-1.83,0.4-3.29,1.2-4.34,2.37c-1.53,1.7-1.32,3.17-1.3,3.21
			c0,0,0.08,1.49,0.2,2.59c0.04,0.41,0.16,0.75,0.32,1.05c-0.95,0.44-2.55,1.09-5.03,1.81c-4.55,1.34-7.64,1.61-7.67,1.62
			c-0.59,0.05-1.02,0.56-0.97,1.15c0.09,1.21,1.05,6.56,1.15,7.15c0.05,0.3,0.49,2.98,0.68,3.72c0.18,0.7,0.67,2.24,0.67,2.24
			c0.03,0.14,0.36,1.29,1.56,1.85c0.94,0.44,2.7,0.69,4.57-0.04c1.56-0.62,2.18-1.35,2.77-2.05l1.05-1.22
			c0.01-0.01,0.98-0.87,2.08-0.5c1.03,0.35,1.84,1.5,2.1,1.95c-0.59,0.2-1.32,0.43-1.87,0.58c-1.08,0.29-11.56,3.66-11.56,3.66
			s-4.06,1.3-7.28,2.08c-3.22,0.78-5.01,1.04-5.71,1.08c-0.65,0.04-0.78,0.02-0.8,0.02c0,0,0.03-0.06,0.33-0.59
			c0.02-0.04,0.03-0.08,0.04-0.12c0-0.01,0.01-0.02,0.01-0.03c0.07-0.16,0.12-0.32,0.14-0.49c0.01-0.06,0.02-0.1,0.03-0.15
			c0.01-0.08,0.02-0.15,0.02-0.23c0-0.03,0-0.04,0-0.06c0-0.16,0-0.28,0-0.28s-0.03-0.08-0.09-0.2c-0.03-0.08-0.07-0.16-0.13-0.25
			c-0.23-0.43-0.61-1.08-1.16-1.7c-0.22-0.24-0.47-0.42-0.71-0.56c-0.73-0.41-1.45-0.4-1.45-0.4s-1.82-0.26-5.04,1.1
			c-3.22,1.36-4.34,2.49-5.01,3.51c-0.67,1.02-0.05,2.21-0.05,2.21c0.78,1.11,2.26,2.4,2.26,2.4l-0.03,0.01
			c-1.01,1.15-3.68,2.22-4.33,2.47c-0.09,0.03-0.15,0.05-0.15,0.05s-0.06,0.02-0.18,0.06c-0.82,0.28-4.29,1.44-7.44,1.84
			c-1.72,0.22-3.29,0.33-4.42,0.38c1.54-1.52,2.21-3.15,2.24-3.23c1.46-3.59,0.15-7.14-0.65-8.02c-0.74-0.8-2.22-1.9-2.33-1.98
			c-0.52-0.44-1.8-0.97-3.33-0.27c0.15-0.88,0.43-1.95,0.85-2.97c0.7-1.7,2.23-4.69,2.23-4.69c0.09-0.16,2.3-3.93,3.21-6.34
			c0.96-2.52,0.96-4.45,0.96-4.53c0-0.24-0.08-0.47-0.23-0.66c0,0-1.04-1.32-1.61-2.06c1.7,0.37,2.95-0.34,3.18-0.48
			c2.35-1.78,3.81-4.95,3.86-5.05l2.11-4.28c0.16-0.33,0.14-0.72-0.05-1.04l-1.76-2.85c-0.15-0.25-0.4-0.42-0.69-0.48
			c-0.21-0.04-0.57-0.12-2.65,0.59c-0.96,0.33-1.76,0.67-2.32,0.93l-0.58-0.86c-0.03-0.05-0.21-0.24-0.25-0.29
			c-0.48-0.49-1.41-0.56-2.92-0.22c-1.74,0.4-4.22,1.72-5.38,3.27c-0.64,0.85-0.95,1.48-1.09,1.87c-3.13,2.7-5.77,3.98-6.35,4.24
			c-1.06,0.16-1.73,0.67-1.85,0.76c-2.94,2.49-6.38,6.49-6.82,7c-0.15,0.14-0.28,0.34-0.41,0.58c-0.13,0.26-0.58,1.62-0.47,2.21
			c0.01,0.05,0.02,0.1,0.03,0.14c-1.34,1.78-2.2,2.77-2.66,3.26c-0.13,0-0.27,0.01-0.4,0.03c-0.52,0.15-1.48,0.75-1.87,0.99
			c-0.12,0.08-0.22,0.17-0.3,0.28c-0.82,1.16-2.71,4.29-3.33,5.31c-0.14,0.07-0.29,0.16-0.42,0.25c-0.16,0.01-0.32,0.05-0.47,0.14
			l-1.46,0.82c-0.16,0.09-0.3,0.22-0.39,0.38c-6.82,11.21-11.52,23.41-13.98,36.28c-0.03,0.15-0.02,0.32,0.02,0.47l0.09,0.34
			l-0.38,0.86c-0.04,0.08-0.06,0.17-0.08,0.25c-1.07,6.19-1.62,12.55-1.62,18.91c0,4.15,0.23,8.33,0.7,12.43
			c0.02,0.18,0.08,0.35,0.19,0.49l0.39,0.55l-0.24,0.59c-0.07,0.17-0.09,0.36-0.07,0.54c1.94,14.64,6.73,28.51,14.24,41.25
			c0.07,0.13,0.17,0.23,0.28,0.32l0.14,0.1l0.12,0.42c0.02,0.09,0.06,0.18,0.11,0.27c20.15,33.26,55.38,53.12,94.22,53.12
			c27.75,0,54.26-10.36,74.64-29.16c20.26-18.7,32.72-44.07,35.05-71.43c0.01-0.17-0.01-0.34-0.07-0.5l-0.29-0.69l0.38-0.64
			c0.08-0.14,0.14-0.31,0.15-0.48c0.15-2.42,0.23-4.85,0.23-7.21C280.34,651.98,279.08,642.39,276.6,633.14z M276.98,648.14
			c0.15-0.15,0.24-0.42,0.22-1.12c0.37,2.75,0.64,5.52,0.8,8.3c-0.19,0.41-0.26,1.29-0.26,1.29s-0.14,1-0.33,0.98
			c-0.05-0.01-0.12-0.01-0.21-0.05c-0.27-0.13-0.68-0.67-1-2.97c-0.43-3.07-0.33-6.3-0.33-6.3s-0.09-0.33,0.1-0.4
			c0.19-0.07,0.4,0.21,0.4,0.21S276.65,648.47,276.98,648.14z M274.6,633.91c0.46,1.72,0.83,3.47,1.21,5.22
			c-0.53-2.2-1.13-4.24-1.6-5.71L274.6,633.91z M274.2,633.41c0.13,0.39,0.25,0.8,0.38,1.24
			C274.44,634.21,274.31,633.77,274.2,633.41L274.2,633.41z M273.89,633.01l0.04,0.05l-0.35-0.39v0l0.31,0.34
			C273.88,633,273.89,633.01,273.89,633.01z M269.55,619.5c0.02-0.01,0.01-0.03,0.03-0.03c1.64,3.82,3.06,7.71,4.22,11.63
			c-0.09,0-0.18,0-0.27,0.02c-0.04,0.01-0.05,0.02-0.08,0.03c-0.01-0.02-0.01-0.04-0.01-0.04s-0.67-1.95-2.21-5.85
			c-1.35-3.41-1.72-4.88-1.8-5.19c-0.01-0.05-0.02-0.06-0.02-0.06S269.32,619.57,269.55,619.5z M273.57,632.64L273.57,632.64
			L273.57,632.64L273.57,632.64z M273.42,631.09L273.42,631.09c0,0,0-0.01,0-0.02C273.42,631.08,273.42,631.09,273.42,631.09z
			 M257.37,600.13c0.27-0.14,0.57-0.31,0.81-0.5c0.09-0.07,0.14-0.14,0.22-0.21c1.84,2.62,3.56,5.31,5.17,8.08
			c-0.2,0.03-0.35,0.27,0.04,1.32c0.25,0.66,0.29,0.89,0.24,0.93c-0.08,0.05-0.4-0.43-0.4-0.43
			C261.47,606.8,257.38,600.14,257.37,600.13l-0.39-0.26L257.37,600.13z M256.07,600.7c0.06-0.03,0.13-0.05,0.18-0.07
			c0.05-0.02,0.08-0.04,0.13-0.06c0.13-0.05,0.25-0.1,0.36-0.15c0,0,0.03-0.01,0.08-0.03c0,0,0,0,0,0l0.02,0.03
			c2.18,3.52,6.08,9.18,6.08,9.18s1.58,2.05,1.94,2.07c0.35,0.02-0.18-1.58-0.18-1.58s-0.17-0.65-0.03-0.73
			c1.46,2.64,2.81,5.33,4.05,8.06l0,0c0,0-0.31,0.15-0.31,0.71c0,1.08,1.06,3.55,1.06,3.55s2.22,5.66,3.65,9.62
			c-0.45,0.25-0.73,0.65-1.72,0.81c-1.26,0.21-2.73,0.65-4.16,2.82c-0.43,0.65-0.59,1.34-0.61,2c0,0.01-0.01,0.02-0.01,0.03
			c0,0.04,0.01,0.08,0,0.13c0,0.27,0.01,0.52,0.05,0.76c0.01,0.07,0.01,0.14,0.03,0.21c0.04,0.2,0.08,0.39,0.13,0.57
			c0.02,0.06,0.03,0.15,0.05,0.21c0,0.01,0.01,0.02,0.02,0.04c0.17,0.56,0.36,0.92,0.36,0.92s0.77,1.26,1.14,1.91
			c0.37,0.65,2.28,4.74,0.08,7.72c0,0-1.18,1.37-3.26,1.84c-1.84,0.41-1.37-1.74-1.56-2.9c0,0-0.27-4.88-2.64-7.68
			c-2.09-2.45-5.87,1.9-7.76,3.35c-1.76,1.34-6.9,6.65-14.29,10.53l-0.27-3.55c0,0-0.18-1.91-1.21-4.88
			c-2.1-6.04-4.15-8.81-4.15-8.81s-0.82-1.78-2.65-2.5c-0.46-0.18-0.97-0.32-1.57-0.32c-2.84,0-3.06,2.61-3.06,2.61
			s-0.67,2.06-1.76,2.69c-0.94,0.54-3.46,2.01-5.19,1.16c-0.25-0.13-0.48-0.29-0.69-0.52c-0.33-0.36-0.6-0.74-0.88-1.12
			c-0.32-0.43-0.61-0.86-0.87-1.31c-0.89-1.55-1.45-3.19-1.59-4.78c-0.22-2.46,0.79-3.45,0.79-3.45s0.21-0.63,3.45-0.63
			c3.63,0,4.3-1.12,4.3-1.12s0.69-0.64,0.64-2.06c-0.06-1.43-0.61-4.48-1.66-6.42c-0.15-0.27-0.35-0.58-0.57-0.9
			c-0.8-1.21-1.99-2.72-3.04-3.94l-1.96-0.36l1.96,0.35c1.26-0.47,3.01-1.16,4.89-2c3.84-1.73,5.67-3.18,7.44-4.19
			c0,0,3.89-2.39,6.17-2.33c0.01,0,0.53-0.02,0.58,0.69c0.05,0.7,0.23,1.74,0.46,2.34c0.24,0.6,1.57,3.9,5.83,4.38
			c0.53,0.06,1.03,0.07,1.49,0.04c0.25-0.02,0.47-0.07,0.7-0.11c0.19-0.03,0.39-0.05,0.56-0.09c0.32-0.09,0.61-0.2,0.88-0.32
			c0.05-0.02,0.12-0.04,0.17-0.06c0.29-0.13,0.53-0.28,0.77-0.43c0.02-0.01,0.05-0.02,0.08-0.04c0.99-0.66,1.44-1.38,1.44-1.38
			s1.46-2.24-1.06-4.91c0,0-2.05-2.2-2.11-2.37c0,0-0.13-0.2,0.09-0.37c0.06-0.05,0.14-0.09,0.26-0.13c0.36-0.1,2.91-0.82,5.35-1.61
			C254.09,601.43,255.2,601.05,256.07,600.7z M242.69,670.39c1.13,2.33,3.63,2.57,5.45,2.12c1.82-0.46,2.42-1.45,3.43-3.64
			c1-2.18,1.54-2.33,1.54-2.33s0.4-0.58,2.25-0.36c1.85,0.21,2.24,1.51,2.24,1.51s1.07,2.51,0.85,5.15
			c-0.21,2.63-0.78,3.82-1.39,4.75c-0.61,0.94-3.76,0.63-3.76,0.63s-5.42-0.61-5.91,5.91c-0.49,6.51,1.7,11.03,1.7,11.03
			c0.79,1.72,1.6,2.63,2.27,3.12c0.66,0.48,1.3,1.12,1.3,1.12s0.12,0.1,0.28,0.32l-0.03,0c-3.86,3.13-5.01,4.14-8.09,6.32
			c0,0-3.51,2.62-7.35,4.7c-3.86,2.08-8.38,1.82-8.38,1.82s-1.22-0.13-0.63-1.02c0.59-0.88,1.35-3.04,1.65-4.14
			c0.3-1.1,0.89-3.89-1.35-4.78c-2.24-0.88-6.46,0.42-6.46,0.42s-9.67,2.58-13.62,6.91c-3.84,4.21-0.61,6.09-0.61,6.09
			s1.5,1.05,2.96,1.56c1.38,0.49,1.1,0.93,0.76,1.18c0,0-4.32,2.75-9.43,4.22c0,0-6.98,2.14-13.77,2.58
			c-6.65,0.43-9.53,0.61-9.6,0.61c-0.73-1.43-1.48-2.71-1.48-2.71s-0.79-1.22-1.17-2.93c-0.32-1.44-0.36-3.23,0.65-4.98
			c2.22-3.86,5.85-5.02,5.85-5.02s3.21-0.71,6.41,0.03c3.03,0.69,4.56-0.47,4.56-0.47s1.05-0.45,1.8-2.24
			c0.06-0.15,0.12-0.35,0.18-0.52c0.05-0.15,0.11-0.3,0.16-0.48c0.1-0.38,0.2-0.8,0.26-1.26c0.56-3.69-0.03-10.56-4.95-11.93
			c-4.93-1.35-7.55,1.21-7.55,1.21s-2.65,2.93-3.51,3.36c-0.86,0.43-2.19,1.2-2.19,1.2s-1.85,1.11-3.11,1.39
			c-0.78,0.17-3.42-3.28-4.01-6.23c-0.04-0.2-0.1-0.41-0.12-0.6c-0.25-2.46-0.72-4.52-0.7-8.88c0-0.62,0.02-1.28,0.04-2
			c0-0.01,0-0.02,0-0.04c0.87-0.05,1.76-0.1,2.65-0.13c7.64-0.28,11.43-1.18,15.49-2.09c4.06-0.92,9.77-4.24,10.62-4.87
			c0.74-0.55,2.2-1.22,2.79-3.25c0.06-0.22,0.1-0.46,0.15-0.71c0.01-0.08,0.04-0.14,0.05-0.23c0-0.01,0-0.02,0-0.02
			c0.36-2.77-2.92-4.61-2.92-4.61s-2.6-1.37-3.15-1.99c-0.27-0.31-0.28-0.61-0.23-0.83c0.06-0.21,0.18-0.35,0.18-0.35
			s1.47-3.17,6.19-5.03c4.71-1.87,7.89-2.37,9.87-2.58c1.99-0.21,2.66,0.51,2.94,0.85c0.27,0.34,0.27,1.04,0.05,1.75
			c-0.22,0.66-0.95,2.22-1.38,2.98c-0.42,0.76-1.12,2.6-0.67,3.47c0.44,0.87,1.8,1.27,3.55,0.95c1.76-0.32,6.39-1.63,10.45-3.32
			c4.07-1.69,10.84-5.01,10.84-5.01s0.02-0.01,0.05-0.03l0-0.02c0,0,0,0,0.01,0l0.18-1.51c0,0.01,0.01,0.02,0.01,0.03l-0.17,1.53
			C238.93,662.49,241.58,668.1,242.69,670.39z M253.72,699.8l-0.04,1.35c0.45,1.23,0.78,3.17,0.31,6.02c-0.61,3.8-1.52,6-2.12,7.12
			c-0.11,0.19-0.22,0.39-0.33,0.57c-0.05,0.06-0.06,0.1-0.1,0.14c-0.1,0.15-0.21,0.28-0.31,0.42c-0.11,0.14-0.32,0.39-0.58,0.69
			c-0.13,0.13-0.25,0.27-0.38,0.39c-0.05,0.04-0.1,0.09-0.15,0.13c-0.14,0.14-0.3,0.29-0.47,0.43c-0.05,0.04-0.07,0.07-0.11,0.11
			c-0.82,0.69-1.83,1.34-2.93,1.47c-2.39,0.29-4.98,0.25-7.39,2.56c-0.04,0.04-0.08,0.05-0.12,0.09c-0.08,0.08-0.16,0.17-0.24,0.25
			c-0.04,0.05-0.09,0.08-0.13,0.13c-0.01,0.02-0.03,0.04-0.04,0.05c-0.23,0.26-0.47,0.58-0.7,0.93c-1.95,2.92-1.51,6.17-1.51,6.17
			s0.25,2.46,2.89,1.79c2.63-0.67,5.32-2.69,7.35-4.3c2.02-1.61,0.78,0.54,0.78,0.54c-1.78,3.49-5.18,6.97-5.18,6.97
			s-1.18,1.03-3.78,4.7c-0.68,0.95-1.24,1.8-1.71,2.55c0,0,0,0,0,0s-0.01,0.01-0.02,0.02c-2.66,1.43-6.49,3.33-8.9,4.31
			c0.12-0.04,0.25-0.1,0.38-0.14c-0.13,0.05-0.26,0.11-0.38,0.16c-1.27,0.52-2.28,0.87-3.01,1.07c0.02-0.01,0.03-0.01,0.06-0.02
			c-0.78,0.22-1.24,0.27-1.38,0.21c-0.01,0-0.03,0-0.03-0.01c-0.03-0.02-0.01-0.06,0-0.09c0-0.01,0-0.02,0-0.03
			c0.27-0.4,0.99-0.98,0.99-0.98s0.86-0.86,0.86-1.72c0,0,0.06-0.31-0.33-0.53c-0.4-0.22-1.25-0.34-3.1,0.05
			c-0.91,0.19-1.79,0.45-2.61,0.72c-0.02,0.01-0.04,0.01-0.06,0.02c-1.11,0.37-2.11,0.78-2.86,1.11c0.02,0,0.02,0,0.02,0
			c0,0,0.07-0.03,0.21-0.09c-1.06,0.47-1.74,0.83-1.74,0.83s-1.87,0.86-3.17,1.88l0.04-0.04c-0.05,0.04-0.08,0.07-0.13,0.11
			c-0.16,0.13-0.31,0.25-0.44,0.39c-0.03,0.03-0.06,0.05-0.08,0.08c-0.17,0.17-0.3,0.34-0.4,0.51c-0.02,0.02-0.03,0.05-0.05,0.07
			c-0.1,0.17-0.15,0.34-0.16,0.51c0,0.01,0,0.02,0,0.03c0,0.18,0.05,0.34,0.18,0.5c0,0,0.25,0.4,1.35,0.76
			c0.13,0.04,0.19,0.09,0.21,0.14c0.01,0.02,0.01,0.04,0.01,0.05c0,0.04-0.02,0.07-0.04,0.1c-0.03,0.04-0.05,0.07-0.09,0.1
			c-0.02,0.02-0.05,0.03-0.06,0.05c-0.06,0.05-0.13,0.09-0.21,0.14l0.04-0.01c-0.63,0.36-1.82,0.72-1.82,0.72
			c-2.92,0.96-5.16,1.39-8,1.98c-2.94,0.6-5.48,1.16-7.19,1.53l0-0.01l0.02,0c-0.18-0.7-0.45-1.38-0.75-2.03
			c-0.04-0.08-0.07-0.16-0.12-0.24c-0.14-0.29-0.28-0.58-0.43-0.85c-0.03-0.05-0.06-0.11-0.08-0.16c-0.17-0.31-0.33-0.59-0.49-0.85
			c-0.07-0.12-0.13-0.22-0.2-0.33c-0.07-0.12-0.14-0.23-0.21-0.33c-0.19-0.3-0.36-0.56-0.46-0.73c-0.67-1.07-1.79-1.69-5.12-1.13
			c-3.33,0.55-7.24,2.21-7.24,2.21s-4.05,2.13-7.05,1.73c-0.76-0.1-1.36-0.37-1.84-0.72c-1.44-1.07-1.78-2.96-1.76-3.68
			c0.03-0.96,0.65-1.79,2.22-2.4c1.57-0.62,5.27-1.45,10.66-1.73c5.39-0.28,7.4-3.78,7.4-3.78c0.61-0.89,1.66-2.75-0.11-4.34
			c-0.26-0.23-0.57-0.45-0.95-0.67c-1.88-1.05-2.61-1.28-3.25-1.57c-0.23-0.11-0.46-0.23-0.72-0.4c-0.02-0.02-0.04-0.03-0.06-0.04
			c-0.05-0.03-0.1-0.06-0.14-0.1c-0.11-0.08-0.22-0.15-0.35-0.25c-0.36-0.28-0.73-0.57-1.09-0.88c-1.08-0.94-2.08-2.05-2.54-3.46
			c-0.05-0.18-0.14-0.42-0.22-0.63l-1.09-0.71l-0.71-0.48l0,0v0l0,0l-0.01,0l0,0h0l0,0v0v0v0l0,0c0,0,0,0,0,0l0.01-0.01l0,0
			l0.13-0.12l-0.13,0.12l0.02,0.02c-0.01,0-0.01,0-0.02,0l1.8,1.19c1.57-0.13,3.61-0.27,5.43-0.36c3.61-0.18,9.28-1.01,12.57-1.73
			c3.29-0.73,8.27-2.27,11.95-4.17c3.69-1.91,3.86-3.25,3.86-3.25s0.28-0.4,0.1-0.97c-0.1-0.34-0.36-0.75-0.95-1.17
			c-1.54-1.12-2.22-0.82-3.58-2.2c-0.17-0.17-0.27-0.35-0.33-0.53c-0.42-1.32,1.53-2.91,1.53-2.91s1.31-1.85,8.6-4.66
			c7.29-2.81,8.51-1.87,8.89-1.55c0.09,0.07,0.17,0.19,0.22,0.34c0.16,0.45,0.15,1.13,0.04,1.64c-0.15,0.68-1.06,3.11-1.54,4.39
			c-0.25,0.65-0.42,1.41-0.26,2.06c0.14,0.63,0.58,1.17,1.56,1.38c1.98,0.41,4.74-0.02,7.33-0.95c6.19-2.21,8.04-4.91,18.25-12.33
			c0.03-0.02,0.05-0.03,0.06-0.05l0.04-1.38c0,0,0.01,0,0.01-0.01v0C253.71,699.78,253.72,699.79,253.72,699.8z M148.57,737.18
			c1.63,1.84,3.35,2.63,3.35,2.63s1.01,0.44,0.99,0.72c-0.02,0.35-0.03,0.66-0.79,1.09c0,0-2.98,1.74-8.78,1.84
			c-5.8,0.1-8.36,0.05-10.07-1.49c-1.41-1.26,0.35-3.94,0.35-3.94s0.7-1.31,0-3.11c-0.71-1.8-4.74-1.83-4.74-1.83l-5.59-0.29
			c-6.62-0.17-15.36-0.92-19.25-1.4c0,0-0.02,0-0.07-0.01v0l-0.11-0.17c0,0-4.01-7.22-3.58-9.87c0,0,0.11-1.35,1.82-2.2
			c0.24-0.12,0.52-0.23,0.83-0.33c1.75-0.54,1.52,1.16,6.65,2.08c0,0,2.58,0.68,4.31-0.42c0.54-0.34,1-0.84,1.27-1.6
			c1.15-3.22-1.21-7.26-1.21-7.26s-3.1-5.68-6.94-5.89h0l0,0c-0.03,0-0.04,0-0.06,0c-1.94-0.08-1.45,1.26-4.48,1.97
			c0,0-4.09,0.4-5.39-2.06c-1.57-2.97-2.17-6.35-2.17-8.6c0-0.08,0-0.13,0-0.2c0.04-1.41,0.08-1.9,0.16-2.29
			c0.03-0.14,0.07-0.29,0.11-0.5c0.05-0.22,0.14-0.51,0.24-0.88c0.1-0.39,0.22-0.86,0.29-1.46l0-0.02c1.74-0.19,4.52-0.49,7.74-0.84
			c5.41-0.58,9.04-1.16,12.4-0.66c3.36,0.5,4.44,3.12,4.44,3.12s0.06,0.17,0.02,0.4c-0.04,0.23-0.18,0.5-0.55,0.74
			c-0.75,0.48-1.61,1.17-2.03,1.91c0,0.01,0,0.01-0.01,0.02c0,0,0,0,0,0c-0.05,0.08-0.1,0.19-0.15,0.29c0,0,0,0,0,0
			c-0.36,0.82-0.59,2.23,0.49,4.05c1.22,2.06,4.58,3.4,7.44,3.06c2.85-0.33,7.13-1.43,9.66-2.1c2.07-0.54,3.96-1.44,4.9-2.77
			c0.32-0.44,0.53-0.94,0.61-1.48c0.32-2.16-3.28-4.91-3.28-4.91s-1.73-1.31-1.94-1.6c-0.05-0.08-0.06-0.14-0.06-0.19
			c0.05-0.14,0.26-0.21,0.26-0.21s2.03-0.49,2.9-0.88c0.86-0.41,3.25-1.38,7.17-2.61c3.92-1.23,11.99-2.66,11.99-2.66
			s4.46-0.71,10.02-1.16l0.02-0.02c0.01,0,0.01,0,0.02,0l0.69-0.79l0.21-0.24l-0.91,1.05c-0.02,0.52-0.03,1.07-0.05,1.63
			c-0.31,8.29,1.54,12.54,1.54,12.54c1.05,2.28,2.19,3.91,3.73,4.96c1.54,1.05,3.63,0.33,4.32,0c0.67-0.34,2.55-1.2,4.15-2.22
			c1.6-1.02,1.55-1.45,3.48-3.24c1.94-1.78,4.44-1.29,4.44-1.29s2.37,0.06,3.72,2.81c1.36,2.75,1.09,6.65,0.74,8.07
			c-0.34,1.41-0.95,2.34-2.28,2.1c-1.33-0.24-3.52-0.46-4.32-0.5c-0.8-0.03-3.06-0.11-5.12,0.43c-2.01,0.52-4.72,1.97-7.3,6.17
			c-2.01,3.25-1.02,6.44-0.56,7.7c0.36,0.99,1.36,2.36,2.23,4.05l1.62,0.54l0,0l-1.61-0.53c-2.75,0.33-7.39,0.99-11.97,2.1
			c-5.61,1.37-10.95,2.45-14.76,4.91C149.78,733.45,146.93,735.34,148.57,737.18z M103.97,731.45l-0.01,0.3c0,0,0,0,0,0v0l0,0v0l0,0
			L103.97,731.45z M95.42,690.29L95.42,690.29L95.42,690.29C95.42,690.28,95.42,690.29,95.42,690.29z M162.66,644.93
			c-0.42-2.99-0.53-3.69-3.17-12.75c3.46-0.48,6.28-0.92,9.47-1.54c2.14-0.42,4.45-0.91,7.26-1.56c0,0,6.51-1.16,7.86-3.54
			c0.79-1.38,2.2-3.29-0.09-5.19c0,0-0.01-0.01-0.01-0.01v0c0,0-0.26-0.35-1.69-0.67c-0.61-0.14-1.14-0.26-1.66-0.42
			c-0.7-0.21-1.36-0.49-2.06-0.98c-1.21-0.86-1.18-1.86-1.18-1.86s-0.1-0.95,1.84-2.05c0,0,1.02-0.75,3.05-1.61
			c0.68-0.29,1.47-0.58,2.37-0.87c3.62-1.14,7.8-0.63,7.8-0.63s1.75,0.19,1.47,1.37c-0.3,1.19-1.29,3.17-1.33,4.19
			c-0.03,0.61,0,1.28,0.44,1.9c0.14,0.2,0.34,0.39,0.6,0.58c0.26,0.19,0.57,0.38,0.96,0.55c1.25,0.51,2.83,0.61,3.84,0.61
			c0.61,0,1.01-0.04,1.01-0.04s2.96-0.15,7.8-1.71c3.03-0.98,6.08-2.04,7.92-2.69c1.09-0.38,1.76-0.62,1.85-0.66
			c0.02-0.01,0.02-0.01,0.05-0.02l0,0.02c4.25,4.16,5.02,9.23,5.02,9.23s0.57,2-0.6,2.15c-1.03,0.13-3.43,0.15-3.43,0.15
			s-0.91,0.09-2.39,0.4c-1.47,0.3-2.42,1.88-2.63,2.97s-0.86,4.08,1.67,8.79c2.51,4.7,5.69,4.48,5.69,4.48
			c2.76-0.24,3.6-0.73,5.21-1.82c1.56-1.06,2.27-3.42,2.36-3.87c0.1-0.46,0.31-0.91,0.66-0.91c0.38,0,0.25,0,1.1-0.12
			c0.86-0.12,1.49,0.48,2.19,1.91c0.45,0.92,2.87,4.91,3.58,7.27c0.7,2.36,1.31,4.72,1.36,6.84c0.03,0.84,0.14,1.8,0.27,2.64
			l0.67,0.97c0,0,0,0,0,0.01l0,0.01l-0.69-1.01c-3.55,1.77-11.59,5.68-16.83,7.51c0,0-4.01,1.63-5.64,1.67c0,0-0.36,0.01-0.07-0.38
			c0.28-0.4,0.59-0.69,1.08-1.58c0.49-0.89,1.38-2.9,1.38-4.97c0-2.07-2.39-4.1-5.73-3.74c-3.33,0.36-6.52,1.28-10.37,2.76
			c-3.84,1.48-7.15,4.61-7.59,7.21c-0.44,2.6,2.37,4.11,2.37,4.11s3.17,1.61,3.58,2.47c0.41,0.87,0.11,1.68,0.11,1.68
			s-0.27,0.87-1.68,1.67c-1.38,0.8-5.17,2.75-5.17,2.75s-4.72,2.6-11.89,3.23c0,0-6.54,0.56-10.3,0.75c-0.04,0-0.09,0-0.13,0.01
			c0.16-4.81-0.42-8.56-1.42-11.35c-0.33-0.93-0.71-1.75-1.13-2.47c-1.72-3.02-4.53-4.62-5.91-5.3c-1.38-0.68-4.59-0.99-6.78-0.18
			c-2.19,0.8-2.65,1.45-3.45,2.83c-0.81,1.39-1.79,1.3-1.79,1.3s-2.93,0.06-3.97-4.32c-0.02-0.08-0.05-0.14-0.07-0.23
			c-0.14-0.67-0.23-1.27-0.3-1.85c-0.01-0.13-0.05-0.27-0.06-0.4c-0.04-0.39-0.04-0.7-0.06-1.05c-0.01-0.27-0.04-0.56-0.04-0.81
			c0.02-3.34,1.23-4.53,1.23-4.53s0.68-1.02,2.93-1.32c2.25-0.31,3.7,0.25,5.42,0.67c1.72,0.43,3.02,0.25,5.17-0.8
			c1.24-0.61,2.06-1.44,2.46-2.62C162.77,647.3,162.85,646.24,162.66,644.93z M198.79,581.26c1.52-0.39,4.44-1.36,5.06-1.6
			c0.61-0.23,3.78-1.29,6.06-1.68c2.31-0.41,4.39-0.33,5.14,0.08c0.12,0.11,0.62,0.59,0.83,1.04c0.28,0.62,1.08,2.14,2.47,2.85
			c1.16,0.58,2,0.92,4.58,0.69c3.65-0.92,4.07-2.96,3.69-3.65c-0.48-0.91-1.91-1.85-1.91-1.85s-1.92-1.23-2.34-1.81
			c-0.04-0.06-0.04-0.1-0.06-0.15c1.03-0.14,2.19-0.29,3.56-0.65c0.66-0.18,1.17-0.36,1.56-0.54l0.58,0.18
			c1.14,0.91,7.66,6.13,9.88,7.59c0.46,0.3,1.07,0.21,1.41-0.21l0.04-0.05c0.27,0.22,0.58,0.46,0.67,0.57c0,0,1.39-0.01,2.08,0.69
			c0.91,0.74,3.43,2.96,4.09,4.21l0.32,0.98c-0.18,0.35-0.15,0.77,0.08,1.1c0.08,0.12,2.03,2.88,4.5,5.58
			c0.25,0.34,2.31,3.11,3.45,4.31c-0.6,0.24-1.45,0.55-2.59,0.86c-2.38,0.64-4.68,1.71-4.68,1.71s-1.91,0.62-1.18,2.17
			c0.07,0.14,0.15,0.25,0.22,0.38c0.04,0.11,0.1,0.22,0.18,0.34c0,0,0.04,0.04,0.05,0.05c0.65,1.02,1.35,1.54,1.35,1.54
			s0.12,0.11,0.28,0.29c0.09,0.1,0.19,0.21,0.29,0.34c0.04,0.05,0.08,0.1,0.13,0.16c0.16,0.21,0.32,0.44,0.46,0.68
			c0.22,0.37,0.39,0.76,0.41,1.12c0.05,1.12-0.42,1.63-1.63,2.3c-1.2,0.67-2.3,0.8-2.3,0.8s-2.86,0.51-4.28-0.83
			c-1.42-1.34-1.68-3.56-1.68-3.56s-0.11-1.87-2.45-2.67c-2.36-0.8-5.25,0.91-5.25,0.91s-2.28,1.2-4.71,2.78
			c-2.43,1.58-7.04,3.5-9.92,4.52l-0.33,1.49v0c0,0,0,0,0,0l0,0l-0.01,0l0,0h0h0v0h0h0v0l0,0l0.15-0.73l0.16-0.76c0,0,0,0,0,0v0
			c-0.2-0.19-0.56-0.57-1-1.06c-1.1-1.22-2.77-3.16-4.29-4.99c-1.49-1.78-2.83-3.44-3.32-4.15c-1.21-1.73-1.39-2.12-1.6-2.7
			c-0.05-0.14-0.06-0.33-0.03-0.54c0.1-0.64,0.52-1.48,0.91-1.94c0.51-0.6,1.12-0.72,2.36-0.45c1.25,0.27,2.06,0.82,4.03,0.18
			c1.97-0.63,2.07-2.12,2.21-3.63c0.12-1.14-0.88-3.22-2-4.85c-0.37-0.55-0.76-1.04-1.12-1.42c-1.46-1.54-3.52-1.79-4.94-1.7
			c-1.42,0.09-2.24,1.12-3.07,1.58c-0.81,0.46-2.36,0.91-3.05,0.61c-0.35-0.15-0.79-0.31-1.29-0.68c-0.5-0.38-1.06-0.97-1.64-2.01
			c-0.78-1.37-1.44-2.62-1.87-3.45C197.89,581.5,198.32,581.38,198.79,581.26z M156.99,612.05c0.34-0.16,0.92-0.4,1.73-0.52
			l1.64-0.09c0.34,0.02,0.7,0.05,1.08,0.07l0.38,0.04c0.74,0.06,1.76,0.14,2.96-0.36c0.01,0,0.02,0,0.02-0.01
			c0.03-0.01,0.06-0.03,0.1-0.04c0.23-0.09,0.44-0.18,0.64-0.29c0.91-0.51,3.39-1.86,3.21-4.62c-0.17-2.76-2.37-6.04-4.17-7.16
			c-0.45-0.28-0.94-0.47-1.44-0.57c-1.49-0.31-3.07,0.13-4.04,0.85c-1.29,0.96-1.81,2.2-2.6,2.6c-0.78,0.38-1.89,1.26-3.06,1.01
			c-0.01,0-0.03,0-0.04,0c-1.18-0.28-1.24-2.93-1.75-5.92c-0.2-1.21-0.38-2.21-0.51-3.01c-0.06-0.34-0.11-0.63-0.15-0.89
			c1.39-0.21,3.7-0.64,6.67-1.51c4.95-1.45,6.65-2.61,6.83-2.74c0.23-0.16,0.33-0.42,0.38-0.68c0.51-0.33,0.98-0.66,1.35-1.01
			c0,0,1.34-0.63,0.05-1.88c0,0,0,0,0,0l0,0c-1.3-1.25-1.92-1.63-1.92-1.63s-0.22-0.12-0.32-0.38c-0.03-0.07-0.04-0.17-0.05-0.26
			c0.11-0.21,0.27-0.44,0.5-0.71c0.74-0.83,1.82-1.4,3.2-1.7c0.71-0.16,2.49-0.34,4.2-0.27c1.33,0.06,2.11,0.17,2.64,0.37
			c-0.07,0.78-0.19,1.85-0.16,2.18c0.02,0.33,0.06,1.07,0.82,1.77c0.15,0.43,0.43,0.84,0.92,1.04c0.33,0.2,1.67,0.8,5.44,0.42
			c0.07-0.01,1.63-0.29,4.07-1.01c5.83-1.74,9.1-2.7,9.7-2.86c0.05-0.01,0.12-0.04,0.17-0.05c0.3,0.59,0.79,1.52,1.63,2.94
			c1.93,3.32,5.3,4.61,6.75,4.45c1.27-0.13,3.46-0.73,4.3-1.66c0.85-0.94,1.7-0.82,1.7-0.82c1.84-0.12,2.3,1.43,3.81,3.61
			c1.52,2.18,0.58,3.88,0.58,3.88c-1,1.33-2.13,1.06-3.16,0.85c-0.77-0.16-0.86-0.25-1.75-0.42c-2.79-0.37-3.73,1.69-3.73,1.69
			c-2,3.09,0.37,5.33,0.37,5.33s5.28,7.08,9.3,11.44c-3.04,1.05-6.98,2.37-6.98,2.37s-5.37,1.98-8.9,2.47
			c-3.52,0.48-4.31-0.03-4.79-0.51c-0.49-0.48,0.08-2.16,0.08-2.16s1.44-2.94,0.75-4.47c-0.69-1.53-5.24-1.93-5.31-1.93
			c-0.09,0-4.96-0.57-9.52,1.99c-4.05,2.27-4.59,3.51-4.59,3.51s-1.29,2,0.24,3.99c1.72,2.25,4.01,2.45,4.01,2.45
			s2.19,0.17,2.69,0.81c0.51,0.64,0.16,1.34,0.16,1.34s-0.71,1.97-4.76,2.8c0,0-6.8,1.99-19.47,3.8
			c-2.53-9.13-2.69-14.89-2.69-14.89C155.99,613.31,156.2,612.56,156.99,612.05z M115.04,639.8c0,0,1.01,0.13,0.86,0.49
			c-0.14,0.29-0.9,0.88-0.9,0.88s-0.29,0.17-1.4,1.43c-1.11,1.25-1.43,2.47-1.49,3.55c-0.01,0.14,0.01,0.31,0.04,0.5
			c0.23,1.34,1.56,3.88,5.12,4.63c4.07,0.85,8.72-0.73,8.72-0.73s3.05-0.67,5.96-3.58c1.32-1.32,1.49-2.76,1.26-3.96
			c-0.29-1.54-1.24-2.7-1.24-2.7s-0.47-0.65-1.38-0.94c0,0-0.22-0.06-0.23-0.19c0-0.04,0.01-0.1,0.07-0.16
			c0.14-0.16,0.41-0.64,1.09-1.12c0.41-0.24,1.02-0.52,1.85-0.82c2.15-0.55,8.52-2.56,23.65-4.56l0.01-0.01
			c0,0.03,1.1,4.39,1.93,7.22c0.83,2.84,1.2,5.64,1.33,6.22c0.12,0.59,0.09,1.63-0.68,2.25c-0.77,0.62-2.65,1.14-3.05,1.2
			c-0.4,0.06-1.14-0.09-2.13-0.43c-0.99-0.34-1.97-0.4-1.97-0.4s-2.37-0.4-4.9,0.37c-2.53,0.77-4.44,3.35-4.59,6.59
			c-0.15,3.24-0.12,4.87,1.15,7.74c1.26,2.86,3.54,4.5,5.26,4.53c1.73,0.03,3.14-0.86,4.13-2.25c0.98-1.39,1.26-1.61,1.26-1.61
			c1.17-0.65,4.15-0.93,5.67-0.37c1.51,0.55,4.29,2.29,5.82,5.73c1.24,2.77,1.62,5.88,1.56,11.47l1.24,0.95l-0.01,0.01l-1.26-0.96
			c-3.51,0.29-7.57,0.77-7.57,0.77s-9.17,1.3-17.58,3.9c-7.13,2.19-8.49,3.4-8.49,3.4s-1.52,1.27-0.25,3.11c0,0,0.73,1.15,2.2,2.31
			c1.47,1.16,2.65,2.26,2.48,2.82c-0.17,0.57-0.62,0.82-0.62,0.82s-2.06,1.82-10.47,3.24c0,0-5.41,1.05-7.08-0.59
			c-1.66-1.64-0.93-2.74-0.93-2.74s0.11-0.37,1.32-1.13c0,0,2.03-1.28,1.38-3.69c-0.65-2.43-4.55-5.44-8.77-5.42
			c0,0-4.92,0.02-17.53,1.63c0,0-0.02,0-0.04,0.01c0-0.55-0.01-1.14-0.05-1.77c-0.2-3.55-0.45-9.02-0.93-12.21
			c-0.48-3.19-1.35-8.12-4.26-8.26c0,0-1.43-0.11-3.49,1.89c-1.89,1.83-3.6-1.51-3.69-3.56c-0.11-2.39,0.28-4.82,0.88-5.98
			c0.15-0.29,0.36-0.51,0.6-0.67c0.72-0.5,1.7-0.52,1.93-0.51c0.31,0.03,1.19,0.37,2.23,1.01c0.79,0.49,1.79,0.61,2.61,0.28
			c0.27-0.11,0.52-0.27,0.73-0.48c0.84-0.85,2.02-1.83,2.51-5.56c0.48-3.72,0.48-7.59,0.03-12.21l-0.01-0.02
			c0.82-0.15,1.9-0.34,3.12-0.52c1.36-0.21,2.9-0.42,4.52-0.57C107.56,639.59,112.82,639.52,115.04,639.8z M79.28,605.25
			c0.17-0.13,0.44-0.3,0.6-0.36c0.25-0.08,0.47-0.24,0.61-0.47c0.02-0.04,2.31-3.87,3.31-5.33c0.33-0.2,0.66-0.4,0.84-0.51
			c0.09,0.04,0.18,0.06,0.28,0.07c0.29,0.04,0.6-0.06,0.83-0.25c0.12-0.1,1.22-1.1,3.78-4.55c0.19-0.23,0.27-0.53,0.23-0.82
			c-0.02-0.2-0.1-0.38-0.22-0.53c0.06-0.27,0.17-0.64,0.25-0.82c0.02-0.02,0.04-0.04,0.05-0.06c0.04-0.04,3.66-4.31,6.56-6.76
			c0,0,0.37-0.26,0.93-0.33c0.1-0.01,0.2-0.04,0.29-0.08c0.14-0.06,3.35-1.42,7.27-4.85c0.16-0.14,0.29-0.37,0.34-0.58
			c0,0,0.13-0.49,0.83-1.42c0.57-0.75,1.84-1.6,3.07-2.1c-0.4,0.36-0.92,0.82-1.57,1.52c-0.66,0.7-0.88,1.13-0.82,1.35
			c0.05,0.22,0.37,0.23,0.8,0.08c0.22-0.07,0.49-0.18,0.82-0.32c0.01,0,0.02-0.01,0.04-0.01c0,0,0,0,0,0
			c0.83-0.36,2.04-0.94,3.76-1.82l0.07,0.1c0.31,0.46,0.92,0.61,1.41,0.34c0.01,0,0.76-0.41,1.91-0.86
			c-0.66,1.41-1.79,3.63-3.08,5.23c0,0-0.8,1.18-1.42,0.89c-0.62-0.29-1.34-0.31-1.95-0.18c-0.6,0.13-2.47,0.75-4.17,3.02
			c-1.69,2.28-1.89,3.98-0.98,4.49c0.91,0.51,2.23-0.16,3.03-0.87c0.59-0.53,1.06-0.84,1.36-0.96c0.1,0.21,0.25,0.37,0.44,0.47
			c0,0.14-0.02,0.28-0.04,0.36c-0.06,0.2-0.33,2.92-3.48,8.37c-0.79,1.37-1.81,3.4-2.29,4.37l0,0c0,0-0.01-0.01-0.01-0.01
			c-5.1,0.95-8.91,2.13-10.21,2.62c-1.3,0.49-1.33,0.18-1.33,0.18c-0.18-0.22-0.06-0.62,0.15-1.02c0.13-0.25,0.28-0.49,0.42-0.69
			c0.19-0.27,0.36-0.48,0.36-0.48s1.4-1.91,1.95-3.67c0.55-1.75-1.91-1.51-1.91-1.51c-1.62,0.26-2.79,1.03-4.13,2.64
			c-1.04,1.26-1.67,2.97-1.91,3.88c-0.15,0.57-0.41,1.1-0.41,1.1s-0.19,0.35-0.96,0.69c-0.89,0.39-2.63,0.85-2.63,0.85
			s-1.15,0.1-1.99-0.32c-0.28-0.14-0.83-0.09-1.27-0.02C79.17,605.3,79.23,605.28,79.28,605.25z M77.71,606.5
			c0,0,0.01-0.01,0.01-0.01l0.02-0.02c0,0-0.01,0.01-0.01,0.01h0l-0.36,0.54c0.13-0.2,0.25-0.38,0.36-0.54
			C77.72,606.49,77.72,606.49,77.71,606.5z M70.39,620.64c-0.01,0.05-0.02,0.06-0.03,0.1c-0.13,0.45-0.18,0.71-0.18,0.71
			c-0.01,0.21,0,0.35,0.02,0.46c0.04,0.13,0.1,0.21,0.22,0.2c0.08,0,0.27-0.29,0.33-0.15c0.03,0.09,0.02,0.34-0.08,0.9
			c-0.19,1-1.12,3.65-1.48,4.73c-0.36,1.08-0.77,1.82-1.06,1.77c-0.1-0.02-0.15-0.08-0.2-0.15c-0.08-0.15-0.09-0.34-0.09-0.34
			s-0.01-0.17-0.07-0.28c-0.05-0.1-0.14-0.16-0.29-0.03C68.35,625.88,69.32,623.24,70.39,620.64z M66.78,630.82l0.01-0.02
			c0,0,0.1-0.26,0.18-0.39c0.07-0.1,0.13-0.11,0.11,0.21c-0.03,0.71,0.42,0.77,0.42,0.77c0.29-0.04,0.59-0.37,0.91-0.89l0,0
			c0.01-0.01,0.02-0.03,0.03-0.05c0.13-0.21,0.25-0.46,0.39-0.74c0.03-0.07,0.07-0.16,0.1-0.24c0.1-0.22,0.21-0.46,0.31-0.71
			c0.04-0.11,0.09-0.23,0.14-0.34c0.1-0.24,0.19-0.5,0.29-0.77c0.05-0.13,0.1-0.26,0.14-0.39c0.08-0.23,0.16-0.47,0.24-0.72
			c0.05-0.16,0.11-0.31,0.16-0.48c0.04-0.13,0.08-0.25,0.12-0.38c0.09-0.29,0.18-0.58,0.27-0.86c0.06-0.21,0.12-0.41,0.17-0.61
			c0.06-0.21,0.11-0.41,0.17-0.61c0.05-0.19,0.1-0.37,0.14-0.55c0.08-0.32,0.15-0.62,0.21-0.89c0.04-0.15,0.06-0.27,0.09-0.41
			c0.04-0.17,0.07-0.33,0.1-0.47c0.01-0.05,0.03-0.12,0.04-0.17l0,0c0.08-0.43,0.13-0.73,0.13-0.8c0-0.23-0.12-0.41-0.33-0.29
			c-0.21,0.12-0.27,0.03-0.27,0.03c0-0.05,0.01-0.13,0.02-0.21c0-0.01,0-0.02,0.01-0.04c0.14-0.68,0.74-2.16,0.74-2.16
			c0.32-0.81,0.65-1.6,1-2.37c0.03-0.07,0.06-0.14,0.1-0.21c0.17-0.36,0.33-0.72,0.5-1.07c0.01-0.02,0.02-0.04,0.03-0.06
			c1.32-2.73,2.71-5.01,3.68-6.52c0.18-0.03,0.19-0.02,0.51-0.12c0,0,0.86-0.14,2.38,0.26c1.96,0.52,4.42-1.06,4.42-1.06
			s0.04-0.02,0.09-0.06c0.01,0,0.02-0.01,0.03-0.02c0.06-0.04,0.13-0.09,0.23-0.16c0.02-0.02,0.05-0.04,0.07-0.05
			c0.09-0.06,0.19-0.14,0.3-0.23c0.04-0.03,0.08-0.06,0.12-0.1c0.1-0.08,0.21-0.18,0.32-0.28c0.03-0.02,0.05-0.05,0.08-0.08
			c0,0-0.01,0.01-0.02,0.01c0.53-0.5,1.11-1.16,1.49-1.98l0.77-2.15c0,0,0.62-2.08,2.37-2.74c0,0,0.68-0.36,1.78-0.38
			c0.69,0,0.84,0.29,0.86,0.51c0.01,0.13-0.02,0.24-0.02,0.24s-0.12,0.5-1.26,1.95c-1.13,1.45-1.43,2.56-1.43,2.56
			s-0.38,0.87-0.12,1.52c0.09,0.22,0.25,0.41,0.52,0.53c0,0,0.51,0.3,2.01-0.2c1.5-0.5,6.46-1.8,9.49-2.27l0.02-0.01l-0.01,0.01
			c-0.57,1.62-1.29,4.16-1.01,5.58c0.43,2.16,2.47,2.16,2.47,2.16s0.46,0.02,1.13-0.13c0.04,0.02,0.07,0.06,0.11,0.08
			c0.37,0.12,1.08,0.14,2.33-0.5c0.1-0.05,0.18-0.06,0.27-0.09c0.73,0.68,0.94,2.69,0.94,3.11c0,0.57-0.01,3.69-2.18,5.22
			c0,0-0.87,0.67-2.1,0.67c-1.24,0-2.04-0.36-2.04-0.36s-2.1-0.58-3.4,0.18c-1.29,0.77-2.83,2.35-4.05,4.64
			c-1.22,2.29-2.24,6.38-2.18,9.4c0.04,2.37,0.38,4.62,0.62,6.16l1.41,0.92c0,0-0.01,0-0.01,0v0h0v0l-1.44-0.93
			c0,0-4.9,1.29-10.43,1.26c-3.89-0.02-3.78-2.06-3.29-3.4c0.07-0.19,0.14-0.36,0.22-0.52c0.02-0.04,0.04-0.08,0.06-0.12
			c0.07-0.13,0.14-0.26,0.19-0.34c0.06-0.1,0.1-0.17,0.1-0.17s1.36-2.39,1.61-3.77c0,0,0.48-3.73-3.04-3.49
			c-3.52,0.24-4.21,3.3-4.21,3.3s-0.24,1.71-0.19,2.98c0.04,1.27,0,3.95-1.59,5.47c-1.57,1.53-3.27,1.06-3.27,1.06
			s-2.85-1.25-3.41-1.54c-0.45-0.23-0.85-0.25-1.24-0.19C65.16,636.74,65.91,633.76,66.78,630.82z M63.51,674.41l-0.57-0.8
			c-0.43-3.94-0.65-7.95-0.65-11.92c0-6.19,0.53-12.38,1.56-18.41l0.48-1.08c0.05-0.1,0.07-0.21,0.08-0.31
			c0.46,0.09,0.87,0.3,0.87,0.3s2.43,1.31,3.51,1.53c1.09,0.23,1.87-0.14,2.58-0.62c0.15-0.1,0.3-0.25,0.45-0.38
			c0.13-0.11,0.25-0.2,0.38-0.32c0.1-0.1,0.19-0.22,0.29-0.32c0.17-0.18,0.34-0.36,0.51-0.56c-0.02,0.02-0.03,0.03-0.05,0.04
			c0.46-0.57,0.84-1.19,1.15-1.83c-0.02,0.06-0.04,0.11-0.07,0.19c0.13-0.26,0.24-0.51,0.33-0.76c0.06-0.16,0.11-0.36,0.15-0.58
			c0.02-0.07,0.03-0.15,0.04-0.23c0.03-0.12,0.05-0.23,0.07-0.36c-0.01,0.02-0.01,0.04-0.02,0.06c0.1-0.64,0.18-1.37,0.23-2.05
			c0,0.01,0,0.03,0,0.04c0.08-1.07,0.11-1.95,0.11-1.99l0.01,0.03v-0.01l0,0.01c0,0,0-0.9-0.02-1.11c-0.01-0.02-0.01-0.05-0.01-0.08
			c-0.04-0.3-0.1-1.13,0.44-1.58c0.59-0.5,0.98-0.74,2.45-0.78c1.45-0.04,1.9,0.81,1.9,0.81s0.49,0.69,0.5,1.14
			c0,0.44-0.14,0.72-0.14,0.72s-0.79,1.34-1.07,2c-0.28,0.65-1.36,2.83-1.05,4.65c0,0,0,0,0,0v0.01c0.32,1.82,3.16,2.67,3.16,2.67
			s2.27,0.53,5.51,0.06l6.67-1.07l1.16-1.33l0.01,0.02l-1.15,1.31c0.17,2.43,0.36,7.19,0.33,8.79c-0.04,1.95-0.33,6.07-2.38,7.04
			c0,0-0.69,0.36-1.86-0.51c-1.16-0.88-2.42-0.91-2.93-0.93c-0.51-0.02-2.75,0.35-3.62,2.8c-0.87,2.45-0.8,5.75-0.62,7.69
			c0.18,1.95,1.87,5.26,4,5.26c0,0,1.04,0.07,2.26-1.18c1.22-1.26,1.93-1.36,2.47-1.35c0.55,0.02,1.6,0.58,2.29,6.1
			c0.66,5.22,0.94,9.5,0.88,14.26l1.26,0.82c0,0,0,0,0,0.01c-0.01,0-0.01,0-0.02,0l-1.27-0.83c-0.69,0.08-1.53,0.16-2.38,0.23
			c-2.16,0.15-5.29-0.13-9.19-1.28c-3.76-1.12-6.14-3.12-6.62-4.41c-0.01-0.05-0.05-0.11-0.05-0.16c-0.06-0.21-0.08-0.42-0.09-0.65
			c-0.01-0.06,0-0.12-0.01-0.17c0.01-0.67,0.16-1.29,0.16-1.29s0.73-2.81,0.27-5.13c-0.05-0.26-0.11-0.51-0.17-0.76
			c-0.02-0.09-0.03-0.17-0.04-0.23c-0.02-0.05-0.04-0.12-0.05-0.18c-0.02-0.05-0.05-0.09-0.06-0.13c-0.51-1.71-1.36-3.11-3.16-4.2
			c-2.24-1.35-3.51-1.12-3.51-1.12s-2.01-0.31-1.93,3.1c0.08,3.4,0.5,4.82,0.5,4.82s0.39,1.2-0.23,1.35
			c-0.61,0.15-1.58-0.77-1.58-0.77s-0.44-0.4-1.03-0.98c-0.08-0.08-0.15-0.16-0.23-0.24c-0.4-0.4-0.85-0.87-1.28-1.34l0.2-0.49
			C63.76,675.09,63.72,674.71,63.51,674.41z M67.4,694.51c0-0.01,0-0.03,0.01-0.03c0.17-0.03,1.24,1.89,1.85,3.73
			c0.71,2.12,1.19,3.88,1.19,3.88s0.39,1.2,0.36,1.62C69.53,700.69,68.39,697.62,67.4,694.51z M77.92,717.66l-0.18-0.64
			c-0.06-0.23-0.21-0.43-0.4-0.57l-0.26-0.2c-2-3.4-3.78-6.89-5.38-10.45c0.01-0.02,0.01-0.06,0.01-0.09
			c0.02-0.06,0.03-0.14,0.04-0.24c0-0.07-0.01-0.15-0.01-0.24c-0.01-0.13-0.03-0.27-0.05-0.44c-0.01-0.05,0-0.08-0.02-0.14
			c0,0-0.01,0-0.01-0.01c-0.17-1.03-0.64-2.73-1.67-5.51c-1.12-3.02-1.83-4.64-2.29-5.52c0,0,0-0.01,0-0.01
			c-0.04-0.08-0.08-0.16-0.12-0.23c0,0,0,0.01,0,0.01c-0.38-0.7-0.54-0.81-0.59-0.87c-0.05-0.07-0.19-0.2-0.29-0.15
			c-1.4-4.72-2.45-9.55-3.19-14.47c0.17,0.2,0.36,0.41,0.57,0.65l0,0c0.37,0.42,0.81,0.89,1.34,1.43l0,0l0,0c0,0,0,0,0,0
			c2.32,2.4,3.05,0.89,3.05,0.89s0.04-0.11,0.08-0.31c0-0.02,0.01-0.05,0.01-0.07c0.02-0.09,0.03-0.18,0.05-0.3
			c0.01-0.04,0.01-0.09,0.02-0.14c0.01-0.12,0.03-0.24,0.04-0.38c0-0.02,0-0.04,0-0.06c0,0,0,0.01,0,0.01
			c0.01-0.29,0.01-0.62-0.01-1.01c0,0.01,0,0.02,0,0.03c0-0.01,0-0.03,0-0.04c-0.01-0.2-0.04-0.4-0.06-0.62
			c-0.01-0.12-0.02-0.23-0.04-0.35c-0.04-0.23-0.09-0.48-0.14-0.73c-0.02-0.1-0.03-0.18-0.05-0.28c0-0.01-0.01-0.02-0.01-0.03
			c-0.4-1.69-0.51-2.95-0.24-3.65c0.07-0.19,0.19-0.33,0.31-0.44c0.04-0.03,0.09-0.06,0.14-0.09c0.1-0.06,0.23-0.08,0.36-0.1
			c0.05,0,0.08-0.02,0.14-0.02c1.24,0.04,4.83,0.77,5.95,3.75c0,0,0.46,1.39,0.04,3.16c-0.43,1.78-0.35,3.36-0.04,4.91
			c0.31,1.55,1.62,3.01,3.13,4.22c1.51,1.2,5.87,3.28,10.12,3.55c4.25,0.27,5.56,0.05,5.56,0.05l1.58-1.63c0,0.01,0,0.02,0,0.03
			l-1.59,1.61c-0.09,0.42-0.19,0.89-0.31,1.34c-0.36,1.46-0.4,2.92-0.05,5.49c0.34,2.59,1.73,7.96,3.75,9.35
			c2.68,1.86,4.43,1.83,6.24,1.69c1.8-0.14,3.04-1.53,3.04-1.53s0.71-0.73,1.46-0.51c0.76,0.22,2.88,1.41,4.4,4.46
			c1.53,3.05,1.86,6.4-0.67,7c-2.54,0.58-6.91-1.81-6.91-1.81s-2.48-1.38-4.51,0.14c-2.03,1.53-2.09,3.86-1.07,6.74
			c0.56,1.58,1.67,4.14,3.23,6.82l1.51,0.63c0,0-0.01,0-0.01-0.01l-1.51-0.63c-2.44-0.48-6.93-1.43-8.71-2.32
			c-0.7-0.35-1.25-0.52-1.64-0.75c-0.19-0.11-0.35-0.23-0.46-0.38c-0.18-0.26-0.25-0.63-0.17-1.23c0.22-1.64-1.61-3.92-1.61-3.92
			s-2.54-2.75-4.83-4.46c-2.29-1.72-3.26-1.21-3.26-1.21s-1.03,0.55-0.1,2.77c0.93,2.22,1.84,3,1.84,3s0.44,0.47,0.19,0.6
			c-0.25,0.13-1.04-0.47-1.69-1.02c-0.3-0.25-1.51-1.37-2.73-2.51C78.8,719,78.34,718.35,77.92,717.66z M133.08,763.07
			c2.83,0.38,6.44,0.79,7.68,0.9l0.02-0.01c-0.01,0.19-0.09,0.4-0.2,0.66c-0.21,0.49,0.24,0.85,0.66,1.07
			C138.48,764.94,135.76,764.05,133.08,763.07z M142.07,763.39l-0.02-0.01l0.33,0.02c-0.26-0.23-0.59-0.45-0.96-0.67
			c-0.04-0.02-0.06-0.05-0.1-0.07c0.03,0.02,0.06,0.04,0.09,0.06c-0.12-0.07-0.22-0.14-0.35-0.21c-1.49-0.79-7.98-5.08-9.98-6.44
			c-1.34-0.9-3.34-2.21-4.99-2.84c-0.12-0.05-0.23-0.09-0.33-0.12c-0.68-0.23-1.28-0.33-1.72-0.19c-1.18,0.37-1.02,0.84-1.72,1.19
			c-0.53,0.25-1.08,0.19-2.05-0.24c-0.02-0.01-0.04-0.02-0.06-0.03c-0.32-0.14-0.69-0.33-1.11-0.55c-0.13-0.07-0.25-0.14-0.38-0.2
			c-0.21-0.11-0.41-0.22-0.61-0.33c-1.06-0.58-2.15-1.29-3.9-2.82c-0.15-0.14-0.3-0.26-0.47-0.42c-0.35-0.31-0.71-0.65-1.11-1.03
			c-2.66-2.53,3.41-0.25,3.41-0.25s1.32,0.56,0.73-0.82c-0.07-0.16-0.18-0.35-0.31-0.57c-0.07-0.12-0.16-0.25-0.24-0.38
			c-0.07-0.11-0.14-0.22-0.22-0.33c-0.12-0.17-0.25-0.35-0.38-0.52c-0.07-0.1-0.14-0.2-0.22-0.3c-0.15-0.2-0.31-0.4-0.47-0.61
			c-0.09-0.11-0.18-0.22-0.26-0.33c-0.17-0.21-0.34-0.42-0.51-0.63c-0.12-0.14-0.24-0.29-0.37-0.43c-0.16-0.19-0.31-0.37-0.48-0.56
			c-0.19-0.23-0.4-0.45-0.6-0.68c-0.1-0.12-0.2-0.23-0.3-0.34c-0.24-0.27-0.48-0.53-0.73-0.8c0.01,0.01,0.02,0.02,0.04,0.04
			c-0.44-0.49-0.9-0.97-1.34-1.43c-0.86-0.88-1.55-1.65-2.2-2.41c0.02,0.02,0.04,0.04,0.05,0.06c-1.12-1.3-2.04-2.54-3.05-4
			l-1.18-1.38c0.01,0.02,0.02,0.03,0.03,0.04l-0.05-0.05l-0.4,1.15c1.05,1.6,2.26,3.16,3.59,4.5c0,0,5.27,5.83,8.21,9.53
			c0,0,0.17,0.34-0.34,0.03c-0.51-0.31-2.71-1.33-3.89-1.21c-1.18,0.12-0.96,0.84-0.96,0.84s0.51,2.68,8.58,7.2
			c0,0,2.9,1.64,4.74,1.64c0,0,0.59,0.08,1.32-0.74c0.74-0.81,0.96-0.73,1.47-0.56c0.51,0.16,1.18,0.53,3.73,2.37
			c2.54,1.83,7.48,4.66,9.25,5.84c0.58,0.38,0.94,0.66,1.18,0.9c-3.63-0.29-7.6-0.76-9.7-1.06c-0.94-0.37-1.86-0.75-2.79-1.14
			c-0.44-0.27-0.96-0.59-1.47-0.89c-1.11-0.67-4.43-1.94-4.43-1.94s-0.34-0.13-0.82-0.31c-3.97-2.01-7.8-4.28-11.49-6.78
			c0.64,0.22,1.32,0.32,1.82,0.03c-0.12-1.21-1.5-2.19-2.29-2.79c-0.29-0.22-0.49-0.61-0.76-0.85c-1.01-0.89-2.2-1.76-3.3-2.54
			c-0.91-0.63-2.16-1.02-2.97-1.77c-0.02-0.18,0.26-0.63,0.09-1.1c-0.71-1.92-3.4-4.13-5.07-5.16c-0.78-0.48-2.08-0.7-2.79-1.19
			c-0.52-0.04-0.8-0.05-0.93,0.33c-0.21,0.47,0.45,1.11,0.67,1.44c0.58,0.81,1.25,1.76,2.03,2.36c0.59,0.45,1.26,0.84,1.77,1.36
			h0.25c-0.33-0.91-1.3-1.41-2.03-1.94c-0.67-0.49-0.96-1.35-1.53-1.94c0.05-0.27,0.07-0.25,0.17-0.42
			c2.34,0.02,3.86,2.17,4.91,3.56c0.47,0.62,1.22,0.98,1.27,2.03c-0.25,0-0.46,0-0.59-0.09h-0.25c0.4,1.11,1.76,1.02,2.71,1.61
			c1.9,1.17,3.43,3.01,5.07,4.48c0.56,0.5,1.54,1,1.69,1.87c-1.15-0.06-1.96-0.7-2.7-1.18c-0.09-0.06-0.2-0.14-0.29-0.2
			c-1.08-0.79-2.14-1.62-3.19-2.46c-0.32-0.31-0.61-0.61-0.83-0.9c-0.17-0.22-0.23-0.56-0.43-0.76c-0.23-0.24-0.56-0.31-0.76-0.59
			h-0.34c-0.01,0.15,0.04,0.29,0.08,0.43c-7.49-6.26-14.2-13.59-19.89-21.89c0.11,0.09,0.21,0.18,0.33,0.27
			c2.49,1.95,3.12,1.85,3.28,1.68c0.06-0.05,0.06-0.13,0.06-0.13s0.13-0.85-0.64-1.8c-0.21-0.25-0.46-0.61-0.7-0.98
			c-0.1-0.16-0.2-0.31-0.3-0.48c-0.29-0.5-0.55-1.02-0.67-1.45c-0.01-0.03-0.01-0.05-0.02-0.08c-0.03-0.12-0.05-0.23-0.06-0.33
			c0-0.11,0.01-0.2,0.04-0.29c0-0.01,0-0.04,0.01-0.05c0.31-0.71,0.66-0.65,0.66-0.65s0.29-0.12,1.27,0.63
			c0.99,0.75,3.21,2.31,4.3,3.65c1.08,1.32,1.03,2.48,1.03,2.51c0,0-0.01,0.08-0.01,0.21c-0.01,0.4,0.08,1.32,0.98,2.3
			c1.19,1.29,3.71,3.67,12.53,5.02c0.05,0.01,0.09,0.01,0.13,0.02l0.41-1.16l0.01,0.01l0-0.01l0.02,0.02c0,0,0-0.01-0.01-0.01
			l1.19,1.39c0.01,0,0.02,0,0.04,0c7.68,1.11,11.85,1.2,11.85,1.2s10.07,0.35,12.79,0.35c2.31,0,2.29,1.02,2.23,1.33
			c-0.01,0.05-0.02,0.07-0.02,0.07s-0.15,0.77-0.48,1.38c-0.21,0.38-0.59,1.43-0.65,2.47c-0.04,0.62,0.04,1.24,0.34,1.7
			c0,0,1.25,3.05,9.37,3.27c0,0,7.11,0.57,12.07-1.47c1.56-0.64,2.18-1.36,2.31-2.05c0.3-1.5-1.82-2.84-1.82-2.84
			s-1.7-1.03-2.42-1.58c-0.33-0.25-0.42-0.5-0.42-0.74c0-0.23,0.1-0.44,0.16-0.62c0.13-0.35,0.63-0.76,1.21-1.05
			c0.57-0.29,2.65-1.4,11.47-3.68c8.82-2.28,14.09-2.53,14.09-2.53s0.05-0.01,0.08-0.01c0.85,2.05,1.5,3.19,2.79,4.59
			c1.38,1.51,3.58,2.67,6.16,3.67c2.59,0.99,1.42,2.74,1.42,2.74c-1.48,3.21-5.88,3.33-7.17,3.48c-1.29,0.15-4,0.4-6.54,0.96
			c-2.53,0.56-4.9,0.89-6.32,2.53c-1.41,1.63-0.86,3.33-0.02,5.12c0.83,1.78,3.05,2.74,6.1,2.62c3.05-0.13,5.02-1.02,6.87-1.82
			c1.85-0.8,5.05-1.73,6.01-2c0.95-0.27,2.25-0.83,3.21,0.56c1.03,1.5,2.12,3.63,2.63,5.24l1.17-0.26c0,0,0,0.01,0,0.01
			c-0.21,0.05-0.39,0.09-0.55,0.12c-0.35,0.07-0.54,0.13-0.54,0.13s-2.59,0.62-6.9,2.29c-4.31,1.67-12.77,3.06-12.77,3.06
			s-2.75,0.32-4.52,0.76c0.21-0.07,0.38-0.1,0.38-0.1s2.05-0.42,4.1-0.69c0,0-5.44,0.63-5.94,1.34c-0.17,0.28-0.15,0.51-0.05,0.68
			c0.13,0.28,0.48,0.42,0.48,0.42s0.77,0.48,3.57,0.61c0,0,0.97,0,1.01,0.08c0,0,0,0.01,0,0.01c0.01,0.02,0.02,0.04,0.02,0.06
			c0,0.01-0.01,0.02-0.01,0.02c-0.02,0.03-0.06,0.07-0.15,0.11c-0.08,0.04-0.19,0.08-0.36,0.13c-0.61,0.19-1.82,0.67-5.94,1.19
			c-2.72,0.34-3.6,0.18-3.9,0.02c0,0,0,0,0,0c-0.17-0.08-0.16-0.17-0.16-0.17s0-0.04,0.01-0.11c0.02-0.08,0.06-0.19,0.15-0.34
			c0.05-0.07,0.07-0.16,0.07-0.25c0.01-0.28-0.21-0.63-0.7-0.9c0,0-0.16-0.11-0.58-0.23c0,0,0.04,0.01,0.07,0.04
			c-0.54-0.16-1.58-0.37-3.41-0.36c-3.01,0.02-9,0.04-14.61-0.3C142.32,763.41,142.19,763.4,142.07,763.39z M155.32,768.59
			c-1.86-0.25-3.71-0.55-5.55-0.89c1.11-0.06,1.87-0.11,2.82,0.09c1.35,0.28,2.74,0.62,2.87,0.74
			C155.51,768.56,155.43,768.59,155.32,768.59z M177.27,769.37c1.46-0.19,3.22-0.31,4.2-0.41c0.42-0.05,0.69-0.05,0.88-0.05
			C180.66,769.11,178.97,769.25,177.27,769.37z M184.95,768.59c-0.12-0.08-0.42-0.14-1.09-0.17c-0.61-0.03-1.24-0.02-1.87,0
			c-0.89,0-2.06,0.05-3.12,0.2c-0.74,0.1-1.47,0.23-2.12,0.34c-0.21,0.03-0.41,0.05-0.62,0.08c-1.38,0.2-2,0.38-2.28,0.5
			c-1.2,0.04-2.4,0.08-3.61,0.08c-4.31,0-8.57-0.28-12.78-0.77c0.13-0.13-0.17-0.3-0.37-0.4c-0.1-0.05-0.19-0.08-0.19-0.08
			s-0.19-0.09-0.57-0.22c0,0-0.01,0-0.01,0c-0.04-0.01-0.07-0.03-0.12-0.04c0.02,0,0.05,0.01,0.06,0.01
			c-0.21-0.07-0.5-0.15-0.83-0.24c-0.01,0-0.02,0-0.03-0.01c-0.25-0.06-0.52-0.13-0.83-0.2c-0.01,0-0.01,0-0.02,0
			c-0.64-0.14-1.41-0.28-2.34-0.4c0.03,0.01,0.06,0.01,0.09,0.02c-0.49-0.06-1.01-0.12-1.57-0.16c0,0-1.72-0.12-3.21,0.03
			c-0.06,0.01-0.13,0-0.19,0.01c0.01,0,0.02,0,0.03-0.01c-0.02,0-0.04,0-0.06,0c-1.11-0.23-2.21-0.48-3.31-0.76
			c-0.61-0.25-1.51-0.71-1.15-1.19c0.27-0.35,0.29-0.72,0.14-1.07c2.36,0.14,5.46,0.31,5.46,0.31s6.36,0.24,9.85-0.04
			c1.57-0.14,1.08,0.68,1.08,0.68s-0.46,0.76,0.44,1.13c0,0,1.65,0.94,7.15,0.34c5.5-0.61,6.71-1.84,6.71-1.84s0.64-0.59-0.75-0.85
			c-0.08-0.02-0.15-0.03-0.22-0.04c-0.03-0.01-0.07-0.03-0.09-0.03c-0.01,0-0.03,0-0.04-0.01c-0.02,0-0.03,0-0.05-0.01
			c-0.01,0-0.02,0-0.03,0c-0.01,0-0.03,0-0.05-0.01c-0.01,0-0.02,0-0.03,0c-0.01,0-0.02,0-0.04,0c-0.01,0-0.03-0.01-0.04-0.01
			c-0.01,0-0.03,0-0.04,0c-0.02-0.01-0.03-0.01-0.04-0.01c-0.01,0-0.03,0-0.03,0c-0.01,0-0.03,0-0.04,0c0-0.01-0.02-0.01-0.02-0.01
			c-0.02,0-0.03-0.01-0.05-0.01c-0.01,0-0.01,0-0.02,0c-0.02,0-0.05,0-0.06,0c0,0,0,0-0.01,0c-0.01,0-0.03,0-0.05,0
			c-0.01,0-0.01,0-0.02,0c-0.01,0-0.03,0-0.04,0c-0.01,0-0.02,0-0.02,0c-0.02,0-0.03,0-0.04,0c0,0-0.01,0-0.02,0
			c-0.02,0-0.03-0.01-0.04-0.01s-0.02,0-0.02,0c-0.02,0-0.03,0-0.04,0s-0.01,0-0.02,0c-0.08-0.01-0.17-0.01-0.27-0.02
			c0,0-0.01,0-0.01,0c-0.02,0-0.03,0-0.05,0c0,0-0.02,0-0.03,0c-0.01,0-0.03,0-0.05,0c-0.01-0.01-0.02-0.01-0.03-0.01
			c-0.01,0-0.03,0-0.04,0c-0.01,0-0.03,0-0.04,0c-0.01,0-0.02,0-0.04,0c-0.02,0-0.04,0-0.06-0.01c-0.01,0-0.03,0-0.04,0
			c-0.02,0-0.04,0-0.06,0c-0.01,0-0.02,0-0.03,0c-0.02,0-0.04,0-0.05,0c-0.01,0-0.03,0-0.04,0c-0.02,0-0.04,0-0.06-0.01
			c-0.01,0-0.03,0-0.04,0c-0.02,0-0.04-0.01-0.06-0.01c-0.01,0-0.04,0-0.05-0.01c-0.02,0-0.04-0.01-0.06-0.01c-0.02,0-0.03,0-0.05,0
			c-0.02,0-0.05,0-0.07-0.01c-0.01,0-0.03,0-0.04,0c-0.04-0.01-0.08-0.01-0.12-0.01c-0.3-0.04-0.58-0.07-0.81-0.12l-0.34-0.04
			c-0.52-0.15-0.61-0.33,0-0.49c0.94-0.24,2.51-0.38,2.51-0.38s4.81-0.67,8.69-1.67c0,0,4.15-0.98,8.26-2.43
			c1.62-0.57,2.98-0.98,4.04-1.28l0.93-1.37c0,0,0,0.01,0,0.01l-0.92,1.35c0.21,1.4-0.23,1.87-0.55,2.39
			c-0.33,0.56-1.26,1.27-0.8,2.54c0.46,1.26,3.61,0.86,5.42,0.31c1.82-0.56,3.35-1.05,4.56-1.48c1.2-0.42,1.54,0.18,1.54,0.18
			s0.52,0.38-1.23,1.3c-0.39,0.2-0.85,0.38-1.35,0.54c-0.07,0.02-0.12,0.04-0.19,0.06c-0.39,0.12-0.8,0.22-1.21,0.32
			c-0.11,0.02-0.22,0.05-0.33,0.07c-0.34,0.07-0.69,0.14-1.02,0.2c-0.14,0.03-0.27,0.05-0.42,0.07c-0.28,0.05-0.55,0.08-0.8,0.12
			c-0.15,0.02-0.3,0.04-0.44,0.06c-0.28,0.04-0.56,0.07-0.78,0.1c-0.19,0.03-0.34,0.04-0.48,0.05c-0.08,0.01-0.16,0.01-0.23,0.02
			c-0.05,0-0.1,0.01-0.14,0.01c-0.09,0.01-0.18,0.01-0.25,0.02c-0.06,0-0.12,0.01-0.17,0.02c-0.03,0-0.05,0.01-0.08,0.01
			c-0.07,0.01-0.15,0.02-0.24,0.04c-0.02,0-0.03,0-0.04,0.01c-0.34,0.07-0.82,0.22-1.74,0.54c-2.31,0.8-0.15,1.51-0.15,1.51
			c1.16,0.3,2.24,0.47,3.24,0.57C191.61,767.5,188.3,768.13,184.95,768.59z M229.08,751.88c-0.04,0.05-0.09,0.09-0.14,0.14
			c-9.69,6.33-20.41,11.16-31.82,14.14c-1.02-0.08-1.74-0.22-2.11-0.27c-0.92-0.13-1.66-0.31-1.88-0.77
			c-0.03-0.06-0.03-0.1-0.02-0.15c0.1-0.3,1.04-0.28,1.04-0.28h0c0,0,0.2-0.02,0.51-0.06c0.93-0.13,3.02-0.45,5.21-1.06
			c0.4-0.11,0.8-0.23,1.2-0.36c3.33-1.08,4.13-2.1,4-2.86c-0.02-0.12-0.08-0.21-0.17-0.28c-0.03-0.03-0.06-0.05-0.1-0.07
			c-0.07-0.05-0.16-0.08-0.25-0.12c-0.05-0.01-0.1-0.03-0.15-0.04c-0.14-0.03-0.29-0.04-0.45-0.05c-0.03,0-0.05-0.01-0.08-0.01
			c-0.19,0-0.41,0.02-0.64,0.05c-0.04,0-0.06,0-0.1,0c0.02,0,0.04,0,0.05,0c-0.57,0.07-1.23,0.23-1.93,0.45
			c-2,0.65-4.99,1.6-5.69,1.76c-0.17,0.04-0.35,0.06-0.52,0.08c0.02,0,0.03,0,0.04-0.01c-0.26,0.02-0.5,0-0.71-0.05
			c-0.03-0.01-0.06-0.02-0.09-0.03c-0.2-0.06-0.36-0.15-0.45-0.3c0,0,0,0,0,0c-0.24-0.44-0.46-1.14,0.31-1.94
			c0.77-0.8,0.86-1.48,0.86-1.48c0.08-0.35,0.09-0.72,0.08-1.09c0-0.09-0.01-0.19-0.02-0.28c-0.01-0.11,0-0.22-0.02-0.34
			c0.13-0.03,0.21-0.04,0.21-0.04s4.93-1.15,7-1.5c2.07-0.36,6.75-1.36,8.74-2.32c1.99-0.96,2.98-1.72,3.21-2.3
			c0.23-0.58-0.84-0.92-0.84-0.92s-1.26-0.3-1.08-0.73c0.16-0.44,0.63-0.82,2.59-1.7c1.96-0.88,4.42-1.83,6.9-2.45
			c2.47-0.6,1.56,0.42,1.56,0.42s-1.48,1.51-1.68,2.1c-0.18,0.58,0.06,0.61,0.26,0.71c0.19,0.1,1.38,0.05,2.19-0.15
			c0.82-0.21,7.4-2.72,11.42-5.02c0.1-0.05,0.2-0.12,0.3-0.17l0.84-1.39l0,0c0,0,0,0,0,0.01c-0.05,0.07-0.07,0.13-0.11,0.2
			c-1.2,1.94-1.7,3.05-1.7,3.05s-0.61,1.17-0.67,1.85c-0.05,0.67-0.54,0.58-0.54,0.58s-1.03-0.05-2.5,0.58
			c-0.04,0.02-0.07,0.03-0.13,0.04c0,0-0.06,0.03-0.16,0.08c-0.48,0.23-1,0.54-1.54,0.94c-0.1,0.07-0.19,0.13-0.3,0.2
			c-0.06,0.05-0.13,0.09-0.18,0.14c-1.57,1.29-2.66,2.39-3.28,3.07c-0.03,0.04-0.05,0.07-0.08,0.11c-0.33,0.36-0.5,0.58-0.5,0.58
			s-0.91,1.21-0.03,1.21c0.87,0,2.93-1.06,3.72-1.76C229.47,751.3,229.08,751.88,229.08,751.88z M247.98,735.89
			c-1.38,1.53-2.07,2.16-2.07,2.16s-0.24,0.24-0.5,0.55l-0.03,0.03c0,0.01-0.01,0.03-0.02,0.03h0c-0.17,0.21-0.33,0.43-0.43,0.63
			c-4.51,4.33-9.37,8.27-14.56,11.78c0.1-0.17,0.15-0.31,0.08-0.37h0c0,0,0-0.01,0-0.01c-0.27-0.22-1.34,0.55-1.34,0.55
			s-0.15,0.13-0.4,0.3l0.01,0c-0.3,0.21-0.71,0.49-1.13,0.71c-0.12,0.05-0.23,0.11-0.35,0.15c-0.07,0.03-0.14,0.05-0.21,0.07
			c-0.15,0.05-0.31,0.08-0.43,0.07c-0.85-0.07,1.03-1.85,1.03-1.85s1.09-1.22,2.41-1.98c0.44-0.25,0.91-0.45,1.37-0.53
			c1.84-0.33,2.19-0.79,3.09-1.48c0.31-0.23,0.52-0.48,0.75-0.82c0.45-0.68,0.93-1.75,2.17-4c0.07-0.13,0.14-0.25,0.21-0.38h0
			c2.36-1.32,3.2-1.73,3.76-2.06c2.53-1.5,5.54-3.34,6.33-3.96C247.73,735.48,249.36,734.37,247.98,735.89z M263.25,716.2
			c0.65-1.41,1.18-2.92,1.83-4.38c0.64-1.46,1.57-2.89,1.52-4.99c-0.1-0.1-0.18-0.22-0.25-0.34h-0.51
			c-0.51,0.44-1.22,0.63-1.78,1.02c-0.86,0.61-1.62,1.41-2.45,2.03c-0.38,0.29-0.93,0.54-1.18,0.93c-0.42,0.64-0.34,1.72-0.85,2.28
			v0.34c0.67-0.24,0.99-1.03,1.53-1.44c0.66-0.5,1.2-1.15,1.86-1.61c0.41-0.29,0.88-0.44,1.27-0.76c0.27,0.05,0.25,0.08,0.42,0.17
			c-0.04,2.15-1.17,3.67-1.86,5.25c-0.2,0.46-0.26,1.18-0.59,1.52c-0.16,0.16-0.49,0.2-0.67,0.33c-0.57,0.62-1.13,1.24-1.7,1.87
			c-0.54,0.73-0.78,1.72-1.35,2.45c0,0.24,0,0.46,0.08,0.59c0.09,0.06,0.23,0.13,0.34,0.17c0.93-0.88,1.82-1.65,2.63-2.62
			c-3.67,5.77-7.87,11.16-12.52,16.13c0.1-0.12,0.19-0.24,0.28-0.36c0.05-0.06,0.07-0.1,0.11-0.15c0.65-0.9,0.2-0.86,0.2-0.86
			s-0.14-0.02-0.55,0.14c-0.06,0.02-0.12,0.05-0.2,0.08c-0.04,0.02-0.05,0.02-0.1,0.04v0c-0.31,0.15-0.71,0.37-1.27,0.72
			c-1.71,1.09-2.92,1.84-2.92,1.84s-3.68,2.1-6.02,3.47c-0.02,0.01-0.05,0.03-0.07,0.04c0-0.01,0.01-0.01,0.01-0.02
			c0.02-0.01,0.05-0.03,0.06-0.04c-0.02,0.01-0.05,0.02-0.06,0.04c1.68-2.62,3.67-4.91,5.18-6.6c1.84-2.05,4.06-5.39,4.06-5.39
			s1.37-2.36,1.42-3.44c0.01-0.15-0.01-0.29-0.06-0.38c-0.03-0.04-0.1-0.04-0.14-0.06c-0.05-0.03-0.09-0.07-0.16-0.07
			c-0.51-0.08-1.61,0.48-3.31,1.74c-1.53,1.15-2.77,1.93-3.8,2.47c-0.05,0.02-0.09,0.03-0.13,0.05c0.05-0.02,0.09-0.04,0.13-0.06
			c-0.59,0.27-1.18,0.47-1.71,0.52c-1.37,0.15-1.86-0.67-1.99-1.55c-0.07-0.53-0.03-1.08,0.03-1.45c0.15-1,0.67-3.3,2.27-4.22
			c1.61-0.91,3.85-0.88,5.42-1.1c1.58-0.21,2.3-0.66,2.3-0.66s2.57-1.63,4.27-4.39c1.7-2.76,3.21-7.21,3.39-11.63
			c0-0.05,0-0.09,0-0.14c0.02-0.43,0-0.84-0.02-1.23c-0.01-0.14-0.03-0.28-0.04-0.42c-0.03-0.29-0.07-0.57-0.11-0.83
			c-0.02-0.12-0.04-0.23-0.06-0.34c-0.07-0.33-0.15-0.64-0.25-0.93l0.01,0c4.23-3.36,8.27-7.64,8.27-7.64s2.69-2.7,4.04-5.04
			c0.1-0.18,0.18-0.3,0.25-0.4c0.02-0.03,0.05-0.06,0.06-0.08c0.06-0.07,0.11-0.12,0.14-0.14c0,0,0.01-0.01,0.02-0.01
			c0.04-0.02,0.06,0,0.08,0.04c0,0.01,0.01,0.02,0.01,0.04c0.01,0.04,0.02,0.1,0.01,0.17c0,0.01,0,0.03,0,0.04c0,0,0,0.02,0,0.02
			s-1.1,3.08-0.71,4.61c0,0.01,0,0.02,0,0.04c0-0.01-0.01-0.02-0.01-0.03c0,0.03,0.01,0.06,0.01,0.09c0.02,0.31,0.06,0.61,0.13,0.9
			c0.02,0.09,0.05,0.17,0.07,0.25c0.09,0.3,0.21,0.58,0.4,0.79c0,0.01,0,0.01,0,0.02c0.04,0.04,0.09,0.04,0.13,0.06
			c0.95,0.65,3.22-1.76,3.22-1.76s1.47-1.69,2.06-4.41c0.55-2.5,0.56-3.76,0.5-4.34c-0.04-0.36-0.1-0.47-0.1-0.47
			s-0.53-0.83-0.2-1.82c0.03-0.08,0.08-0.23,0.13-0.35c0.54-1.47,2.37-6.01,3.96-8.01C276.05,688.36,270.98,703.16,263.25,716.2z
			 M261.28,717.92c-0.11,0.84-0.75,1.59-1.36,1.95v0.08h-0.09c0.15-1.02,0.92-1.3,1.27-2.03H261.28z M267.71,688.63
			c-0.09,0.34-0.16,0.6-0.16,0.6s-0.01,0.05-0.02,0.11c0.01-0.04,0.02-0.11,0.02-0.11S267.62,688.97,267.71,688.63z M277.99,668.48
			l-0.52,0.87c-0.17,0.29-0.2,0.64-0.07,0.95l0.23,0.57c-0.01,0.02-0.02,0.03-0.03,0.05c0,0-0.01,0.01-0.01,0.01
			c-0.03,0.05-0.06,0.11-0.1,0.15c-0.39,0.61-0.87,1.39-1.46,2.37c-2.71,4.46-3.14,8.06-3.14,8.06s-0.25,1.4-0.11,2.21
			c0.03,0.16,0.06,0.3,0.1,0.42c0,0.01,0.01,0.02,0.01,0.04c0.04,0.13,0.08,0.23,0.12,0.33c0,0,0,0.01,0,0.02c0,0,0,0,0,0
			c0.05,0.12,0.09,0.23,0.13,0.32c0,0.02,0.01,0.03,0.01,0.04c0.02,0.06,0.04,0.12,0.04,0.16c0.01,0.1-0.03,0.54-0.15,1.13
			c-0.02,0.11-0.05,0.23-0.08,0.35c-0.03,0.1-0.05,0.21-0.08,0.32c-0.06,0.23-0.14,0.48-0.23,0.74c-0.03,0.08-0.06,0.17-0.1,0.26
			c-0.11,0.29-0.23,0.58-0.39,0.88c-0.02,0.04-0.04,0.08-0.05,0.12c-0.94,1.74-1.74,2.2-1.74,2.2s-1.61,1.16-1.84,0.34
			c-0.22-0.83-0.16-1.54-0.08-2.07c0.08-0.53,0.62-3.38,0.54-4.43c-0.07-1.06-1.02-0.21-1.02-0.21s-0.22,0.25-0.64,0.78
			c-0.42,0.53-2.75,3.5-3.65,4.54c-2.11,2.47-4.04,4.25-9.17,8.41c-0.02,0.01-0.04,0.02-0.04,0.03c-0.02-0.02-0.03-0.04-0.04-0.06
			c-0.2-0.32-0.39-0.59-0.57-0.82c-0.23-0.29-0.43-0.53-0.56-0.71c-0.61-0.78-1.71-0.43-3.06-3.7c-1.35-3.25-1.66-6.02-1.63-7.94
			c0-0.27,0.01-0.52,0.03-0.76c0.13-1.9,0.58-2.63,1.46-3.45c0.88-0.82,4.76-0.45,4.76-0.45s1.9,0.39,3.61-2.43
			c1.26-2.1,1.51-5.18,1.34-7.57c-0.06-0.83-0.17-1.57-0.32-2.17c-0.54-2.3-1.33-4.31-4.49-4.64c-3.15-0.33-4.57,3.55-4.57,3.55
			s-0.64,1.48-1.3,2.33c-0.67,0.84-2.48,0.61-2.48,0.61c-0.79-0.1-1.75,0.21-2.71-1.73c-0.93-1.94-3.08-7.03-3.08-7.03
			c-0.73-1.73-1.19-3.23-1.47-4.4l-1.55-0.63l0-0.01l1.55,0.63c2.18-1.2,5.91-3.38,8.58-5.63c4-3.36,7.91-6.9,8.91-7.78
			c0.99-0.89,1.91-1.61,2.79-1.57c0.88,0.05,1.57,0.68,2.12,3.06c0.55,2.39,0.66,4.36,0.91,5.52c0.25,1.16,0.61,2.51,1.99,2.79
			c1.38,0.27,3.24-0.93,3.93-1.53c0.18-0.15,0.4-0.39,0.61-0.7c0.01-0.02,0.02-0.04,0.04-0.05c0.1-0.14,0.19-0.28,0.28-0.44
			c0.53-0.93,1.01-2.29,0.96-3.91c0,0,0.14-3.43-1.63-6.69c0,0-0.75-1.31-1.02-1.67c-0.19-0.25-0.33-0.51-0.02-1.12
			c0.08-0.15,0.18-0.33,0.31-0.54c0.39-0.61,1-1.38,1.95-1.92c0.96-0.55,1.88-0.68,2.41-0.85c0,0,0.59-0.14,1.34-0.55l0-0.01
			c0,0,0,0,0.01,0c0.01,0.02,0.02,0.04,0.02,0.06c1.13,3.51,2.42,9.34,2.42,9.34s0.4,1.72,0.44,2.51c0.05,0.79-0.13,0.81-0.49,0.4
			c-0.35-0.42-0.7-0.15-0.7-0.15s-0.37,0.15-0.37,1.65s0.18,5.02,0.46,7.73c0.33,3.22,1.32,4.56,1.32,4.56s0.88,1.32,1.13-1.23
			c0.01-0.1,0.02-0.15,0.03-0.23c0.04,1.17,0.11,2.35,0.11,3.53C278.2,663.9,278.13,666.19,277.99,668.48z"/>
		<path class="st11" d="M111.34,740.54c0.12,0.13,0.23,0.25,0.34,0.38c-0.02-0.02-0.03-0.04-0.03-0.04L111.34,740.54z"/>
		<path class="st11" d="M94.46,640.15L94.46,640.15L94.46,640.15z"/>
		<polygon class="st11" points="178.13,726.98 178.14,726.98 178.13,726.98 		"/>
		<path class="st11" d="M225.07,722.83c-2.47-0.61-4.54,0.61-7.11,0.42c-0.24-0.26-0.43-0.41-0.59-0.76
			c-1.79,0.05-3.76,4.03-1.95,5.24c0.97,0.66,3.73,0.28,4.91,0c0.66-0.15,1.68-0.3,2.2,0.08c0.71,0.53,0.59,2.53,0.34,3.64
			c-0.28,2.09-0.57,4.17-0.85,6.27c-0.25,1.26-0.51,2.53-0.76,3.8c1.3-0.01,2.52-1.34,2.88-2.29c0.21-0.55,0.1-1.07,0.25-1.69
			c0.45-1.78,0.51-3.89,0.93-5.75c0.27-1.2,0.09-2.35,0.33-3.47c0.19-0.84,0.31-3.62,0.09-4.4
			C225.62,723.5,225.29,723.16,225.07,722.83z"/>
		<path class="st11" d="M105.19,580.7v-0.17h-0.34c-0.4,0.29-1.44,0.47-1.94,0.76c0.07,0.29,0.04,0.22,0.25,0.34
			c-0.3,0.82-1.28,1.44-1.78,2.12c-0.79,1.07-1.68,2.07-2.45,3.13c-0.26,0.35-0.44,0.9-0.76,1.18c-0.51,0.44-1.95,0.4-2.54,0.84
			h-0.17c0.12-0.71,1.94-2.98,2.45-3.47v-0.08c-0.87,0.12-1.55,0.58-2.12,1.01c0.1,0.19,0.08,0.16,0.26,0.26
			c-0.31,0.51-0.77,0.89-1.1,1.35c-0.42,0.59-0.65,1.29-1.1,1.86c0.03,0.08,0.06,0.17,0.08,0.25c0.54-0.05,2.79-0.76,3.13-1.01h0.25
			c-0.34,1.03-1.69,2.44-2.28,3.38c-0.33,0.53-0.54,1.22-1.01,1.61c0.08,0.09-0.01,0,0.08,0.08c0.19,0.11,1.74-0.3,2.03-0.5
			c0.18,0.03,0.16,0.02,0.25,0.08c0.09,0.15-1.03,2.12-1.27,2.37v0.09c0.42-0.05,1.07-0.12,1.35-0.34c0.82-0.64,1.01-2,1.61-2.88
			c-0.03-0.14-0.05-0.28-0.09-0.42c-0.47-0.08-1.45,0.04-1.86,0.34h-0.08c0.2-1.01,1.86-2.88,2.45-3.73
			c0.97-1.38,1.88-2.71,2.87-4.06c0.52-0.71,1.25-1.33,1.78-2.03C103.75,582.28,104.37,581.24,105.19,580.7z"/>
		<path class="st11" d="M128.62,722.32c-0.13,0.29-0.11,0.76-0.25,1.1c-0.73,1.8-0.97,2.17,0.17,3.89c0.51,0,0.57-0.08,0.85-0.25
			C129.72,725.65,129.77,722.98,128.62,722.32z"/>
		<path class="st11" d="M132.18,720.8c-0.35-0.58-1.05-0.73-1.53-1.18c-0.15-0.05-0.08-0.02-0.17-0.08
			c1.09-0.57,2.25-1.19,3.39-1.69c0.31,0.34,1.71,1.7,2.2,1.44c0.08-0.03,0.17-0.05,0.25-0.08c-0.03-0.48-0.05-0.96-0.08-1.44
			c-1.07-1.07-2.64-1.95-4.4-2.28v0.08h-0.08c0.2,0.59,0.85,1.14,1.36,1.44v0.25c-1,0.14-1.89,0.63-2.79,0.94
			c-0.62,0.2-1.36,0.17-1.87,0.5h-0.25c0.37-1.02,1.58-1.86,2.2-2.71c1.23-1.66,2.21-3.69,4.15-4.65c-0.05-0.78-2.3-2.39-3.13-1.86
			c-0.21,0.11-0.06-0.04-0.17,0.16c-0.13,0.31,0.29,0.69,0.17,1.19c-0.16,0.65-1.77,3.72-2.2,4.06v0.09
			c-0.87-0.3-1.53-1.12-2.37-1.53c0.15-0.78,0.8-1.38,1.18-1.95c0.97-1.46,1.75-2.85,3.22-3.81c-0.01-1.13-1.83-2.3-3.05-2.28
			c0,0.52,0.27,0.81,0.17,1.26c-0.3,1.38-0.93,2.77-1.44,3.98c-0.33,0.78-0.48,1.71-1.02,2.28c-0.11,0.06-1.05-0.01-1.27-0.16
			c-0.32,0-0.64,0.01-0.84,0.08v0.17c1.43,1.38,2.96,1.85,4.91,2.71c-0.27,1.4-1.68,2.33-2.37,3.39c-0.36,0-0.64-0.02-0.84-0.17
			c-0.2,0.04-0.21,0.05-0.34,0.09c0.04,1.24,1.07,2.3,2.11,2.54c0.7-0.78,1.58-1.16,2.62-1.6c0.96,1,1.24,2.43,1.61,4.05
			c0.16,0.71-0.1,1.49,0.08,2.11c0.33,1.1,0.91,1.43,1.44,2.2h0.6c0.37-1.99-0.54-3.92-1.01-5.5
			C132.46,722.15,132.32,721.48,132.18,720.8z"/>
		<path class="st11" d="M153.49,758.1c0.64,0.23,1.16,0.86,1.78,1.18c1.63,0.85,4.32,1.55,6.77,1.02c1.2-0.27,2.45-0.27,2.79-1.36
			c0.38-0.6-0.15-1.43-0.33-1.76c-0.79-1.41-1.83-2.33-3.13-3.22c-4.31-2.94-10.66-5.93-18.02-5.75c-0.36,0.23-1.07,0.05-1.52,0.17
			c-0.61,0.16-0.99,0.48-1.44,0.76c-0.02,2.08,3.09,3.2,4.82,3.63c1.03,0.26,1.94-0.23,2.54-0.42c0.46-1.76-1.66-2.01-2.62-2.88
			h-0.17v-0.08c6.49-0.25,11.35,1.56,15.06,4.32c0.93,0.69,1.99,1.67,2.45,2.79c0.17,0.42,0.25,1.1,0,1.44
			c-0.34,0.94-1.47,0.86-2.54,1.1c-2.48,0.57-5.89-0.84-7.03-1.95c-0.23,0.4,0.1,1.03-0.25,1.44c-0.38,1.02-1.68,0.76-2.88,1.01
			c-1.96,0.42-5.03-0.58-6.17-1.35c-0.32-0.23-0.55-0.61-0.85-0.85c-0.02-0.22-0.04-0.29-0.09-0.42c0.17-0.15,0.38-0.4,0.5-0.59
			c2.44-0.18,3.68-0.06,5.08,1.27c-0.04,0.16-0.02,0.15-0.09,0.24c-0.15,0.33-0.52,0.36-1.01,0.34v0.15
			c0.89,0.01,1.27-0.13,1.78-0.42c0.03-0.17,0.06-0.34,0.08-0.51c-0.29-0.3-0.5-0.7-0.85-0.94c-1.39-0.91-4.26-1.37-5.83-0.33
			c-0.25,1.2,0.5,1.85,1.18,2.36c1.38,1.05,2.55,1.65,4.49,2.2c0.62,0.17,1.18,0.02,1.86,0.16c0.6,0.14,1.64,0.17,2.28,0
			c1.08-0.27,2.58-1.41,1.35-2.71L153.49,758.1L153.49,758.1z M145.71,750.07c0.3,0.21,0.47,0.62,0.76,0.85
			c-0.01,0.21-0.01,0.32-0.08,0.42c-0.55,1.49-3.65,0.39-4.4-0.17c-0.23-0.17-0.33-0.53-0.51-0.76c0.03-0.17,0.02-0.16,0.09-0.25
			c0.23-0.65,0.89-0.43,1.44-0.76C144.07,749.41,145.04,749.62,145.71,750.07z"/>
		<path class="st11" d="M175.49,766.82c0.03-0.08,0.05-0.16,0.08-0.25c-2.09-0.08-4.18-0.17-6.26-0.25
			c-0.26,0.17-0.67,0.07-1.01,0.17c-0.43,0.13-0.91,0.32-1.27,0.51c0.05,0.14,0.02,0.08,0.08,0.17c0.51,0.4,3.47,0.42,4.06,0h0.17
			V767c-0.89-0.28-2.53,0.43-3.21,0h-0.09v-0.09c2.25-0.15,4.76-0.09,7.11-0.08c-0.23,0.15-0.7,0.11-0.93,0.25
			c-0.08,0.03-0.17,0.06-0.25,0.08v0.17c0.51,0.08,1.01,0.16,1.52,0.25c0.08,0.09-0.01,0.01,0.08,0.08c-0.75,0.5-2.68,0.3-3.38-0.08
			v-0.17c-0.38-0.17-2.12,0.18-2.45,0.25c-0.28,0.06-0.58-0.03-0.76,0.08c-0.35,0.02-0.39,0.06-0.59,0.17
			c0.05,0.27,0.07,0.25,0.17,0.42c0.54,0.13,1.49,0.14,2.11,0.33v-0.08h0.09v-0.08c-0.32-0.12-1.2-0.05-1.53-0.24h-0.17
			c0.28-0.23,3.05-0.6,3.56-0.25c0.14,0.05,0.08,0.02,0.17,0.08c-0.45,0.08-0.91,0.17-1.36,0.25c0.05,0.14,0.02,0.08,0.09,0.17
			c0.14,0.1,0.41,0.1,0.67,0.08c-0.08,0.16-0.12,0.23-0.25,0.34c0.03,0.05,0.06,0.11,0.09,0.17c1.2,0,2.2-0.13,3.21-0.33
			c0.6-0.13,1.34,0.11,1.78-0.17h0.68v-0.17c-1.15,0-4.03-0.12-4.74,0.34h-0.25c0.07-0.09-0.01-0.01,0.08-0.09
			c0.33-0.38,1.01-0.19,1.61-0.33c0.94-0.22,2.5-0.61,3.3,0c0.22,0.14,0.08-0.02,0.08,0.25c0.23,0,0.39,0,0.51-0.07h0.59v-0.17
			c-0.76-0.19-1.9-0.53-2.54-0.93C175.97,767.19,176.13,766.88,175.49,766.82z"/>
		<path class="st11" d="M267.37,700.92c-0.31,0.28-0.75,0.35-1.1,0.59c-1.07,0.77-2.19,2.05-2.96,3.12
			c-0.61,0.86-1.14,1.8-1.69,2.71c-0.24,0.4-0.29,0.86-0.59,1.18v0.17c0.74-0.13,1.17-0.61,1.69-0.93c1.41-0.88,2.67-1.67,3.97-2.62
			c0.63-0.46,1.1-1.18,1.78-1.61c0.06-1.01,0.27-1.81-0.17-2.54C268.03,700.95,267.73,700.92,267.37,700.92z M266.35,703.96
			c-0.51,0.38-1,0.9-1.52,1.27c-0.44,0.31-0.98,0.48-1.35,0.85h-0.08c0.28-0.88,1.75-2.37,2.45-2.87c0.36-0.27,0.82-0.34,1.19-0.6
			h0.33c0.08,0.1,0.07,0.09,0.17,0.17C267.46,703.42,266.77,703.65,266.35,703.96z"/>
		<path class="st11" d="M224.22,750.92h-0.85c-0.56,0.45-1.48,0.51-2.12,0.85c-0.57,0.3-1.24,0.71-1.77,1.1
			c-0.44,0.32-0.7,0.89-1.11,1.26c0.01,0.42,0.02,0.49,0.34,0.59c0.08,0.06,0.02,0.04,0.16,0.08c0.09-0.1,0.17-0.13,0.26-0.26
			c0.07-0.05-0.06-0.22-0.08-0.5c0.82-0.82,1.43-1.28,2.62-1.78c0.31-0.13,0.96-0.5,1.36-0.25h0.17c-0.05,0.84-1.96,3.4-2.54,3.81
			v0.24c1.56-0.4,2.6-3.51,3.64-4.65c-0.03-0.19-0.02-0.24-0.08-0.34L224.22,750.92z"/>
		<path class="st11" d="M265.68,664.96c0.18,0.47,0.54,1.24,0.93,1.53c0.18,0.13,0.28,0.08,0.42,0.25c2.8,0.24,3.94-4.58,2.8-7.36
			c-0.21-0.48-1.11-1.89-1.95-1.35h-0.17c0.06-0.15,0.02-0.08,0.09-0.17c0-0.4-0.05-0.53-0.16-0.76c-0.17-0.03-0.33-0.05-0.51-0.08
			c-0.08,0.06-0.02,0.03-0.17,0.08c0.06,0.51,0.23,0.53,0.25,1.1C265.84,659.44,264.68,662.43,265.68,664.96z M266.6,660.48
			c0.19-0.46,0.57-0.75,0.85-1.1c0.17-0.03,0.16-0.02,0.25-0.09c0.64,0,0.82,0.13,1.19,0.34c0.64,1.52,0.74,4.17-0.33,5.33
			c-0.16,0.18-0.49,0.25-0.67,0.42C266.11,665.25,265.96,662.02,266.6,660.48z"/>
		<path class="st11" d="M272.61,664.45v-1.35c-0.21-0.97-0.13-2.26-0.33-3.21c-0.4-1.89-0.05-4.12-0.76-5.67
			c-0.42-0.1-0.84-0.18-1.43-0.17c-0.22,0.23-0.38,0.34-0.34,0.6c0.18,0.77,1.17,0.92,1.44,1.69c0.03,0.37,0.05,0.73,0.08,1.1
			c0.29,1.2,0.24,2.75,0.51,3.98v1.01c0.14,0.62,0.34,2.21,0.17,2.71c-0.3,0.88-1.25,1.67-1.85,2.28c-1.61,1.61-3.5,3.67-6.35,3.97
			c-0.05,0.15-0.02,0.08-0.09,0.17c0.05,1.06,1.02,0.85,1.7,1.27c0.17-0.03,0.34-0.06,0.5-0.09c0.26-0.16,0.41-0.52,0.59-0.76
			c0.43-0.56,1.21-0.86,1.61-1.44h0.08c0,2.58,0.06,5.47,0.09,7.95h0.25c0.58-2.51,0.54-5.58,0.51-8.64
			c1.11-1.04,1.82-2.54,2.96-3.55v-0.17h0.09c0.01,2.68,0.08,5.41,0.08,8.12c0,0.87-0.22,2.95,0,3.3v0.51h0.17
			c0.23-0.91,0.28-2.19,0.51-3.21v-1.44c0.25-1.14,0.25-3.34,0-4.49C272.48,667.52,272.9,665.78,272.61,664.45z"/>
		<path class="st11" d="M217.45,757.18c-0.5,0.45-1.72,0.49-2.28,0.93h-0.09c0.22-0.32,0.62-0.46,0.85-0.76
			c0.16-0.23,0.23-0.49,0.42-0.68c-0.04-0.17-0.02-0.16-0.08-0.25v-0.17c-2.47-0.45-6.59,1.68-7.87,2.8
			c-0.33,0.29-0.53,0.72-0.85,1.02c0.01,0.23,0.03,0.36,0.08,0.5c1.5,0.1,4.31-0.82,4.65-2.03c0.06-0.05,0.03,0,0-0.08v-0.17
			c-1.03-0.06-2.4,0.16-3.04,0.76h-0.08c0.56-0.84,2.62-1.59,3.72-1.95c0.37-0.11,1.18-0.32,1.53-0.08
			c0.08,0.03,0.16,0.05,0.25,0.08c-0.2,0.85-1.41,1.79-2.2,2.03v0.17c1.3-0.3,2.49-0.89,3.63-1.35c0.79-0.32,1.68-0.4,2.37-0.85
			c0.49-0.32,2.16-2.58,2.28-3.21C218.79,754.19,218.63,756.12,217.45,757.18z M210.77,758.87v0.25c-0.16,0.1-0.27,0.33-0.42,0.42
			c-0.44,0.26-1.02,0.23-1.44,0.51c-0.19-0.02-0.23-0.02-0.33-0.09h-0.08C208.71,759.25,210.11,758.92,210.77,758.87z"/>
		<path class="st11" d="M227.36,693.8c-0.95-0.59-1.08-3.58-1.44-4.9c-0.7-2.6-1.03-5.32-1.78-7.95c-0.48-1.69-1.12-3.43-0.93-5.5
			c0.3-0.3,0.5-0.69,0.85-0.93c0.48-0.33,1.24-0.49,1.61-0.93c0.06-0.11-0.04-0.27-0.09-0.51c-0.98,0.16-1.88,0.75-2.71,1.1
			c-1.7,0.72-3.36,1.15-5.08,1.86c-0.54,0.22-1.1,0.6-1.78,0.67v0.51c0.06,0.03,0.12,0.05,0.17,0.08c0.09,0.1,2.21-0.84,2.88-0.25
			c0.76,0.27,0.66,1.26,1.1,1.86c-0.13,1.31-1.44,3.33-1.95,4.49c-1.24,2.83-2.5,5.54-3.88,8.2c-0.53,1.02-1.16,2.85-1.86,3.64v0.08
			c-0.46-0.63-0.42-2.25-0.67-3.12c-0.76-2.64-1.24-5.54-2.03-8.12c-0.14-0.49-0.65-2.74-0.33-3.21c0.11-1.17,1.76-1.68,2.71-2.03
			c-0.02-0.2-0.05-0.4-0.08-0.6c-1.5,0.23-3.05,1.03-4.4,1.53c-1.27,0.48-2.44,0.67-3.72,1.1c-0.64,0.22-1.36,0.59-2.11,0.67v0.09
			h-0.09c0.04,0.24,0.05,0.37,0.17,0.51c0.35,0.23,2.2-0.75,2.96-0.16c1.19,0.4,1.22,2.3,1.61,3.55c1.03,3.38,1.55,7.12,2.54,10.58
			c0.24,0.87,0.84,3.6,0.25,4.32c-0.31,0.94-1.89,1.32-2.79,1.69c0.03,0.17,0.05,0.34,0.08,0.51c1.3-0.19,2.48-0.79,3.65-1.19
			c2.27-0.76,4.42-1.39,6.61-2.2c-0.04-0.2-0.06-0.4-0.09-0.59c-0.93,0.25-1.65,0.53-2.96,0.51c-0.17-0.15-0.33-0.29-0.5-0.43
			c-0.14-0.45-0.29-0.9-0.43-1.35c0.09-1.07,1.46-3.04,1.95-3.98c1.44-2.76,2.7-5.56,3.97-8.46c0.49-1.11,1.61-2.73,1.78-3.97
			c0.4,0.23,0.28,0.94,0.42,1.44c0.29,1.01,0.45,2.1,0.76,3.21c0.6,2.14,0.84,4.43,1.44,6.68c0.22,0.83,0.56,2.24,0.17,3.13
			c-0.38,0.86-1.8,1.44-2.71,1.77c0.04,0.18,0.08,0.39,0.17,0.51c0.01,0.02,1.93-0.62,2.27-0.76c2.36-1,4.78-2.05,7.19-2.96
			c-0.03-0.2-0.05-0.4-0.08-0.59C229.55,693.53,228.18,694.31,227.36,693.8z"/>
		<path class="st11" d="M188.26,599.31c0.4,0.2,0.4,0.71,0.6,1.1c0.4,0.79,0.93,1.75,1.18,2.62v0.68c0.2,0.54,0.85,0.61,1.27,0.93
			c0.33-0.05,0.46-0.13,0.67-0.25c-0.14-1.61-1.12-2.94-1.69-4.23c-0.17-0.4-0.44-0.97-0.51-1.35c-0.05-0.23,0.14-0.36,0-0.59
			c-0.11-0.26-0.15-0.18-0.33-0.34c-0.13-0.08-0.07-0.04,0-0.17c0.14-0.31,0.45-0.61,0.59-0.93c0.28-0.67,0.27-1.23,0.85-1.61
			c-0.08-0.88-1.36-0.98-2.37-0.93c-0.13,0.09-0.33,0.14-0.51,0.16c0.11,0.22,0.17,0.27,0.43,0.34c0.24,2.48-1.5,4.76-2.63,6.26
			c-0.44,0.6-1.19,0.98-1.6,1.61h-0.08v0.08C185.24,602.51,187.69,600.18,188.26,599.31z"/>
		<path class="st11" d="M171.43,600.5c0.42,0.14,0.85,0.28,1.28,0.42c0.34,0,0.7,0,0.92-0.08c-0.02-1.4-0.78-1.95-1.27-2.88
			c-0.24-0.47-0.38-1.12-0.76-1.44c0.15-0.51,1.55-0.66,2.11-0.84c1.37-0.45,2.93-0.9,4.32-1.35c0.65-0.21,1.42-0.17,1.95-0.5
			c0.31,0.03,0.47,0.06,0.6,0.25c0.3,0.46,0.55,3.57,0.33,4.49c-0.86,3.56-1.92,6.33-4.14,8.46v0.08c0.82-0.13,1.21-0.93,1.77-1.35
			c2.25-1.7,3.77-4.22,4.57-7.36c0.47-1.85-0.3-3.66,0.42-5.24h-0.08c-0.16-0.4-2.31-1.18-2.97-1.19c-0.35,0.38-0.85,0.89-1.35,1.1
			c-0.77,0.33-1.8,0.23-2.45,0.67c-0.61-0.05-1.08-1.22-0.67-1.69c-0.02-0.19-0.02-0.24-0.08-0.34c-0.51-0.41-1.81-0.36-2.71-0.34
			c-0.29,0.27-0.54,0.32-0.68,0.77h-0.08c-0.05,0.16,0.04,0.11,0.08,0.17c0.05,0.04,0.35-0.01,0.51,0.09
			c0.96,0.1,0.94,1.21,1.44,1.78c-0.05,0.15-0.02,0.09-0.09,0.17c-0.33,0.26-2.78,0.97-3.3,1.1c-0.4,0.1-0.88-0.15-1.18-0.17
			c-0.72-0.06-1.35,0.34-1.78,0.59c0.23,0.34,0.93,0.25,1.19,0.59C170.22,597.63,170.62,599.17,171.43,600.5z"/>
		<path class="st11" d="M179.21,636.19c1.7,0.51,2.91,2.43,3.88,3.72c0.43,0.57,1.1,1.03,1.53,1.61c1.82,2.41,3.86,4.59,5.67,7.03
			c0.7,0.94,1.65,1.76,2.28,2.79c0.38-0.01,0.46-0.05,0.68-0.17c0.46-1.99,0.71-3.99,1.27-6.01c0.25-0.92,0.57-2.01,0.67-3.04
			c0.7,0.25,1.27,1.3,1.7,1.86c1.32,1.76,3.19,3.21,4.4,5.07c0.35-0.02,0.39-0.06,0.59-0.17c0.38-2.87,0.74-5.75,1.11-8.62v-0.85
			c0.38-1.71,0.29-3.77,0.67-5.5c0.51-2.33-0.22-4.59,2.12-5.16c0.04-0.23,0.12-0.31,0-0.51c-0.05-0.14-0.02-0.08-0.09-0.17
			c-0.09-0.06-0.08-0.05-0.25-0.08c-0.65,0.48-2.42,0.8-3.3,1.01c-0.67,0.16-1.36,0.02-1.86,0.34c-0.08,0.03-0.17,0.06-0.25,0.08
			c0.03,0.17,0.05,0.34,0.09,0.51c0.96,0.32,1.85-0.06,2.28,0.76c0.27,0.54,0.23,2.47,0.08,3.22c-0.54,2.49-0.32,5.33-0.85,7.78
			c-0.19,0.85,0.05,2.5-0.33,3.13V645c-0.51-0.24-0.85-0.91-1.18-1.35c-0.76-1-1.87-1.8-2.63-2.79c-0.45-0.6-0.93-1.32-1.52-1.78
			c0.08-1.63,0.55-3.34,0.94-4.82c0.28-1.12,0.29-2.15,0.84-2.97c0.32-0.46,1.08-0.76,1.61-1.01c0-0.21-0.01-0.31-0.08-0.42
			c-0.03-0.08-0.05-0.17-0.08-0.25c-1.16,0.17-2.15,0.73-3.22,1.01c-0.97,0.26-1.95,0.2-2.71,0.59c0.02,0.2,0.02,0.24,0.09,0.34
			c0.03,0.08,0.05,0.17,0.08,0.25c2.97-0.17,2.52,1.45,1.95,3.73c-0.18,0.7-0.06,1.66-0.42,2.2v0.17h-0.09
			c-0.61-0.92-1.53-1.82-2.28-2.62c-0.31-0.28-0.62-0.56-0.93-0.84c-0.23-0.29-0.34-0.67-0.6-0.93c0.05-0.93,0.82-1.17,1.53-1.44
			c-0.03-0.39-0.11-0.44-0.25-0.68c-2.21,0.32-4.12,1.56-6.6,1.69v0.09h-0.08c0.01,0.21,0.01,0.31,0.08,0.42v0.17
			c0.48,0.08,1.21-0.11,1.78,0.08c0.91,0.32,1.73,1.39,2.28,2.12c0.83,1.1,2.13,2.03,2.96,3.13c0.44,0.59,0.93,1.35,1.53,1.78
			c-0.08,1.49-0.49,3.05-0.85,4.4c-0.19,0.69-0.07,1.57-0.42,2.11c-0.05,0.15-0.02,0.08-0.09,0.17c-0.81-1.54-2.37-2.7-3.39-4.06
			c-1.96-2.61-4.14-4.96-6.18-7.53c0-0.36,0.02-0.57,0.17-0.76c0.16-0.49,0.77-0.95,1.35-1.02c0.04-0.26,0.07-0.29-0.08-0.51
			c-0.04-0.08-0.06-0.17-0.09-0.25c-1.72,0.26-3.25,1.06-4.9,1.53c-0.86,0.24-1.99,0.12-2.63,0.59c-0.09,0.03-0.17,0.06-0.25,0.08
			c0.05,0.33,0.13,0.38,0.25,0.59C177.85,636.18,178.56,635.99,179.21,636.19z"/>
		<path class="st11" d="M259.32,627.23c-0.19,2.94-2.71,3.87-5.41,2.71c-1.93-0.82-3.46-2.65-4.66-4.23
			c-0.4-0.53-1.03-0.98-1.44-1.53c-0.38-0.51-0.65-1.08-1.1-1.53v-0.08h-0.17c0.23,0.91,0.76,1.74,1.1,2.54
			c1.43,3.29,3.25,5.59,6.01,7.53c1.3,0.92,3.47,2.36,5.33,1.02c3.26-2.35,1.68-11.1,0.34-14.38c-0.35-0.86-0.63-1.54-1.02-2.28
			c-0.64-1.23-1.31-3.02-3.13-3.04c-0.45,0.38-0.93,0.69-1.19,1.26c-1.66,3.77,1.75,8.01,3.3,10.07
			C257.84,626.01,258.49,626.81,259.32,627.23z M255.95,618.01h0.42c0.83,0.86,1.6,1.68,2.12,2.87c0.28,0.64,0.33,1.72,0.67,2.29
			c-0.05,0.15-0.01,0.08-0.08,0.17c-0.22,0.22-1.15-0.89-1.35-1.1C256.78,621.29,254.88,619.63,255.95,618.01z"/>
		<path class="st11" d="M87.76,618.77c1.32-1.36,4.11-4.75,4.06-7.28c-0.14-0.13-0.25-0.35-0.34-0.51c-0.53-0.13-1.2-0.18-1.95-0.17
			c-0.19,0.69-0.59,1.27-0.84,1.86c-0.57,1.31-1.09,2.62-1.61,3.9c-0.44,1.06-0.71,2.77-1.35,3.63v0.17
			C86.62,620.22,87.22,619.32,87.76,618.77z M88.1,616.07c0.5-1.2,0.85-2.39,1.44-3.47c0.33,0,0.57,0.03,0.76,0.17
			c0.2,0.11,0.06-0.04,0.17,0.17c0.17,0.42-0.38,1.09-0.59,1.43c-0.39,0.64-0.6,1.27-1.02,1.86c-0.38,0.55-0.98,0.97-1.35,1.52
			h-0.09C87.53,617.12,87.87,616.59,88.1,616.07z"/>
		<path class="st11" d="M79.97,620.46h1.18c0.2-0.25,0.39-0.51,0.59-0.76c0.71-0.75,1.64-1.5,2.2-2.37h0.25v1.18
			c-0.65,0.58-1.65,1.49-1.95,2.37v0.67c-0.43,1.88,0.48,2.84,2.12,2.71c1.07-0.99,2.83-1.81,2.62-3.8
			c-0.09-0.07-0.01,0.01-0.09-0.08c-0.17,0.04-0.16,0.02-0.25,0.08c-0.61,0.32-1.65,3.05-2.88,2.28c-0.62,0-0.68-0.12-1.02-0.34
			c0.04-0.8,1.41-2.27,1.95-2.62c0.07-1.29,0.4-2.68,0.25-3.89c-0.09-0.03-0.17-0.06-0.25-0.08c-0.3-0.1-0.53,0.36-0.76,0.59
			c-0.62,0.62-1.38,1.27-1.86,2.03c-0.72-0.01-3.02-0.03-3.47,0.25h-0.25c0.21-0.55,1.84-2.35,1.35-3.13
			c-0.03-0.09-0.05-0.17-0.09-0.25c-1.54,0-3.4,2.75-3.89,3.89c-0.25,0.57-0.25,1.23-0.59,1.69v0.09c1.15-0.14,2.31-0.28,3.47-0.43
			C79.06,620.44,79.66,620.65,79.97,620.46z M77.1,618.86h-0.51c0.23-0.93,1.15-2,2.28-2.03v0.42c-0.4,0.51-0.79,1.01-1.18,1.53
			C77.45,618.77,77.23,618.77,77.1,618.86z"/>
		<path class="st11" d="M121.34,675.71v0.08c0.14,0.19,0.13,0.57,0.25,0.76c-0.05,0.14-0.02,0.08-0.08,0.17
			c-0.35,0.23-0.86,0.13-1.35,0.25c-1.01,0.25-4.25,1.04-4.99,0.34c-0.48-0.15-0.79-0.78-0.85-1.35c-0.21,0.01-0.31,0.01-0.42,0.08
			h-0.17c0.31,1.64,0.62,3.27,0.93,4.91h0.09v0.09c2.96-0.51,5.92-1.02,8.89-1.53c-0.42-1.56-0.84-3.1-1.27-4.66
			c-0.24-0.36-1-0.31-1.44-0.5c-0.74-0.31-1.66-0.99-2.11-1.61c-1.36-1.87-2.86-6.31-1.86-9.65c0.81-2.71,2.57-4.55,5.41-5.25
			c1.44-0.34,2.99,0.14,3.89,0.6c2.58,1.33,3.69,3.22,4.48,6.34c1.03,4.04-0.28,7.74-2.96,8.97c0.17,1.63,0.34,3.27,0.51,4.91
			c0.95-0.03,1.82-0.23,2.63-0.42c1.34-0.33,2.72-0.38,3.97-0.67c0.92-0.22,2.25-0.04,2.96-0.51c0.17-0.36-0.53-2.89-0.68-3.47
			c-0.12-0.49-0.02-0.99-0.25-1.35v-0.17c-0.2,0.03-0.4,0.05-0.59,0.08c0.04,2.56-1.78,2.2-3.81,2.71
			c-1.01,0.25-2.24,0.58-3.38,0.59c0-0.36,0-0.73,0-1.1c0.1-0.18,1.58-0.82,1.85-1.02c0.99-0.68,1.99-1.76,2.63-2.79
			c0.43-0.7,0.78-1.64,1.01-2.46c0.29-1.05,0.33-2.5,0.09-3.55c-0.17-0.72-0.1-1.29-0.34-1.95c-0.91-2.54-2.83-4.39-5.24-5.41
			c-1.1-0.46-2.34-0.48-3.64-0.76c-1.15-0.25-3.23,0.26-4.06,0.51c-4.07,1.2-6.84,3.17-8.12,7.11c-0.51,1.56-0.35,3.71,0.08,5.16
			C114.39,672.53,117.18,675.65,121.34,675.71z"/>
		<path class="st11" d="M133.44,721.22c-0.17,0.73,1.63,2.37,2.2,2.8c0.28,0.21,0.67,0.7,1.1,0.5c0.22-0.02,0.29-0.04,0.42-0.08
			c0.1-0.23,0.25-0.51,0.08-0.76C137.2,722.61,134.45,721.43,133.44,721.22z"/>
		<path class="st11" d="M153.08,725.28c0.09-0.04,0.17-0.05,0.25-0.09c-0.04-1.11-2.16-1.57-3.3-1.26c-0.51,0.14-1.1,0.46-1.61,0.59
			c-0.4,0.03-0.79,0.06-1.19,0.08c-0.13-1.38-0.81-2.45-0.84-3.89c1.27-0.03,2.87-0.19,3.72-0.68c-0.02-0.42-0.1-0.42-0.25-0.67
			c-0.97-0.23-2.63-0.27-3.39,0.25c-0.21-0.01-0.31-0.01-0.42-0.08c-0.47-0.6-0.25-1.82-0.68-2.45v-0.34
			c0.91-0.2,2.4-0.36,2.87-1.02c0.07-0.09,0.03-0.02,0.08-0.16c-0.08-0.08-0.11-0.15-0.17-0.25c-1.32-0.33-1.9-0.1-3.04,0.34
			c-0.36-1.15,0.07-2.05-1.1-2.37c0.25-0.44,1.08-0.42,1.61-0.59c0.82-0.27,1.75-0.63,2.45-1.01c0.06-0.15,0.02-0.09,0.09-0.17
			c-0.05-0.43-0.17-0.42-0.34-0.68c-1.22-0.09-2.19,0.02-2.88,0.68h-0.16c0.1-0.63,0.5-1.54,0.84-2.03c0.24-0.35,0.68-0.3,0.85-0.76
			h0.08v-0.09c-0.17-0.22-0.34-0.45-0.51-0.67c-0.4-0.28-0.97-0.31-1.35-0.6c-0.56-0.01-1.1-0.01-1.44,0.17
			c0.05,0.33,0.19,0.53,0.25,0.76c0.23,0.88-0.61,3.57-0.93,3.97c-0.26,0.33-3.31,1.44-4.14,1.19c-0.2-0.06-0.77-0.35-0.93-0.51
			c-0.07-0.08-0.03-0.02-0.08-0.16c1.2-1.13,2.06-3.64,3.72-4.14c0.03-0.14,0.06-0.28,0.09-0.42c-0.42-0.43-2.43-2.54-3.47-1.87
			c-0.08,0.03-0.17,0.05-0.25,0.08c0,0.72,0.36,1.27,0.17,2.03c-0.39,1.52-1.26,3.33-2.03,4.57c-0.47,0.75-1.48,1.56-1.52,2.63
			c1.38-0.14,1.72-1.56,2.79-1.95c0.31,0.29,0.62,0.57,0.93,0.85c0.44,0.66,0.36,1.66,0.59,2.54c0.4,1.83,0.79,3.67,1.18,5.5
			c0.05,0.91,0.11,1.81,0.17,2.71c0.23,0.81,0.9,2.24,1.77,2.43c0.14,0.07,0.26,0.05,0.42-0.08c0.3-0.24,0.14-0.67,0.34-1.01
			c0.47-0.34,1.31-0.25,1.95-0.42c1.73-0.46,3.75-0.42,5.67-0.85C150.85,725.16,152.36,725.7,153.08,725.28z M139.36,714.29
			c0.14-0.23,2.38-0.59,2.63-0.42c0.9,0.42,0.58,1.74,1.1,2.54c-0.18,0.42-2.24,1.04-2.88,1.1
			C140.1,716.61,139.95,714.77,139.36,714.29z M140.47,718.43c0.65-0.06,2.32-0.61,2.79-0.93h0.08c0.16,0.77,0.25,2.09,0.68,2.71
			c-0.31,0.74-2.17,0.68-2.88,1.1C140.85,721.14,140.46,719.01,140.47,718.43z M141.99,725.54c-0.18-1.21-0.75-2.27-0.76-3.55
			c1.3-0.03,1.97-0.55,3.04-0.68c0.07,0.79,0.55,3.01,0.93,3.55c0,0.05,0,0.12,0,0.17C144.18,725.25,143.12,725.54,141.99,725.54z"
			/>
		<path class="st11" d="M72.69,663.35c0.18,0.05,0.3,0.08,0.42,0.17c1.67-0.11,2.01-1.45,2.87-2.37c0.73,1.75,0.18,4.82-1.44,5.25
			c-0.69,0.48-1.72-0.14-2.11-0.51c-1.38-1.28-1.68-3.23-2.2-5.41c-0.18-0.73,0.07-2.23-0.25-2.8c0.01-0.86,0.2-2.42-0.26-2.87
			v-0.08l-0.17,0c-0.03,5.27-0.31,13.4,3.81,14.56c1.49,0.41,2.32-0.58,2.79-1.27c1.68-2.5,1.21-7.37-0.42-9.47
			c-0.73,0.07-1.77,1.8-2.11,2.37c-0.17-0.03-0.16-0.02-0.25-0.08c-0.2-0.09-0.18-0.14-0.34-0.25c-0.13-2,0.27-3.86,0.34-5.75
			c2.23,0.22,4.15,1.49,6.43,1.61c0-0.4,0-0.93,0.16-1.18c-0.02-0.2-0.02-0.24-0.08-0.34c-0.31-0.25-2.03-0.65-2.54-0.67v-0.08
			h-0.08c0.31-2.51-0.4-4.45-2.12-5.16c-0.96-0.17-1.92-0.34-2.88-0.51c-0.49-0.18-0.73-0.57-1.1-0.84
			c-0.13-0.81-0.28-1.72,0.34-2.2c-0.05-0.31-0.07-0.36-0.25-0.51v-0.08h-0.08c-0.28,0.49-0.52,1.06-0.68,1.7
			c-0.5,2.1,0.66,3.89,1.95,4.32c0.85,0.14,1.69,0.28,2.54,0.42c0.67,0.26,0.97,0.81,1.43,1.27c-0.02,1.09-1.07,1.22-1.95,0.93
			c-1.37-0.44-2.83-0.76-4.23-1.26c-0.37-0.14-0.71-0.36-1.19-0.42c-0.06,0.53-0.12,1.07-0.17,1.61c1.18,0.37,2.37,0.73,3.55,1.1
			C72.39,657.46,71.21,661.04,72.69,663.35z"/>
		<path class="st11" d="M83.27,710.06c0.52,0.27,0.63,1.46,0.84,2.03c0.45,1.19,1.12,2.75,2.2,3.3v0.09h0.18
			c-0.14-0.96-0.68-1.82-1.02-2.63c-0.75-1.82-1.33-3.75-1.95-5.59c-0.36-1.07-0.6-2.12-0.93-3.13c-0.17-0.52-0.13-1.12-0.43-1.53
			v-0.25c0.58,0.21,1.45,0.19,1.95,0.51h0.43c-0.1-0.44-0.19-1.18-0.43-1.53c-0.25-0.42-1.9-0.42-2.37-0.76
			c-0.67-0.52-1.3-2.03-1.78-2.79c-1.2-1.9-2.78-3.92-4.57-5.25c-0.95-0.7-1.61-1.44-3.3-1.44c-0.2,0.14-0.4,0.28-0.59,0.42
			c-0.38,1.69,0.3,4.8,1.26,5.58v0.17c-0.41-0.11-0.84-0.32-1.1-0.59h-0.08c0.02,0.48,0.11,1.11,0.34,1.44
			c0.1,0.42,0.78,0.76,1.19,0.85c0.53,2.22,1.26,4.49,2.03,6.52c0.62,1.62,0.93,3.17,1.6,4.73c0.33,0.76,1.12,1.32,1.36,2.12h0.25
			c-0.19-0.71-0.58-1.38-0.84-2.03c-0.78-1.87-1.4-3.86-2.03-5.75c-0.42-1.25-0.7-2.45-1.1-3.64c-0.15-0.45-0.1-0.91-0.34-1.27
			v-0.08c0.57,0.1,0.92,0.4,1.35,0.59c0.99,0.43,1.93,0.59,2.96,1.02c0.76,0.31,1.7,0.74,2.63,0.85c0.1,0.77,0.54,2.78,0.93,3.3
			v0.25c-1.29-0.88-1.26-2.14-3.56-1.95c-0.11,0.14-0.27,0.25-0.42,0.34c-0.21,0.52-0.22,1.38,0,1.94c0.55,1.38,2.29,4.26,3.72,4.66
			C82.21,710.97,83.02,710.48,83.27,710.06z M81.07,700.41c-0.89-0.06-1.65-0.42-2.37-0.67c-1.91-0.71-3.64-1.32-5.33-2.12
			c-0.21-0.77-1.63-3.51-0.85-4.48c0.06-0.09,0.11-0.17,0.17-0.26c0.17-0.04,0.16-0.02,0.25-0.08c2.61,0.31,5.22,3.48,6.51,5.24
			c0.5,0.69,0.92,1.71,1.61,2.2L81.07,700.41L81.07,700.41z M78.88,706.76c0.01-0.83,0.32-0.83,0.67-1.27
			c0.2-0.02,0.24-0.02,0.34-0.08c1.31,0.01,1.61,0.6,2.37,1.1c0.12,0.5,0.2,0.71,0.17,1.26c-0.25,0.31-0.51,0.62-0.76,0.93
			c-0.23,0.17-0.48,0.23-0.68,0.42C79.54,709.08,79.48,707.66,78.88,706.76z"/>
		<path class="st11" d="M228.62,596.1c0.98,1.32,2.08,2.68,3.89,3.13c2.04,0.51,3.04-1.89,3.81-2.8c0.79-0.93,2.53-1.15,3.13-2.37
			c0.22-0.44,0.07-1.31-0.08-1.69c-0.39-0.91-2.28-3.47-3.05-3.97c0.05-0.51,0.29-0.53,0.5-0.85c0.53,0.26,0.72,1.01,1.1,1.44
			c0.49,0.55,1.17,0.85,1.7,1.35c0.8,0.01,1.29-0.2,1.69-0.59h0.09c-0.2-0.57-0.95-0.96-1.35-1.35c-0.88-0.89-1.56-2-2.45-2.87
			v-0.08c-0.44,0.15-1.92,1.47-2.2,1.86c-0.53-0.21-0.84-0.78-1.27-1.1c-1.44-1.09-2.81-2.5-5.33-2.45
			c-0.32,0.24-0.79,0.25-1.19,0.42c-1.13,0.49-2.31,1.47-2.79,2.62c-0.53,1.29,0.01,3.19,0.42,4.14
			C226.07,592.87,227.44,594.51,228.62,596.1z M228.2,584.34c1.44,0.01,2.13,0.98,2.97,1.61c2.06,1.55,3.8,3.48,5.33,5.58
			c0.69,0.94,1.62,1.47,1.6,3.12c-0.26,0.25-0.33,0.48-0.76,0.59c-0.08,0.07-0.02,0.03-0.17,0.09c-1.2-1.99-2.92-3.66-4.32-5.5
			c-0.45-0.6-1.16-1.09-1.61-1.69c-0.78-1.03-1.7-1.85-2.54-2.79c-0.24-0.28-0.36-0.55-0.67-0.76
			C228.1,584.4,228.1,584.47,228.2,584.34z M226.08,585.52h0.33c0.42,0.64,1.15,1.08,1.61,1.69c1.26,1.68,2.81,3.14,4.05,4.82
			c0.77,1.04,1.63,2.01,2.37,3.04c0.38,0.53,0.67,1.21,1.19,1.61c-0.09,0.39-0.25,0.57-0.42,0.85c-1.5,0.35-2.24-0.63-3.04-1.44
			c-2-2-3.36-4.47-4.91-6.94C226.73,588.31,225.37,586.74,226.08,585.52z"/>
	</g>
</g>
<path class="st12" d="M494.83,922.65c40.17,0,73.55-33.32,73.55-73.55c0-40.17-33.46-73.55-73.63-73.55
	c-40.24,0-73.48,33.39-73.48,73.55C421.28,889.34,454.6,922.65,494.83,922.65z M494.83,910.39c-34.04,0-61.22-27.26-61.22-61.29
	c0-33.96,27.11-61.29,61.15-61.29c33.96,0,61.29,27.33,61.37,61.29C556.2,883.13,528.8,910.39,494.83,910.39z M476.16,877.22
	c6.63,0,10.67,2.6,12.76,3.89c0.65,0.36,2.6,1.51,2.96,1.59v-59.64c-2.6-4.98-9.45-8.65-17.6-8.65c-9.16,0-17.45,4.25-20.05,9.52
	v55.74c0,2.6,1.51,3.53,3.39,3.53c1.51,0,2.45-0.5,3.39-1.23C463.39,879.82,468.8,877.22,476.16,877.22z M513.44,877.22
	c7.28,0,12.76,2.6,15.14,4.76c0.87,0.72,1.87,1.23,3.39,1.23c1.87,0,3.32-0.94,3.32-3.53v-55.74c-2.6-5.26-10.89-9.52-20.05-9.52
	c-8,0-14.85,3.68-17.52,8.65v59.78c0.5-0.07,2.24-1.3,2.96-1.73C502.69,879.74,506.8,877.22,513.44,877.22z"/>
<path class="st13" d="M651.15,856.8c12.52,0,23.87,5.08,32.08,13.29c8.52,8.5,13.3,20.04,13.29,32.08
	c0,12.52-5.08,23.87-13.29,32.08c-8.5,8.52-20.04,13.3-32.08,13.29c-12.03,0.02-23.58-4.77-32.08-13.29
	c-8.52-8.5-13.3-20.04-13.29-32.08c0-12.52,5.08-23.87,13.29-32.08C627.58,861.56,639.12,856.78,651.15,856.8z M651.15,859.01
	c-11.45-0.02-22.43,4.53-30.51,12.64c-8.1,8.08-12.65,19.07-12.64,30.51c0,11.92,4.83,22.7,12.64,30.51
	c8.08,8.1,19.07,12.65,30.51,12.64c11.92,0,22.7-4.83,30.51-12.64c8.1-8.08,12.65-19.07,12.64-30.51c0-11.92-4.83-22.7-12.64-30.51
	C673.58,863.54,662.6,859,651.15,859.01z M668.14,879.9c1.55,0.01,2.72,0.42,3.52,1.19c0.78,0.76,1.16,1.86,1.25,3.13l0.02,0.43
	v36.47c0,1.81-0.3,3.11-1.09,3.94c-0.73,0.76-1.83,1.09-3.27,1.18l-0.49,0.02l-34.86,0.01c-1.66,0-2.86-0.32-3.63-1.06
	c-0.74-0.71-1.05-1.75-1.14-3.05l-0.02-0.44l0-36.68c0-1.62,0.16-3.01,0.93-3.95c0.55-0.67,1.42-1.05,2.67-1.16l0.43-0.03l5.05-0.01
	c0.09,1.26,0.44,2.34,0.95,3.18c0.72,1.17,1.76,1.91,2.99,2.12l0.37,0.05l17.34,0.02c1.23,0,2.44-0.67,3.31-1.81
	c0.52-0.68,0.92-1.52,1.14-2.42l0.09-0.46L668.14,879.9L668.14,879.9z M662.29,909.85h-23.85l-0.33,0.02
	c-0.61,0.07-1.18,0.35-1.61,0.79c-0.52,0.52-0.82,1.24-0.82,1.95c0,0.7,0.27,1.43,0.75,2c0.48,0.58,1.16,1,1.93,1.1h24l0.28-0.02
	c0.64-0.09,1.22-0.44,1.61-0.96c0.46-0.58,0.73-1.38,0.79-2.13c0-0.77-0.32-1.45-0.8-1.93
	C663.72,910.15,663.02,909.86,662.29,909.85L662.29,909.85z M662.43,900.23h-23.85l-0.29,0.02c-0.65,0.08-1.24,0.41-1.67,0.9
	c-0.51,0.58-0.8,1.36-0.8,2.04c0,0.63,0.24,1.34,0.71,1.91c0.44,0.54,1.07,0.94,1.83,1.05h24.14l0.27-0.02
	c0.64-0.09,1.33-0.47,1.81-1.04c0.53-0.62,0.75-1.39,0.6-2.07c-0.04-0.69-0.31-1.35-0.77-1.86
	C663.91,900.59,663.19,900.25,662.43,900.23L662.43,900.23z M662.43,890.26h-23.85l-0.29,0.02c-0.65,0.08-1.24,0.41-1.67,0.9
	c-0.51,0.58-0.8,1.36-0.8,2.04c0,0.63,0.24,1.35,0.71,1.91c0.44,0.54,1.07,0.94,1.83,1.05h24.14l0.27-0.02
	c0.65-0.09,1.35-0.46,1.83-1.02c0.51-0.6,0.74-1.35,0.58-2.07c-0.04-0.69-0.31-1.35-0.77-1.87
	C663.91,890.62,663.19,890.28,662.43,890.26L662.43,890.26z M655.96,878.04c1.1,1.9,1.06,2.36,0.86,2.66l-0.04,0.05l-11.95,0.44
	c-1.29-0.7-1.44-1.12-1.44-1.57c0-0.33,0.1-0.64,0.25-0.89l0.13-0.18L655.96,878.04L655.96,878.04z"/>
<g>
	<g>
		<path class="st14" d="M259.75,213.54c-17.88,0-32.43,14.55-32.43,32.43c0,17.88,14.55,32.42,32.43,32.42
			c17.88,0,32.43-14.55,32.43-32.42C292.18,228.09,277.63,213.54,259.75,213.54z M258.92,266.52c-2.5,0-4.55-2.06-4.55-4.55
			c0-2.5,2.06-4.55,4.55-4.55c2.5,0,4.55,2.06,4.55,4.55S261.42,266.52,258.92,266.52z M263.25,249.13
			c-1.33,1.95-0.89,4.67-4.56,4.67c-2.39,0-3.55-1.94-3.55-3.72c0-6.61,9.72-8.11,9.72-13.56c0-3-2-4.78-5.33-4.78
			c-7.11,0-4.33,7.33-9.72,7.33c-1.94,0-3.61-1.17-3.61-3.39c0-5.44,6.22-10.28,13-10.28c7.11,0,14.11,3.28,14.11,11.11
			C273.31,243.74,265.03,246.52,263.25,249.13z"/>
		<path class="st14" d="M259.23,170.73c-41.55,0-75.24,33.69-75.24,75.24c0,41.55,33.69,75.24,75.24,75.24
			c41.55,0,75.24-33.69,75.24-75.24C334.47,204.41,300.79,170.73,259.23,170.73z M259.75,281.98c-19.86,0-36.02-16.15-36.02-36.01
			s16.16-36.02,36.02-36.02c19.86,0,36.02,16.16,36.02,36.02S279.61,281.98,259.75,281.98z"/>
	</g>
</g>
</svg>
