<?xml version="1.0" encoding="utf-8"?>
<!-- Generator: Adobe Illustrator 24.1.0, SVG Export Plug-In . SVG Version: 6.00 Build 0)  -->
<svg version="1.1" id="Layer_1" xmlns="http://www.w3.org/2000/svg" xmlns:xlink="http://www.w3.org/1999/xlink" x="0px" y="0px"
	 viewBox="0 0 1000 1000" style="enable-background:new 0 0 1000 1000;" xml:space="preserve">
<style type="text/css">
	.st0{fill:url(#SVGID_1_);}
	.st1{fill:url(#SVGID_2_);}
</style>
<path d="M552.7,347.84c-1.86,5.69-4.03,11.32-6.51,16.91c-2.48,5.59-5.24,10.99-8.22,16.18L552.7,347.84z"/>
<linearGradient id="SVGID_1_" gradientUnits="userSpaceOnUse" x1="563.5746" y1="914.9064" x2="563.5746" y2="99.4976">
	<stop  offset="0" style="stop-color:#CCCCCC"/>
	<stop  offset="0.195" style="stop-color:#C6C6C6"/>
	<stop  offset="0.4478" style="stop-color:#B6B6B6"/>
	<stop  offset="0.7311" style="stop-color:#9C9C9C"/>
	<stop  offset="0.9652" style="stop-color:#808080"/>
</linearGradient>
<path class="st0" d="M966.26,650.42c-0.32-0.96-0.65-1.88-1.02-2.84l-0.02-0.06l-9.6-21.57l-0.02-0.02
	c-0.41-0.84-0.88-1.66-1.34-2.48c0.3,0.46,0.59,0.92,0.86,1.4L780.58,232.81l-9.57-21.5c-24.85-47.11-68.71-78.66-117.75-89.34
	c-23.89-5.19-49.01-5.45-73.76-0.13c-11.67,2.52-23.29,6.26-34.63,11.31c-11.09,4.94-21.42,10.89-30.91,17.7
	c-4.4,3.14-8.6,6.47-12.63,9.95c15.58,13.6,28.43,29.72,38.18,47.43c4.83,8.74,8.89,17.89,12.15,27.32l25.52,57.31l5.21-11.67
	c0.61-1.72,1.35-3.41,2.23-5.02c0-0.02,0-0.02,0.02-0.03l31.77-71.39L718.96,435.1l45.17,101.42l14.53,32.63H454.16l46.3-104
	l-12.79-28.73l-63.92-143.57l-3.25,7.28c-0.51,2.6-1.32,5.16-2.44,7.66c-1.13,2.53-2.5,4.87-4.09,7.01l-66.83,150.1l-44.8,100.63
	l-28.73,64.55l-37.3,83.78c-0.8,2.31-1.67,4.6-2.64,6.9c-0.02,0.03-0.03,0.08-0.05,0.13c-0.24,0.61-0.48,1.21-0.75,1.82
	c-0.38,0.84-0.78,1.67-1.21,2.47c-0.02,0.05-0.03,0.1-0.08,0.13c-0.86,1.85-1.8,3.66-2.77,5.42l1.29-2.93
	c-9.59,14.73-28.72,20.75-45.3,13.36c-16.18-7.2-24.53-24.77-20.67-41.39l-3.06,6.88c-7.36,25.16-4.97,51.43,5.38,74.17
	c5.85,12.82,14.21,24.51,24.8,34.26c8.33,7.68,18.03,14.16,28.96,19.02c45.58,20.29,97.78,6.08,127.32-31.38
	c4.75-7.41,9-15.26,12.69-23.54c3.5-7.87,6.39-15.86,8.63-23.92c-0.7,3.98-1.66,7.96-2.85,11.91l25.75-57.83h446.71
	c-0.54,13.57-8.55,26.29-21.78,32.19c-16.72,7.42-36.03,1.42-45.71-13.39l1.15,2.6c13.55,24.53,35.76,41.81,61.03,49.69
	c13.25,4.14,27.35,5.69,41.47,4.33c11.1-1.05,22.22-3.9,32.97-8.68C956.35,754.35,980.58,700.29,966.26,650.42z"/>
<linearGradient id="SVGID_2_" gradientUnits="userSpaceOnUse" x1="500.4738" y1="76.407" x2="500.4738" y2="913.8709">
	<stop  offset="0.1748" style="stop-color:#00FFFF"/>
	<stop  offset="0.2494" style="stop-color:#01F5F9"/>
	<stop  offset="0.3748" style="stop-color:#04DBE7"/>
	<stop  offset="0.5357" style="stop-color:#09B1CB"/>
	<stop  offset="0.7258" style="stop-color:#1075A4"/>
	<stop  offset="0.9382" style="stop-color:#182B73"/>
	<stop  offset="1" style="stop-color:#1B1464"/>
</linearGradient>
<path class="st1" d="M966.26,650.42c14.32,49.87-9.91,103.92-58.66,125.63c-10.75,4.78-21.87,7.63-32.97,8.68
	c-14.13,1.35-28.22-0.19-41.47-4.33c-25.28-7.88-47.48-25.17-61.03-49.69c-0.59-1.05-1.16-2.13-1.7-3.22
	c-0.22-0.43-0.45-0.86-0.62-1.29c-0.03-0.02-0.05-0.05-0.05-0.08c-0.41-0.8-0.8-1.59-1.16-2.41c-0.21-0.41-0.38-0.83-0.57-1.24
	c-0.18-0.4-0.35-0.8-0.51-1.19c-0.14-0.29-0.25-0.56-0.37-0.83c-0.02-0.05-0.03-0.08-0.05-0.11c-0.02-0.02-0.02-0.03-0.02-0.06
	c-0.06-0.11-0.11-0.22-0.14-0.32c-0.22-0.56-0.46-1.11-0.67-1.67c-0.59-1.47-1.13-2.95-1.64-4.43l-37.01-83.14l-29.02-65.19
	l-45.04-101.14l-67.58-151.82l-0.03-0.03c-0.96-1.5-1.8-3.07-2.55-4.75c-0.73-1.67-1.34-3.36-1.82-5.06l-4.4-9.87l-25.52-57.31
	l-12.15-27.32c-9.75-17.71-22.6-33.83-38.18-47.43c-4.41-3.87-9.05-7.53-13.9-10.96c-9.37-6.66-19.51-12.47-30.39-17.31
	c-11.55-5.14-23.35-8.95-35.25-11.47c-24.96-5.29-50.28-4.94-74.33,0.41c-48.71,10.83-92.25,42.19-117.11,88.91l-10.3,23.16
	L45.82,624.86c0.27-0.48,0.56-0.94,0.86-1.4c-0.46,0.83-0.92,1.66-1.35,2.5l-9.6,21.57c-0.37,0.97-0.72,1.93-1.04,2.9
	c-25.66,73.6,0.83,154.64,62.67,199.36c9.68,6.99,20.23,13.11,31.57,18.16c11.1,4.94,22.43,8.63,33.85,11.13
	c71,15.61,145.19-14.68,184.77-76.37c-29.54,37.46-81.74,51.67-127.32,31.38c-10.93-4.86-20.63-11.34-28.96-19.02
	c-10.59-9.75-18.95-21.44-24.8-34.26c-10.35-22.74-12.74-49.01-5.38-74.17c1.34-4.57,3.01-9.13,5-13.6
	c1.99-4.48,4.25-8.74,6.75-12.79l1.23-2.77H595l40.03,89.91c-1.21-3.97-2.18-7.96-2.9-11.96c2.25,8,5.11,15.93,8.58,23.75
	c3.46,7.77,7.42,15.18,11.83,22.17c39.36,62.61,114.1,93.46,185.63,77.74c11.42-2.5,22.74-6.2,33.85-11.13
	c11.34-5.05,21.88-11.16,31.57-18.16C965.44,805.06,991.92,724.02,966.26,650.42z M236.47,537.31l0.35-0.78l45.04-101.17
	l67.47-151.53c0.49-1.93,1.16-3.85,2.01-5.73c0.84-1.9,1.83-3.7,2.95-5.37l30.26-67.98l29.66,66.62c3.07,4.2,5.21,9.01,6.28,14.1
	l3.3,7.39l63.92,143.57l12.79,28.73l32.12,72.15H236.47z"/>
</svg>
